<?xml version="1.0" encoding="utf-8" standalone="no"?>
<!DOCTYPE svg PUBLIC "-//W3C//DTD SVG 1.1//EN"
  "http://www.w3.org/Graphics/SVG/1.1/DTD/svg11.dtd">
<svg xmlns:xlink="http://www.w3.org/1999/xlink" width="479.45926pt" height="325.852pt" viewBox="0 0 479.45926 325.852" xmlns="http://www.w3.org/2000/svg" version="1.1">
 <metadata>
  <rdf:RDF xmlns:dc="http://purl.org/dc/elements/1.1/" xmlns:cc="http://creativecommons.org/ns#" xmlns:rdf="http://www.w3.org/1999/02/22-rdf-syntax-ns#">
   <cc:Work>
    <dc:type rdf:resource="http://purl.org/dc/dcmitype/StillImage"/>
    <dc:date>2022-02-22T20:51:54.697865</dc:date>
    <dc:format>image/svg+xml</dc:format>
    <dc:creator>
     <cc:Agent>
      <dc:title>Matplotlib v3.5.0, https://matplotlib.org/</dc:title>
     </cc:Agent>
    </dc:creator>
   </cc:Work>
  </rdf:RDF>
 </metadata>
 <defs>
  <style type="text/css">*{stroke-linejoin: round; stroke-linecap: butt}</style>
 </defs>
 <g id="figure_1">
  <g id="patch_1">
   <path d="M 0 325.852 
L 479.45926 325.852 
L 479.45926 0 
L 0 0 
L 0 325.852 
z
" style="fill: none"/>
  </g>
  <g id="axes_1">
   <g id="patch_2">
    <path d="M 87.552385 288.430125 
L 444.672385 288.430125 
L 444.672385 22.318125 
L 87.552385 22.318125 
L 87.552385 288.430125 
z
" style="fill: none"/>
   </g>
   <g id="patch_3">
    <path d="M 87.552385 276.334125 
L 427.666671 276.334125 
L 427.666671 264.085011 
L 87.552385 264.085011 
z
" clip-path="url(#p0fc109de97)" style="fill: #1f77b4"/>
   </g>
   <g id="patch_4">
    <path d="M 87.552385 261.022733 
L 115.129219 261.022733 
L 115.129219 248.773619 
L 87.552385 248.773619 
z
" clip-path="url(#p0fc109de97)" style="fill: #1f77b4"/>
   </g>
   <g id="patch_5">
    <path d="M 87.552385 245.71134 
L 87.552385 245.71134 
L 87.552385 233.462226 
L 87.552385 233.462226 
z
" clip-path="url(#p0fc109de97)" style="fill: #1f77b4"/>
   </g>
   <g id="patch_6">
    <path d="M 87.552385 230.399948 
L 87.552385 230.399948 
L 87.552385 218.150834 
L 87.552385 218.150834 
z
" clip-path="url(#p0fc109de97)" style="fill: #1f77b4"/>
   </g>
   <g id="patch_7">
    <path d="M 87.552385 215.088555 
L 87.552385 215.088555 
L 87.552385 202.839441 
L 87.552385 202.839441 
z
" clip-path="url(#p0fc109de97)" style="fill: #1f77b4"/>
   </g>
   <g id="patch_8">
    <path d="M 87.552385 199.777163 
L 87.552385 199.777163 
L 87.552385 187.528049 
L 87.552385 187.528049 
z
" clip-path="url(#p0fc109de97)" style="fill: #1f77b4"/>
   </g>
   <g id="patch_9">
    <path d="M 87.552385 184.465771 
L 87.552385 184.465771 
L 87.552385 172.216657 
L 87.552385 172.216657 
z
" clip-path="url(#p0fc109de97)" style="fill: #1f77b4"/>
   </g>
   <g id="patch_10">
    <path d="M 87.552385 169.154378 
L 87.552385 169.154378 
L 87.552385 156.905264 
L 87.552385 156.905264 
z
" clip-path="url(#p0fc109de97)" style="fill: #1f77b4"/>
   </g>
   <g id="patch_11">
    <path d="M 87.552385 153.842986 
L 87.552385 153.842986 
L 87.552385 141.593872 
L 87.552385 141.593872 
z
" clip-path="url(#p0fc109de97)" style="fill: #1f77b4"/>
   </g>
   <g id="patch_12">
    <path d="M 87.552385 138.531593 
L 87.552385 138.531593 
L 87.552385 126.282479 
L 87.552385 126.282479 
z
" clip-path="url(#p0fc109de97)" style="fill: #1f77b4"/>
   </g>
   <g id="patch_13">
    <path d="M 87.552385 123.220201 
L 87.552385 123.220201 
L 87.552385 110.971087 
L 87.552385 110.971087 
z
" clip-path="url(#p0fc109de97)" style="fill: #1f77b4"/>
   </g>
   <g id="patch_14">
    <path d="M 87.552385 107.908809 
L 87.552385 107.908809 
L 87.552385 95.659695 
L 87.552385 95.659695 
z
" clip-path="url(#p0fc109de97)" style="fill: #1f77b4"/>
   </g>
   <g id="patch_15">
    <path d="M 87.552385 92.597416 
L 87.552385 92.597416 
L 87.552385 80.348302 
L 87.552385 80.348302 
z
" clip-path="url(#p0fc109de97)" style="fill: #1f77b4"/>
   </g>
   <g id="patch_16">
    <path d="M 87.552385 77.286024 
L 87.552385 77.286024 
L 87.552385 65.03691 
L 87.552385 65.03691 
z
" clip-path="url(#p0fc109de97)" style="fill: #1f77b4"/>
   </g>
   <g id="patch_17">
    <path d="M 87.552385 61.974631 
L 87.552385 61.974631 
L 87.552385 49.725517 
L 87.552385 49.725517 
z
" clip-path="url(#p0fc109de97)" style="fill: #1f77b4"/>
   </g>
   <g id="patch_18">
    <path d="M 87.552385 46.663239 
L 87.552385 46.663239 
L 87.552385 34.414125 
L 87.552385 34.414125 
z
" clip-path="url(#p0fc109de97)" style="fill: #1f77b4"/>
   </g>
   <g id="matplotlib.axis_1">
    <g id="xtick_1">
     <g id="line2d_1">
      <defs>
       <path id="m85f801d1a8" d="M 0 0 
L 0 3.5 
" style="stroke: #000000; stroke-width: 0.8"/>
      </defs>
      <g>
       <use xlink:href="#m85f801d1a8" x="87.552385" y="288.430125" style="stroke: #000000; stroke-width: 0.8"/>
      </g>
     </g>
     <g id="text_1">
      <!-- 0 -->
      <g transform="translate(84.373479 303.028562)scale(0.1 -0.1)">
       <defs>
        <path id="Verdana-30" d="M 3647 2328 
Q 3647 1075 3255 489 
Q 2863 -97 2038 -97 
Q 1200 -97 814 497 
Q 428 1091 428 2322 
Q 428 3563 818 4155 
Q 1209 4747 2038 4747 
Q 2875 4747 3261 4145 
Q 3647 3544 3647 2328 
z
M 2825 909 
Q 2934 1163 2973 1505 
Q 3013 1847 3013 2328 
Q 3013 2803 2973 3153 
Q 2934 3503 2822 3747 
Q 2713 3988 2523 4109 
Q 2334 4231 2038 4231 
Q 1744 4231 1551 4109 
Q 1359 3988 1247 3741 
Q 1141 3509 1102 3137 
Q 1063 2766 1063 2322 
Q 1063 1834 1097 1506 
Q 1131 1178 1244 919 
Q 1347 675 1536 547 
Q 1725 419 2038 419 
Q 2331 419 2525 541 
Q 2719 663 2825 909 
z
" transform="scale(0.015625)"/>
       </defs>
       <use xlink:href="#Verdana-30"/>
      </g>
     </g>
    </g>
    <g id="xtick_2">
     <g id="line2d_2">
      <g>
       <use xlink:href="#m85f801d1a8" x="133.513775" y="288.430125" style="stroke: #000000; stroke-width: 0.8"/>
      </g>
     </g>
     <g id="text_2">
      <!-- 5 -->
      <g transform="translate(130.334869 303.028562)scale(0.1 -0.1)">
       <defs>
        <path id="Verdana-35" d="M 3616 1478 
Q 3616 1153 3497 856 
Q 3378 559 3172 356 
Q 2947 138 2636 20 
Q 2325 -97 1916 -97 
Q 1534 -97 1181 -17 
Q 828 63 584 175 
L 584 834 
L 628 834 
Q 884 672 1228 558 
Q 1572 444 1903 444 
Q 2125 444 2333 506 
Q 2541 569 2703 725 
Q 2841 859 2911 1046 
Q 2981 1234 2981 1481 
Q 2981 1722 2898 1887 
Q 2816 2053 2669 2153 
Q 2506 2272 2273 2320 
Q 2041 2369 1753 2369 
Q 1478 2369 1223 2331 
Q 969 2294 784 2256 
L 784 4653 
L 3584 4653 
L 3584 4106 
L 1388 4106 
L 1388 2869 
Q 1522 2881 1662 2887 
Q 1803 2894 1906 2894 
Q 2284 2894 2568 2830 
Q 2853 2766 3091 2603 
Q 3341 2431 3478 2159 
Q 3616 1888 3616 1478 
z
" transform="scale(0.015625)"/>
       </defs>
       <use xlink:href="#Verdana-35"/>
      </g>
     </g>
    </g>
    <g id="xtick_3">
     <g id="line2d_3">
      <g>
       <use xlink:href="#m85f801d1a8" x="179.475165" y="288.430125" style="stroke: #000000; stroke-width: 0.8"/>
      </g>
     </g>
     <g id="text_3">
      <!-- 10 -->
      <g transform="translate(173.117352 303.028562)scale(0.1 -0.1)">
       <defs>
        <path id="Verdana-31" d="M 3388 0 
L 869 0 
L 869 475 
L 1838 475 
L 1838 3594 
L 869 3594 
L 869 4019 
Q 1066 4019 1291 4051 
Q 1516 4084 1631 4147 
Q 1775 4225 1858 4345 
Q 1941 4466 1953 4669 
L 2438 4669 
L 2438 475 
L 3388 475 
L 3388 0 
z
" transform="scale(0.015625)"/>
       </defs>
       <use xlink:href="#Verdana-31"/>
       <use xlink:href="#Verdana-30" x="63.574219"/>
      </g>
     </g>
    </g>
    <g id="xtick_4">
     <g id="line2d_4">
      <g>
       <use xlink:href="#m85f801d1a8" x="225.436555" y="288.430125" style="stroke: #000000; stroke-width: 0.8"/>
      </g>
     </g>
     <g id="text_4">
      <!-- 15 -->
      <g transform="translate(219.078742 303.028562)scale(0.1 -0.1)">
       <use xlink:href="#Verdana-31"/>
       <use xlink:href="#Verdana-35" x="63.574219"/>
      </g>
     </g>
    </g>
    <g id="xtick_5">
     <g id="line2d_5">
      <g>
       <use xlink:href="#m85f801d1a8" x="271.397945" y="288.430125" style="stroke: #000000; stroke-width: 0.8"/>
      </g>
     </g>
     <g id="text_5">
      <!-- 20 -->
      <g transform="translate(265.040132 303.028562)scale(0.1 -0.1)">
       <defs>
        <path id="Verdana-32" d="M 3653 0 
L 503 0 
L 503 653 
Q 831 934 1161 1215 
Q 1491 1497 1775 1775 
Q 2375 2356 2597 2698 
Q 2819 3041 2819 3438 
Q 2819 3800 2580 4004 
Q 2341 4209 1913 4209 
Q 1628 4209 1297 4109 
Q 966 4009 650 3803 
L 619 3803 
L 619 4459 
Q 841 4569 1211 4659 
Q 1581 4750 1928 4750 
Q 2644 4750 3050 4404 
Q 3456 4059 3456 3469 
Q 3456 3203 3389 2973 
Q 3322 2744 3191 2538 
Q 3069 2344 2905 2156 
Q 2741 1969 2506 1741 
Q 2172 1413 1815 1105 
Q 1459 797 1150 534 
L 3653 534 
L 3653 0 
z
" transform="scale(0.015625)"/>
       </defs>
       <use xlink:href="#Verdana-32"/>
       <use xlink:href="#Verdana-30" x="63.574219"/>
      </g>
     </g>
    </g>
    <g id="xtick_6">
     <g id="line2d_6">
      <g>
       <use xlink:href="#m85f801d1a8" x="317.359335" y="288.430125" style="stroke: #000000; stroke-width: 0.8"/>
      </g>
     </g>
     <g id="text_6">
      <!-- 25 -->
      <g transform="translate(311.001522 303.028562)scale(0.1 -0.1)">
       <use xlink:href="#Verdana-32"/>
       <use xlink:href="#Verdana-35" x="63.574219"/>
      </g>
     </g>
    </g>
    <g id="xtick_7">
     <g id="line2d_7">
      <g>
       <use xlink:href="#m85f801d1a8" x="363.320725" y="288.430125" style="stroke: #000000; stroke-width: 0.8"/>
      </g>
     </g>
     <g id="text_7">
      <!-- 30 -->
      <g transform="translate(356.962912 303.028562)scale(0.1 -0.1)">
       <defs>
        <path id="Verdana-33" d="M 3244 2241 
Q 3394 2106 3491 1903 
Q 3588 1700 3588 1378 
Q 3588 1059 3472 793 
Q 3356 528 3147 331 
Q 2913 113 2595 8 
Q 2278 -97 1900 -97 
Q 1513 -97 1138 -4 
Q 763 88 522 197 
L 522 850 
L 569 850 
Q 834 675 1193 559 
Q 1553 444 1888 444 
Q 2084 444 2306 509 
Q 2528 575 2666 703 
Q 2809 841 2879 1006 
Q 2950 1172 2950 1425 
Q 2950 1675 2870 1839 
Q 2791 2003 2650 2097 
Q 2509 2194 2309 2230 
Q 2109 2266 1878 2266 
L 1597 2266 
L 1597 2784 
L 1816 2784 
Q 2291 2784 2573 2982 
Q 2856 3181 2856 3563 
Q 2856 3731 2784 3857 
Q 2713 3984 2584 4066 
Q 2450 4147 2297 4178 
Q 2144 4209 1950 4209 
Q 1653 4209 1318 4103 
Q 984 3997 688 3803 
L 656 3803 
L 656 4456 
Q 878 4566 1248 4658 
Q 1619 4750 1966 4750 
Q 2306 4750 2565 4687 
Q 2825 4625 3034 4488 
Q 3259 4338 3375 4125 
Q 3491 3913 3491 3628 
Q 3491 3241 3217 2952 
Q 2944 2663 2572 2588 
L 2572 2544 
Q 2722 2519 2915 2439 
Q 3109 2359 3244 2241 
z
" transform="scale(0.015625)"/>
       </defs>
       <use xlink:href="#Verdana-33"/>
       <use xlink:href="#Verdana-30" x="63.574219"/>
      </g>
     </g>
    </g>
    <g id="xtick_8">
     <g id="line2d_8">
      <g>
       <use xlink:href="#m85f801d1a8" x="409.282115" y="288.430125" style="stroke: #000000; stroke-width: 0.8"/>
      </g>
     </g>
     <g id="text_8">
      <!-- 35 -->
      <g transform="translate(402.924302 303.028562)scale(0.1 -0.1)">
       <use xlink:href="#Verdana-33"/>
       <use xlink:href="#Verdana-35" x="63.574219"/>
      </g>
     </g>
    </g>
    <g id="text_9">
     <!-- Total recovered cases -->
     <g transform="translate(212.04051 316.6395)scale(0.1 -0.1)">
      <defs>
       <path id="Verdana-54" d="M 3944 4103 
L 2281 4103 
L 2281 0 
L 1663 0 
L 1663 4103 
L 0 4103 
L 0 4653 
L 3944 4653 
L 3944 4103 
z
" transform="scale(0.015625)"/>
       <path id="Verdana-6f" d="M 3553 1744 
Q 3553 891 3115 397 
Q 2678 -97 1944 -97 
Q 1203 -97 767 397 
Q 331 891 331 1744 
Q 331 2597 767 3092 
Q 1203 3588 1944 3588 
Q 2678 3588 3115 3092 
Q 3553 2597 3553 1744 
z
M 2947 1744 
Q 2947 2422 2681 2751 
Q 2416 3081 1944 3081 
Q 1466 3081 1202 2751 
Q 938 2422 938 1744 
Q 938 1088 1203 748 
Q 1469 409 1944 409 
Q 2413 409 2680 745 
Q 2947 1081 2947 1744 
z
" transform="scale(0.015625)"/>
       <path id="Verdana-74" d="M 2391 31 
Q 2225 -13 2029 -41 
Q 1834 -69 1681 -69 
Q 1147 -69 869 218 
Q 591 506 591 1141 
L 591 2997 
L 194 2997 
L 194 3491 
L 591 3491 
L 591 4494 
L 1178 4494 
L 1178 3491 
L 2391 3491 
L 2391 2997 
L 1178 2997 
L 1178 1406 
Q 1178 1131 1190 976 
Q 1203 822 1278 688 
Q 1347 563 1467 505 
Q 1588 447 1834 447 
Q 1978 447 2134 489 
Q 2291 531 2359 559 
L 2391 559 
L 2391 31 
z
" transform="scale(0.015625)"/>
       <path id="Verdana-61" d="M 3291 0 
L 2706 0 
L 2706 372 
Q 2628 319 2495 223 
Q 2363 128 2238 72 
Q 2091 0 1900 -48 
Q 1709 -97 1453 -97 
Q 981 -97 653 215 
Q 325 528 325 1013 
Q 325 1409 495 1654 
Q 666 1900 981 2041 
Q 1300 2181 1747 2231 
Q 2194 2281 2706 2306 
L 2706 2397 
Q 2706 2597 2636 2728 
Q 2566 2859 2434 2934 
Q 2309 3006 2134 3031 
Q 1959 3056 1769 3056 
Q 1538 3056 1253 2995 
Q 969 2934 666 2819 
L 634 2819 
L 634 3416 
Q 806 3463 1131 3519 
Q 1456 3575 1772 3575 
Q 2141 3575 2414 3514 
Q 2688 3453 2888 3306 
Q 3084 3163 3187 2934 
Q 3291 2706 3291 2369 
L 3291 0 
z
M 2706 859 
L 2706 1831 
Q 2438 1816 2073 1784 
Q 1709 1753 1497 1694 
Q 1244 1622 1087 1470 
Q 931 1319 931 1053 
Q 931 753 1112 601 
Q 1294 450 1666 450 
Q 1975 450 2231 570 
Q 2488 691 2706 859 
z
" transform="scale(0.015625)"/>
       <path id="Verdana-6c" d="M 1172 0 
L 584 0 
L 584 4863 
L 1172 4863 
L 1172 0 
z
" transform="scale(0.015625)"/>
       <path id="Verdana-20" transform="scale(0.015625)"/>
       <path id="Verdana-72" d="M 2756 2850 
L 2725 2850 
Q 2594 2881 2470 2895 
Q 2347 2909 2178 2909 
Q 1906 2909 1653 2789 
Q 1400 2669 1166 2478 
L 1166 0 
L 578 0 
L 578 3491 
L 1166 3491 
L 1166 2975 
Q 1516 3256 1783 3373 
Q 2050 3491 2328 3491 
Q 2481 3491 2550 3483 
Q 2619 3475 2756 3453 
L 2756 2850 
z
" transform="scale(0.015625)"/>
       <path id="Verdana-65" d="M 3500 1684 
L 928 1684 
Q 928 1363 1025 1123 
Q 1122 884 1291 731 
Q 1453 581 1676 506 
Q 1900 431 2169 431 
Q 2525 431 2886 573 
Q 3247 716 3400 853 
L 3431 853 
L 3431 213 
Q 3134 88 2825 3 
Q 2516 -81 2175 -81 
Q 1306 -81 818 389 
Q 331 859 331 1725 
Q 331 2581 798 3084 
Q 1266 3588 2028 3588 
Q 2734 3588 3117 3175 
Q 3500 2763 3500 2003 
L 3500 1684 
z
M 2928 2134 
Q 2925 2597 2695 2850 
Q 2466 3103 1997 3103 
Q 1525 3103 1245 2825 
Q 966 2547 928 2134 
L 2928 2134 
z
" transform="scale(0.015625)"/>
       <path id="Verdana-63" d="M 3159 219 
Q 2866 78 2602 0 
Q 2338 -78 2041 -78 
Q 1663 -78 1347 33 
Q 1031 144 806 369 
Q 578 594 453 937 
Q 328 1281 328 1741 
Q 328 2597 798 3084 
Q 1269 3572 2041 3572 
Q 2341 3572 2630 3487 
Q 2919 3403 3159 3281 
L 3159 2628 
L 3128 2628 
Q 2859 2838 2573 2950 
Q 2288 3063 2016 3063 
Q 1516 3063 1227 2727 
Q 938 2391 938 1741 
Q 938 1109 1220 770 
Q 1503 431 2016 431 
Q 2194 431 2378 478 
Q 2563 525 2709 600 
Q 2838 666 2950 739 
Q 3063 813 3128 866 
L 3159 866 
L 3159 219 
z
" transform="scale(0.015625)"/>
       <path id="Verdana-76" d="M 3597 3491 
L 2184 0 
L 1594 0 
L 191 3491 
L 828 3491 
L 1909 713 
L 2981 3491 
L 3597 3491 
z
" transform="scale(0.015625)"/>
       <path id="Verdana-64" d="M 3409 0 
L 2822 0 
L 2822 366 
Q 2569 147 2294 25 
Q 2019 -97 1697 -97 
Q 1072 -97 705 384 
Q 338 866 338 1719 
Q 338 2163 464 2509 
Q 591 2856 806 3100 
Q 1019 3338 1301 3463 
Q 1584 3588 1888 3588 
Q 2163 3588 2375 3530 
Q 2588 3472 2822 3350 
L 2822 4863 
L 3409 4863 
L 3409 0 
z
M 2822 859 
L 2822 2863 
Q 2584 2969 2396 3009 
Q 2209 3050 1988 3050 
Q 1494 3050 1219 2706 
Q 944 2363 944 1731 
Q 944 1109 1156 786 
Q 1369 463 1838 463 
Q 2088 463 2344 573 
Q 2600 684 2822 859 
z
" transform="scale(0.015625)"/>
       <path id="Verdana-73" d="M 3072 1006 
Q 3072 528 2676 222 
Q 2281 -84 1597 -84 
Q 1209 -84 886 8 
Q 563 100 344 209 
L 344 869 
L 375 869 
Q 653 659 993 536 
Q 1334 413 1647 413 
Q 2034 413 2253 538 
Q 2472 663 2472 931 
Q 2472 1138 2353 1244 
Q 2234 1350 1897 1425 
Q 1772 1453 1570 1490 
Q 1369 1528 1203 1572 
Q 744 1694 551 1930 
Q 359 2166 359 2509 
Q 359 2725 448 2915 
Q 538 3106 719 3256 
Q 894 3403 1164 3489 
Q 1434 3575 1769 3575 
Q 2081 3575 2401 3498 
Q 2722 3422 2934 3313 
L 2934 2684 
L 2903 2684 
Q 2678 2850 2356 2964 
Q 2034 3078 1725 3078 
Q 1403 3078 1181 2954 
Q 959 2831 959 2588 
Q 959 2372 1094 2263 
Q 1225 2153 1519 2084 
Q 1681 2047 1882 2009 
Q 2084 1972 2219 1941 
Q 2628 1847 2850 1619 
Q 3072 1388 3072 1006 
z
" transform="scale(0.015625)"/>
      </defs>
      <use xlink:href="#Verdana-54"/>
      <use xlink:href="#Verdana-6f" x="50.871094"/>
      <use xlink:href="#Verdana-74" x="111.564453"/>
      <use xlink:href="#Verdana-61" x="150.96875"/>
      <use xlink:href="#Verdana-6c" x="211.027344"/>
      <use xlink:href="#Verdana-20" x="238.46875"/>
      <use xlink:href="#Verdana-72" x="273.625"/>
      <use xlink:href="#Verdana-65" x="316.300781"/>
      <use xlink:href="#Verdana-63" x="375.871094"/>
      <use xlink:href="#Verdana-6f" x="427.970703"/>
      <use xlink:href="#Verdana-76" x="487.914062"/>
      <use xlink:href="#Verdana-65" x="546.21875"/>
      <use xlink:href="#Verdana-72" x="605.789062"/>
      <use xlink:href="#Verdana-65" x="648.464844"/>
      <use xlink:href="#Verdana-64" x="708.035156"/>
      <use xlink:href="#Verdana-20" x="770.339844"/>
      <use xlink:href="#Verdana-63" x="805.496094"/>
      <use xlink:href="#Verdana-61" x="857.595703"/>
      <use xlink:href="#Verdana-73" x="917.654297"/>
      <use xlink:href="#Verdana-65" x="969.753906"/>
      <use xlink:href="#Verdana-73" x="1029.324219"/>
     </g>
    </g>
   </g>
   <g id="matplotlib.axis_2">
    <g id="ytick_1">
     <g id="line2d_9">
      <defs>
       <path id="m78a88568d5" d="M 0 0 
L -3.5 0 
" style="stroke: #000000; stroke-width: 0.8"/>
      </defs>
      <g>
       <use xlink:href="#m78a88568d5" x="87.552385" y="270.209568" style="stroke: #000000; stroke-width: 0.8"/>
      </g>
     </g>
     <g id="text_10">
      <!-- Australia -->
      <g transform="translate(48.118281 302.794308)rotate(-45)scale(0.1 -0.1)">
       <defs>
        <path id="Verdana-41" d="M 4294 0 
L 3634 0 
L 3178 1297 
L 1166 1297 
L 709 0 
L 81 0 
L 1775 4653 
L 2600 4653 
L 4294 0 
z
M 2988 1828 
L 2172 4113 
L 1353 1828 
L 2988 1828 
z
" transform="scale(0.015625)"/>
        <path id="Verdana-75" d="M 3472 0 
L 2884 0 
L 2884 388 
Q 2588 153 2316 28 
Q 2044 -97 1716 -97 
Q 1166 -97 859 239 
Q 553 575 553 1225 
L 553 3491 
L 1141 3491 
L 1141 1503 
Q 1141 1238 1166 1048 
Q 1191 859 1272 725 
Q 1356 588 1490 525 
Q 1625 463 1881 463 
Q 2109 463 2379 581 
Q 2650 700 2884 884 
L 2884 3491 
L 3472 3491 
L 3472 0 
z
" transform="scale(0.015625)"/>
        <path id="Verdana-69" d="M 1209 4075 
L 547 4075 
L 547 4684 
L 1209 4684 
L 1209 4075 
z
M 1172 0 
L 584 0 
L 584 3491 
L 1172 3491 
L 1172 0 
z
" transform="scale(0.015625)"/>
       </defs>
       <use xlink:href="#Verdana-41"/>
       <use xlink:href="#Verdana-75" x="67.859375"/>
       <use xlink:href="#Verdana-73" x="131.140625"/>
       <use xlink:href="#Verdana-74" x="183.240234"/>
       <use xlink:href="#Verdana-72" x="222.644531"/>
       <use xlink:href="#Verdana-61" x="263.570312"/>
       <use xlink:href="#Verdana-6c" x="323.628906"/>
       <use xlink:href="#Verdana-69" x="351.070312"/>
       <use xlink:href="#Verdana-61" x="378.511719"/>
      </g>
     </g>
    </g>
    <g id="ytick_2">
     <g id="line2d_10">
      <g>
       <use xlink:href="#m78a88568d5" x="87.552385" y="254.898176" style="stroke: #000000; stroke-width: 0.8"/>
      </g>
     </g>
     <g id="text_11">
      <!-- New Zealand -->
      <g transform="translate(33.185069 302.416127)rotate(-45)scale(0.1 -0.1)">
       <defs>
        <path id="Verdana-4e" d="M 4175 0 
L 3409 0 
L 1203 4163 
L 1203 0 
L 625 0 
L 625 4653 
L 1584 4653 
L 3597 853 
L 3597 4653 
L 4175 4653 
L 4175 0 
z
" transform="scale(0.015625)"/>
        <path id="Verdana-77" d="M 4969 3491 
L 4059 0 
L 3516 0 
L 2619 2691 
L 1728 0 
L 1188 0 
L 269 3491 
L 881 3491 
L 1522 788 
L 2394 3491 
L 2878 3491 
L 3772 788 
L 4378 3491 
L 4969 3491 
z
" transform="scale(0.015625)"/>
        <path id="Verdana-5a" d="M 4025 0 
L 394 0 
L 394 575 
L 3247 4103 
L 500 4103 
L 500 4653 
L 3956 4653 
L 3956 4094 
L 1075 550 
L 4025 550 
L 4025 0 
z
" transform="scale(0.015625)"/>
        <path id="Verdana-6e" d="M 3497 0 
L 2909 0 
L 2909 1988 
Q 2909 2228 2881 2439 
Q 2853 2650 2778 2769 
Q 2700 2900 2553 2964 
Q 2406 3028 2172 3028 
Q 1931 3028 1668 2909 
Q 1406 2791 1166 2606 
L 1166 0 
L 578 0 
L 578 3491 
L 1166 3491 
L 1166 3103 
Q 1441 3331 1734 3459 
Q 2028 3588 2338 3588 
Q 2903 3588 3200 3247 
Q 3497 2906 3497 2266 
L 3497 0 
z
" transform="scale(0.015625)"/>
       </defs>
       <use xlink:href="#Verdana-4e"/>
       <use xlink:href="#Verdana-65" x="74.804688"/>
       <use xlink:href="#Verdana-77" x="134.375"/>
       <use xlink:href="#Verdana-20" x="216.210938"/>
       <use xlink:href="#Verdana-5a" x="251.367188"/>
       <use xlink:href="#Verdana-65" x="316.998047"/>
       <use xlink:href="#Verdana-61" x="376.568359"/>
       <use xlink:href="#Verdana-6c" x="436.626953"/>
       <use xlink:href="#Verdana-61" x="464.068359"/>
       <use xlink:href="#Verdana-6e" x="524.126953"/>
       <use xlink:href="#Verdana-64" x="587.408203"/>
      </g>
     </g>
    </g>
    <g id="ytick_3">
     <g id="line2d_11">
      <g>
       <use xlink:href="#m78a88568d5" x="87.552385" y="239.586783" style="stroke: #000000; stroke-width: 0.8"/>
      </g>
     </g>
     <g id="text_12">
      <!-- Fiji -->
      <g transform="translate(68.713871 251.527365)rotate(-45)scale(0.1 -0.1)">
       <defs>
        <path id="Verdana-46" d="M 3597 4103 
L 1244 4103 
L 1244 2791 
L 3266 2791 
L 3266 2241 
L 1244 2241 
L 1244 0 
L 625 0 
L 625 4653 
L 3597 4653 
L 3597 4103 
z
" transform="scale(0.015625)"/>
        <path id="Verdana-6a" d="M 1666 4075 
L 1003 4075 
L 1003 4684 
L 1666 4684 
L 1666 4075 
z
M 1628 -84 
Q 1628 -697 1315 -1009 
Q 1003 -1322 478 -1322 
Q 353 -1322 148 -1297 
Q -56 -1272 -194 -1234 
L -194 -675 
L -163 -675 
Q -75 -709 73 -753 
Q 222 -797 363 -797 
Q 588 -797 725 -734 
Q 863 -672 931 -547 
Q 1000 -422 1020 -245 
Q 1041 -69 1041 184 
L 1041 2997 
L 313 2997 
L 313 3491 
L 1628 3491 
L 1628 -84 
z
" transform="scale(0.015625)"/>
       </defs>
       <use xlink:href="#Verdana-46"/>
       <use xlink:href="#Verdana-69" x="57.470703"/>
       <use xlink:href="#Verdana-6a" x="84.912109"/>
       <use xlink:href="#Verdana-69" x="119.335938"/>
      </g>
     </g>
    </g>
    <g id="ytick_4">
     <g id="line2d_12">
      <g>
       <use xlink:href="#m78a88568d5" x="87.552385" y="224.275391" style="stroke: #000000; stroke-width: 0.8"/>
      </g>
     </g>
     <g id="text_13">
      <!-- French Polynesia -->
      <g transform="translate(19.655023 285.323388)rotate(-45)scale(0.1 -0.1)">
       <defs>
        <path id="Verdana-68" d="M 3497 0 
L 2909 0 
L 2909 1988 
Q 2909 2228 2881 2439 
Q 2853 2650 2778 2769 
Q 2700 2900 2553 2964 
Q 2406 3028 2172 3028 
Q 1931 3028 1668 2909 
Q 1406 2791 1166 2606 
L 1166 0 
L 578 0 
L 578 4863 
L 1166 4863 
L 1166 3103 
Q 1441 3331 1734 3459 
Q 2028 3588 2338 3588 
Q 2903 3588 3200 3247 
Q 3497 2906 3497 2266 
L 3497 0 
z
" transform="scale(0.015625)"/>
        <path id="Verdana-50" d="M 3669 3247 
Q 3669 2938 3561 2673 
Q 3453 2409 3259 2216 
Q 3019 1975 2691 1854 
Q 2363 1734 1863 1734 
L 1244 1734 
L 1244 0 
L 625 0 
L 625 4653 
L 1888 4653 
Q 2306 4653 2597 4583 
Q 2888 4513 3113 4363 
Q 3378 4184 3523 3918 
Q 3669 3653 3669 3247 
z
M 3025 3231 
Q 3025 3472 2940 3650 
Q 2856 3828 2684 3941 
Q 2534 4038 2342 4080 
Q 2150 4122 1856 4122 
L 1244 4122 
L 1244 2263 
L 1766 2263 
Q 2141 2263 2375 2330 
Q 2609 2397 2756 2544 
Q 2903 2694 2964 2859 
Q 3025 3025 3025 3231 
z
" transform="scale(0.015625)"/>
        <path id="Verdana-79" d="M 3597 3491 
L 1559 -1288 
L 931 -1288 
L 1581 169 
L 191 3491 
L 828 3491 
L 1900 903 
L 2981 3491 
L 3597 3491 
z
" transform="scale(0.015625)"/>
       </defs>
       <use xlink:href="#Verdana-46"/>
       <use xlink:href="#Verdana-72" x="57.470703"/>
       <use xlink:href="#Verdana-65" x="100.146484"/>
       <use xlink:href="#Verdana-6e" x="159.716797"/>
       <use xlink:href="#Verdana-63" x="222.998047"/>
       <use xlink:href="#Verdana-68" x="275.097656"/>
       <use xlink:href="#Verdana-20" x="338.378906"/>
       <use xlink:href="#Verdana-50" x="373.535156"/>
       <use xlink:href="#Verdana-6f" x="431.337891"/>
       <use xlink:href="#Verdana-6c" x="492.03125"/>
       <use xlink:href="#Verdana-79" x="519.472656"/>
       <use xlink:href="#Verdana-6e" x="578.652344"/>
       <use xlink:href="#Verdana-65" x="641.933594"/>
       <use xlink:href="#Verdana-73" x="701.503906"/>
       <use xlink:href="#Verdana-69" x="753.603516"/>
       <use xlink:href="#Verdana-61" x="781.044922"/>
      </g>
     </g>
    </g>
    <g id="ytick_5">
     <g id="line2d_13">
      <g>
       <use xlink:href="#m78a88568d5" x="87.552385" y="208.963998" style="stroke: #000000; stroke-width: 0.8"/>
      </g>
     </g>
     <g id="text_14">
      <!-- New Caledonia -->
      <g transform="translate(26.656485 263.010534)rotate(-45)scale(0.1 -0.1)">
       <defs>
        <path id="Verdana-43" d="M 4219 338 
Q 4047 263 3908 197 
Q 3769 131 3544 59 
Q 3353 0 3129 -42 
Q 2906 -84 2638 -84 
Q 2131 -84 1717 58 
Q 1303 200 997 503 
Q 697 800 528 1258 
Q 359 1716 359 2322 
Q 359 2897 521 3350 
Q 684 3803 991 4116 
Q 1288 4419 1708 4578 
Q 2128 4738 2641 4738 
Q 3016 4738 3389 4647 
Q 3763 4556 4219 4328 
L 4219 3594 
L 4172 3594 
Q 3788 3916 3409 4062 
Q 3031 4209 2600 4209 
Q 2247 4209 1964 4095 
Q 1681 3981 1459 3741 
Q 1244 3506 1123 3148 
Q 1003 2791 1003 2322 
Q 1003 1831 1136 1478 
Q 1269 1125 1478 903 
Q 1697 672 1989 561 
Q 2281 450 2606 450 
Q 3053 450 3443 603 
Q 3834 756 4175 1063 
L 4219 1063 
L 4219 338 
z
" transform="scale(0.015625)"/>
       </defs>
       <use xlink:href="#Verdana-4e"/>
       <use xlink:href="#Verdana-65" x="74.804688"/>
       <use xlink:href="#Verdana-77" x="134.375"/>
       <use xlink:href="#Verdana-20" x="216.210938"/>
       <use xlink:href="#Verdana-43" x="251.367188"/>
       <use xlink:href="#Verdana-61" x="321.191406"/>
       <use xlink:href="#Verdana-6c" x="381.25"/>
       <use xlink:href="#Verdana-65" x="408.691406"/>
       <use xlink:href="#Verdana-64" x="468.261719"/>
       <use xlink:href="#Verdana-6f" x="530.566406"/>
       <use xlink:href="#Verdana-6e" x="591.259766"/>
       <use xlink:href="#Verdana-69" x="654.541016"/>
       <use xlink:href="#Verdana-61" x="681.982422"/>
      </g>
     </g>
    </g>
    <g id="ytick_6">
     <g id="line2d_14">
      <g>
       <use xlink:href="#m78a88568d5" x="87.552385" y="193.652606" style="stroke: #000000; stroke-width: 0.8"/>
      </g>
     </g>
     <g id="text_15">
      <!-- Papua New Guinea -->
      <g transform="translate(12.572907 261.78272)rotate(-45)scale(0.1 -0.1)">
       <defs>
        <path id="Verdana-70" d="M 3650 1788 
Q 3650 1363 3528 1011 
Q 3406 659 3184 416 
Q 2978 184 2698 57 
Q 2419 -69 2106 -69 
Q 1834 -69 1614 -9 
Q 1394 50 1166 175 
L 1166 -1288 
L 578 -1288 
L 578 3491 
L 1166 3491 
L 1166 3125 
Q 1400 3322 1692 3455 
Q 1984 3588 2316 3588 
Q 2947 3588 3298 3111 
Q 3650 2634 3650 1788 
z
M 3044 1772 
Q 3044 2403 2828 2715 
Q 2613 3028 2166 3028 
Q 1913 3028 1656 2918 
Q 1400 2809 1166 2631 
L 1166 653 
Q 1416 541 1595 500 
Q 1775 459 2003 459 
Q 2494 459 2769 790 
Q 3044 1122 3044 1772 
z
" transform="scale(0.015625)"/>
        <path id="Verdana-47" d="M 4506 344 
Q 4125 169 3673 39 
Q 3222 -91 2800 -91 
Q 2256 -91 1803 59 
Q 1350 209 1031 509 
Q 709 813 534 1267 
Q 359 1722 359 2331 
Q 359 3447 1011 4092 
Q 1663 4738 2800 4738 
Q 3197 4738 3611 4642 
Q 4025 4547 4503 4319 
L 4503 3584 
L 4447 3584 
Q 4350 3659 4165 3781 
Q 3981 3903 3803 3984 
Q 3588 4081 3314 4145 
Q 3041 4209 2694 4209 
Q 1913 4209 1458 3707 
Q 1003 3206 1003 2350 
Q 1003 1447 1478 945 
Q 1953 444 2772 444 
Q 3072 444 3370 503 
Q 3669 563 3894 656 
L 3894 1797 
L 2647 1797 
L 2647 2341 
L 4506 2341 
L 4506 344 
z
" transform="scale(0.015625)"/>
       </defs>
       <use xlink:href="#Verdana-50"/>
       <use xlink:href="#Verdana-61" x="57.802734"/>
       <use xlink:href="#Verdana-70" x="117.861328"/>
       <use xlink:href="#Verdana-75" x="180.166016"/>
       <use xlink:href="#Verdana-61" x="243.447266"/>
       <use xlink:href="#Verdana-20" x="303.505859"/>
       <use xlink:href="#Verdana-4e" x="338.662109"/>
       <use xlink:href="#Verdana-65" x="413.466797"/>
       <use xlink:href="#Verdana-77" x="473.037109"/>
       <use xlink:href="#Verdana-20" x="554.873047"/>
       <use xlink:href="#Verdana-47" x="590.029297"/>
       <use xlink:href="#Verdana-75" x="667.568359"/>
       <use xlink:href="#Verdana-69" x="730.849609"/>
       <use xlink:href="#Verdana-6e" x="758.291016"/>
       <use xlink:href="#Verdana-65" x="821.572266"/>
       <use xlink:href="#Verdana-61" x="881.142578"/>
      </g>
     </g>
    </g>
    <g id="ytick_7">
     <g id="line2d_15">
      <g>
       <use xlink:href="#m78a88568d5" x="87.552385" y="178.341214" style="stroke: #000000; stroke-width: 0.8"/>
      </g>
     </g>
     <g id="text_16">
      <!-- Solomon Islands -->
      <g transform="translate(20.231757 238.812477)rotate(-45)scale(0.1 -0.1)">
       <defs>
        <path id="Verdana-53" d="M 4006 1328 
Q 4006 1056 3879 790 
Q 3753 525 3525 341 
Q 3275 141 2942 28 
Q 2609 -84 2141 -84 
Q 1638 -84 1236 9 
Q 834 103 419 288 
L 419 1063 
L 463 1063 
Q 816 769 1278 609 
Q 1741 450 2147 450 
Q 2722 450 3042 665 
Q 3363 881 3363 1241 
Q 3363 1550 3211 1697 
Q 3059 1844 2750 1925 
Q 2516 1988 2242 2028 
Q 1969 2069 1663 2131 
Q 1044 2263 745 2580 
Q 447 2897 447 3406 
Q 447 3991 940 4364 
Q 1434 4738 2194 4738 
Q 2684 4738 3093 4644 
Q 3503 4550 3819 4413 
L 3819 3681 
L 3775 3681 
Q 3509 3906 3076 4054 
Q 2644 4203 2191 4203 
Q 1694 4203 1392 3997 
Q 1091 3791 1091 3466 
Q 1091 3175 1241 3009 
Q 1391 2844 1769 2756 
Q 1969 2713 2337 2650 
Q 2706 2588 2963 2522 
Q 3481 2384 3743 2106 
Q 4006 1828 4006 1328 
z
" transform="scale(0.015625)"/>
        <path id="Verdana-6d" d="M 5672 0 
L 5084 0 
L 5084 1988 
Q 5084 2213 5064 2422 
Q 5044 2631 4978 2756 
Q 4906 2891 4772 2959 
Q 4638 3028 4384 3028 
Q 4138 3028 3891 2904 
Q 3644 2781 3397 2591 
Q 3406 2519 3412 2423 
Q 3419 2328 3419 2234 
L 3419 0 
L 2831 0 
L 2831 1988 
Q 2831 2219 2811 2426 
Q 2791 2634 2725 2759 
Q 2653 2894 2518 2961 
Q 2384 3028 2131 3028 
Q 1891 3028 1648 2909 
Q 1406 2791 1166 2606 
L 1166 0 
L 578 0 
L 578 3491 
L 1166 3491 
L 1166 3103 
Q 1441 3331 1714 3459 
Q 1988 3588 2297 3588 
Q 2653 3588 2901 3438 
Q 3150 3288 3272 3022 
Q 3628 3322 3922 3455 
Q 4216 3588 4550 3588 
Q 5125 3588 5398 3239 
Q 5672 2891 5672 2266 
L 5672 0 
z
" transform="scale(0.015625)"/>
        <path id="Verdana-49" d="M 2266 0 
L 428 0 
L 428 475 
L 1038 475 
L 1038 4178 
L 428 4178 
L 428 4653 
L 2266 4653 
L 2266 4178 
L 1656 4178 
L 1656 475 
L 2266 475 
L 2266 0 
z
" transform="scale(0.015625)"/>
       </defs>
       <use xlink:href="#Verdana-53"/>
       <use xlink:href="#Verdana-6f" x="68.359375"/>
       <use xlink:href="#Verdana-6c" x="129.052734"/>
       <use xlink:href="#Verdana-6f" x="156.494141"/>
       <use xlink:href="#Verdana-6d" x="217.1875"/>
       <use xlink:href="#Verdana-6f" x="314.453125"/>
       <use xlink:href="#Verdana-6e" x="375.146484"/>
       <use xlink:href="#Verdana-20" x="438.427734"/>
       <use xlink:href="#Verdana-49" x="473.583984"/>
       <use xlink:href="#Verdana-73" x="515.673828"/>
       <use xlink:href="#Verdana-6c" x="567.773438"/>
       <use xlink:href="#Verdana-61" x="595.214844"/>
       <use xlink:href="#Verdana-6e" x="655.273438"/>
       <use xlink:href="#Verdana-64" x="718.554688"/>
       <use xlink:href="#Verdana-73" x="780.859375"/>
      </g>
     </g>
    </g>
    <g id="ytick_8">
     <g id="line2d_16">
      <g>
       <use xlink:href="#m78a88568d5" x="87.552385" y="163.029821" style="stroke: #000000; stroke-width: 0.8"/>
      </g>
     </g>
     <g id="text_17">
      <!-- Palau -->
      <g transform="translate(60.133572 183.59927)rotate(-45)scale(0.1 -0.1)">
       <use xlink:href="#Verdana-50"/>
       <use xlink:href="#Verdana-61" x="57.802734"/>
       <use xlink:href="#Verdana-6c" x="117.861328"/>
       <use xlink:href="#Verdana-61" x="145.302734"/>
       <use xlink:href="#Verdana-75" x="205.361328"/>
      </g>
     </g>
    </g>
    <g id="ytick_9">
     <g id="line2d_17">
      <g>
       <use xlink:href="#m78a88568d5" x="87.552385" y="147.718429" style="stroke: #000000; stroke-width: 0.8"/>
      </g>
     </g>
     <g id="text_18">
      <!-- Kiribati -->
      <g transform="translate(53.953016 174.468433)rotate(-45)scale(0.1 -0.1)">
       <defs>
        <path id="Verdana-4b" d="M 4366 0 
L 3563 0 
L 1722 2072 
L 1259 1578 
L 1259 0 
L 641 0 
L 641 4653 
L 1259 4653 
L 1259 2225 
L 3519 4653 
L 4269 4653 
L 2191 2466 
L 4366 0 
z
" transform="scale(0.015625)"/>
        <path id="Verdana-62" d="M 3650 1772 
Q 3650 1334 3526 984 
Q 3403 634 3194 397 
Q 2972 150 2706 26 
Q 2441 -97 2122 -97 
Q 1825 -97 1603 -26 
Q 1381 44 1166 163 
L 1128 0 
L 578 0 
L 578 4863 
L 1166 4863 
L 1166 3125 
Q 1413 3328 1691 3458 
Q 1969 3588 2316 3588 
Q 2934 3588 3292 3113 
Q 3650 2638 3650 1772 
z
M 3044 1756 
Q 3044 2381 2837 2704 
Q 2631 3028 2172 3028 
Q 1916 3028 1653 2917 
Q 1391 2806 1166 2631 
L 1166 631 
Q 1416 519 1595 475 
Q 1775 431 2003 431 
Q 2491 431 2767 751 
Q 3044 1072 3044 1756 
z
" transform="scale(0.015625)"/>
       </defs>
       <use xlink:href="#Verdana-4b"/>
       <use xlink:href="#Verdana-69" x="69.287109"/>
       <use xlink:href="#Verdana-72" x="96.728516"/>
       <use xlink:href="#Verdana-69" x="139.404297"/>
       <use xlink:href="#Verdana-62" x="166.845703"/>
       <use xlink:href="#Verdana-61" x="229.150391"/>
       <use xlink:href="#Verdana-74" x="289.208984"/>
       <use xlink:href="#Verdana-69" x="328.613281"/>
      </g>
     </g>
    </g>
    <g id="ytick_10">
     <g id="line2d_18">
      <g>
       <use xlink:href="#m78a88568d5" x="87.552385" y="132.407036" style="stroke: #000000; stroke-width: 0.8"/>
      </g>
     </g>
     <g id="text_19">
      <!-- Tonga -->
      <g transform="translate(58.075228 154.986261)rotate(-45)scale(0.1 -0.1)">
       <defs>
        <path id="Verdana-67" d="M 3409 397 
Q 3409 -491 3006 -906 
Q 2603 -1322 1766 -1322 
Q 1488 -1322 1223 -1283 
Q 959 -1244 703 -1172 
L 703 -572 
L 734 -572 
Q 878 -628 1190 -711 
Q 1503 -794 1816 -794 
Q 2116 -794 2312 -722 
Q 2509 -650 2619 -522 
Q 2728 -400 2775 -228 
Q 2822 -56 2822 156 
L 2822 475 
Q 2556 263 2314 158 
Q 2072 53 1697 53 
Q 1072 53 705 504 
Q 338 956 338 1778 
Q 338 2228 464 2554 
Q 591 2881 809 3119 
Q 1013 3341 1303 3464 
Q 1594 3588 1881 3588 
Q 2184 3588 2389 3527 
Q 2594 3466 2822 3341 
L 2859 3491 
L 3409 3491 
L 3409 397 
z
M 2822 959 
L 2822 2863 
Q 2588 2969 2386 3014 
Q 2184 3059 1984 3059 
Q 1500 3059 1222 2734 
Q 944 2409 944 1791 
Q 944 1203 1150 900 
Q 1356 597 1834 597 
Q 2091 597 2348 695 
Q 2606 794 2822 959 
z
" transform="scale(0.015625)"/>
       </defs>
       <use xlink:href="#Verdana-54"/>
       <use xlink:href="#Verdana-6f" x="50.871094"/>
       <use xlink:href="#Verdana-6e" x="111.564453"/>
       <use xlink:href="#Verdana-67" x="174.845703"/>
       <use xlink:href="#Verdana-61" x="237.150391"/>
      </g>
     </g>
    </g>
    <g id="ytick_11">
     <g id="line2d_19">
      <g>
       <use xlink:href="#m78a88568d5" x="87.552385" y="117.095644" style="stroke: #000000; stroke-width: 0.8"/>
      </g>
     </g>
     <g id="text_20">
      <!-- Samoa -->
      <g transform="translate(54.632502 143.166162)rotate(-45)scale(0.1 -0.1)">
       <use xlink:href="#Verdana-53"/>
       <use xlink:href="#Verdana-61" x="68.359375"/>
       <use xlink:href="#Verdana-6d" x="128.417969"/>
       <use xlink:href="#Verdana-6f" x="225.683594"/>
       <use xlink:href="#Verdana-61" x="286.376953"/>
      </g>
     </g>
    </g>
    <g id="ytick_12">
     <g id="line2d_20">
      <g>
       <use xlink:href="#m78a88568d5" x="87.552385" y="101.784252" style="stroke: #000000; stroke-width: 0.8"/>
      </g>
     </g>
     <g id="text_21">
      <!-- Guam -->
      <g transform="translate(58.046502 124.44077)rotate(-45)scale(0.1 -0.1)">
       <use xlink:href="#Verdana-47"/>
       <use xlink:href="#Verdana-75" x="77.539062"/>
       <use xlink:href="#Verdana-61" x="140.820312"/>
       <use xlink:href="#Verdana-6d" x="200.878906"/>
      </g>
     </g>
    </g>
    <g id="ytick_13">
     <g id="line2d_21">
      <g>
       <use xlink:href="#m78a88568d5" x="87.552385" y="86.472859" style="stroke: #000000; stroke-width: 0.8"/>
      </g>
     </g>
     <g id="text_22">
      <!-- Vanuatu -->
      <g transform="translate(49.935766 117.240113)rotate(-45)scale(0.1 -0.1)">
       <defs>
        <path id="Verdana-56" d="M 4294 4653 
L 2600 0 
L 1775 0 
L 81 4653 
L 744 4653 
L 2203 559 
L 3663 4653 
L 4294 4653 
z
" transform="scale(0.015625)"/>
       </defs>
       <use xlink:href="#Verdana-56"/>
       <use xlink:href="#Verdana-61" x="63.484375"/>
       <use xlink:href="#Verdana-6e" x="123.542969"/>
       <use xlink:href="#Verdana-75" x="186.824219"/>
       <use xlink:href="#Verdana-61" x="250.105469"/>
       <use xlink:href="#Verdana-74" x="310.164062"/>
       <use xlink:href="#Verdana-75" x="349.568359"/>
      </g>
     </g>
    </g>
    <g id="ytick_14">
     <g id="line2d_22">
      <g>
       <use xlink:href="#m78a88568d5" x="87.552385" y="71.161467" style="stroke: #000000; stroke-width: 0.8"/>
      </g>
     </g>
     <g id="text_23">
      <!-- Marshall Islands -->
      <g transform="translate(21.722206 130.142282)rotate(-45)scale(0.1 -0.1)">
       <defs>
        <path id="Verdana-4d" d="M 4769 0 
L 4150 0 
L 4150 4009 
L 2856 1281 
L 2488 1281 
L 1203 4009 
L 1203 0 
L 625 0 
L 625 4653 
L 1469 4653 
L 2709 2063 
L 3909 4653 
L 4769 4653 
L 4769 0 
z
" transform="scale(0.015625)"/>
       </defs>
       <use xlink:href="#Verdana-4d"/>
       <use xlink:href="#Verdana-61" x="84.277344"/>
       <use xlink:href="#Verdana-72" x="144.335938"/>
       <use xlink:href="#Verdana-73" x="187.011719"/>
       <use xlink:href="#Verdana-68" x="239.111328"/>
       <use xlink:href="#Verdana-61" x="302.392578"/>
       <use xlink:href="#Verdana-6c" x="362.451172"/>
       <use xlink:href="#Verdana-6c" x="389.892578"/>
       <use xlink:href="#Verdana-20" x="417.333984"/>
       <use xlink:href="#Verdana-49" x="452.490234"/>
       <use xlink:href="#Verdana-73" x="494.580078"/>
       <use xlink:href="#Verdana-6c" x="546.679688"/>
       <use xlink:href="#Verdana-61" x="574.121094"/>
       <use xlink:href="#Verdana-6e" x="634.179688"/>
       <use xlink:href="#Verdana-64" x="697.460938"/>
       <use xlink:href="#Verdana-73" x="759.765625"/>
      </g>
     </g>
    </g>
    <g id="ytick_15">
     <g id="line2d_23">
      <g>
       <use xlink:href="#m78a88568d5" x="87.552385" y="55.850074" style="stroke: #000000; stroke-width: 0.8"/>
      </g>
     </g>
     <g id="text_24">
      <!-- Cook Islands -->
      <g transform="translate(33.526469 103.026625)rotate(-45)scale(0.1 -0.1)">
       <defs>
        <path id="Verdana-6b" d="M 3747 0 
L 2972 0 
L 1572 1528 
L 1191 1166 
L 1191 0 
L 603 0 
L 603 4863 
L 1191 4863 
L 1191 1744 
L 2888 3491 
L 3628 3491 
L 2006 1878 
L 3747 0 
z
" transform="scale(0.015625)"/>
       </defs>
       <use xlink:href="#Verdana-43"/>
       <use xlink:href="#Verdana-6f" x="69.824219"/>
       <use xlink:href="#Verdana-6f" x="130.517578"/>
       <use xlink:href="#Verdana-6b" x="191.210938"/>
       <use xlink:href="#Verdana-20" x="250.390625"/>
       <use xlink:href="#Verdana-49" x="285.546875"/>
       <use xlink:href="#Verdana-73" x="327.636719"/>
       <use xlink:href="#Verdana-6c" x="379.736328"/>
       <use xlink:href="#Verdana-61" x="407.177734"/>
       <use xlink:href="#Verdana-6e" x="467.236328"/>
       <use xlink:href="#Verdana-64" x="530.517578"/>
       <use xlink:href="#Verdana-73" x="592.822266"/>
      </g>
     </g>
    </g>
    <g id="ytick_16">
     <g id="line2d_24">
      <g>
       <use xlink:href="#m78a88568d5" x="87.552385" y="40.538682" style="stroke: #000000; stroke-width: 0.8"/>
      </g>
     </g>
     <g id="text_25">
      <!-- Micronesia -->
      <g transform="translate(41.67919 79.562513)rotate(-45)scale(0.1 -0.1)">
       <use xlink:href="#Verdana-4d"/>
       <use xlink:href="#Verdana-69" x="84.277344"/>
       <use xlink:href="#Verdana-63" x="111.71875"/>
       <use xlink:href="#Verdana-72" x="163.818359"/>
       <use xlink:href="#Verdana-6f" x="206.494141"/>
       <use xlink:href="#Verdana-6e" x="267.1875"/>
       <use xlink:href="#Verdana-65" x="330.46875"/>
       <use xlink:href="#Verdana-73" x="390.039062"/>
       <use xlink:href="#Verdana-69" x="442.138672"/>
       <use xlink:href="#Verdana-61" x="469.580078"/>
      </g>
     </g>
    </g>
   </g>
   <g id="patch_19">
    <path d="M 87.552385 288.430125 
L 87.552385 22.318125 
" style="fill: none; stroke: #000000; stroke-width: 0.8; stroke-linejoin: miter; stroke-linecap: square"/>
   </g>
   <g id="patch_20">
    <path d="M 444.672385 288.430125 
L 444.672385 22.318125 
" style="fill: none; stroke: #000000; stroke-width: 0.8; stroke-linejoin: miter; stroke-linecap: square"/>
   </g>
   <g id="patch_21">
    <path d="M 87.552385 288.430125 
L 444.672385 288.430125 
" style="fill: none; stroke: #000000; stroke-width: 0.8; stroke-linejoin: miter; stroke-linecap: square"/>
   </g>
   <g id="patch_22">
    <path d="M 87.552385 22.318125 
L 444.672385 22.318125 
" style="fill: none; stroke: #000000; stroke-width: 0.8; stroke-linejoin: miter; stroke-linecap: square"/>
   </g>
   <g id="text_26">
    <!-- 16 countries with most recovered cases in Australia/Oceania -->
    <g transform="translate(59.96551 16.318125)scale(0.12 -0.12)">
     <defs>
      <path id="Verdana-Bold-31" d="M 3938 0 
L 831 0 
L 831 813 
L 1813 813 
L 1813 3272 
L 831 3272 
L 831 4031 
Q 1056 4031 1262 4057 
Q 1469 4084 1606 4150 
Q 1769 4228 1850 4353 
Q 1931 4478 1944 4666 
L 2978 4666 
L 2978 813 
L 3938 813 
L 3938 0 
z
" transform="scale(0.015625)"/>
      <path id="Verdana-Bold-36" d="M 4225 1584 
Q 4225 1225 4094 909 
Q 3963 594 3725 378 
Q 3472 147 3139 25 
Q 2806 -97 2359 -97 
Q 1941 -97 1595 17 
Q 1250 131 1003 366 
Q 719 634 569 1059 
Q 419 1484 419 2075 
Q 419 2688 559 3163 
Q 700 3638 1019 4003 
Q 1325 4353 1814 4547 
Q 2303 4741 2978 4741 
Q 3206 4741 3478 4709 
Q 3750 4678 3831 4663 
L 3831 3747 
L 3713 3747 
Q 3628 3788 3426 3839 
Q 3225 3891 2969 3891 
Q 2369 3891 2034 3597 
Q 1700 3303 1631 2778 
Q 1872 2922 2139 3011 
Q 2406 3100 2716 3100 
Q 2988 3100 3220 3037 
Q 3453 2975 3653 2838 
Q 3913 2656 4069 2350 
Q 4225 2044 4225 1584 
z
M 2803 881 
Q 2900 988 2958 1133 
Q 3016 1278 3016 1528 
Q 3016 1756 2950 1901 
Q 2884 2047 2769 2134 
Q 2656 2222 2503 2255 
Q 2350 2288 2188 2288 
Q 2050 2288 1900 2256 
Q 1750 2225 1625 2178 
Q 1625 2147 1622 2075 
Q 1619 2003 1619 1894 
Q 1619 1509 1695 1261 
Q 1772 1013 1900 881 
Q 1988 784 2106 739 
Q 2225 694 2363 694 
Q 2466 694 2591 741 
Q 2716 788 2803 881 
z
" transform="scale(0.015625)"/>
      <path id="Verdana-Bold-20" transform="scale(0.015625)"/>
      <path id="Verdana-Bold-63" d="M 2359 -94 
Q 1900 -94 1520 15 
Q 1141 125 859 353 
Q 581 581 428 928 
Q 275 1275 275 1741 
Q 275 2231 439 2587 
Q 603 2944 897 3178 
Q 1181 3400 1553 3503 
Q 1925 3606 2325 3606 
Q 2684 3606 2987 3528 
Q 3291 3450 3553 3325 
L 3553 2366 
L 3394 2366 
Q 3328 2422 3236 2497 
Q 3144 2572 3009 2644 
Q 2881 2713 2728 2758 
Q 2575 2803 2372 2803 
Q 1922 2803 1680 2517 
Q 1438 2231 1438 1741 
Q 1438 1234 1686 971 
Q 1934 709 2391 709 
Q 2603 709 2773 757 
Q 2944 806 3056 872 
Q 3163 934 3244 1003 
Q 3325 1072 3394 1138 
L 3553 1138 
L 3553 178 
Q 3288 53 2998 -20 
Q 2709 -94 2359 -94 
z
" transform="scale(0.015625)"/>
      <path id="Verdana-Bold-6f" d="M 4119 1753 
Q 4119 888 3614 389 
Q 3109 -109 2197 -109 
Q 1284 -109 779 389 
Q 275 888 275 1753 
Q 275 2625 783 3122 
Q 1291 3619 2197 3619 
Q 3116 3619 3617 3119 
Q 4119 2619 4119 1753 
z
M 2734 900 
Q 2844 1034 2898 1223 
Q 2953 1413 2953 1747 
Q 2953 2056 2897 2265 
Q 2841 2475 2741 2600 
Q 2641 2728 2500 2781 
Q 2359 2834 2197 2834 
Q 2034 2834 1907 2790 
Q 1781 2747 1666 2616 
Q 1563 2494 1502 2281 
Q 1441 2069 1441 1747 
Q 1441 1459 1494 1248 
Q 1547 1038 1650 909 
Q 1750 788 1889 731 
Q 2028 675 2206 675 
Q 2359 675 2498 726 
Q 2638 778 2734 900 
z
" transform="scale(0.015625)"/>
      <path id="Verdana-Bold-75" d="M 4028 0 
L 2903 0 
L 2903 388 
Q 2591 150 2331 26 
Q 2072 -97 1713 -97 
Q 1131 -97 817 237 
Q 503 572 503 1225 
L 503 3509 
L 1634 3509 
L 1634 1769 
Q 1634 1503 1651 1326 
Q 1669 1150 1731 1034 
Q 1791 919 1911 866 
Q 2031 813 2247 813 
Q 2391 813 2566 866 
Q 2741 919 2903 1022 
L 2903 3509 
L 4028 3509 
L 4028 0 
z
" transform="scale(0.015625)"/>
      <path id="Verdana-Bold-6e" d="M 4056 0 
L 2925 0 
L 2925 1741 
Q 2925 1953 2903 2164 
Q 2881 2375 2828 2475 
Q 2766 2591 2645 2644 
Q 2525 2697 2309 2697 
Q 2156 2697 1998 2647 
Q 1841 2597 1656 2488 
L 1656 0 
L 531 0 
L 531 3509 
L 1656 3509 
L 1656 3122 
Q 1956 3356 2232 3481 
Q 2509 3606 2847 3606 
Q 3416 3606 3736 3275 
Q 4056 2944 4056 2284 
L 4056 0 
z
" transform="scale(0.015625)"/>
      <path id="Verdana-Bold-74" d="M 2775 31 
Q 2594 -16 2391 -42 
Q 2188 -69 1894 -69 
Q 1238 -69 917 197 
Q 597 463 597 1106 
L 597 2747 
L 134 2747 
L 134 3509 
L 597 3509 
L 597 4513 
L 1722 4513 
L 1722 3509 
L 2775 3509 
L 2775 2747 
L 1722 2747 
L 1722 1503 
Q 1722 1319 1725 1181 
Q 1728 1044 1775 934 
Q 1819 825 1930 761 
Q 2041 697 2253 697 
Q 2341 697 2483 734 
Q 2625 772 2681 803 
L 2775 803 
L 2775 31 
z
" transform="scale(0.015625)"/>
      <path id="Verdana-Bold-72" d="M 3075 2438 
L 2975 2438 
Q 2903 2463 2743 2475 
Q 2584 2488 2478 2488 
Q 2238 2488 2053 2456 
Q 1869 2425 1656 2350 
L 1656 0 
L 531 0 
L 531 3509 
L 1656 3509 
L 1656 2994 
Q 2028 3313 2303 3417 
Q 2578 3522 2809 3522 
Q 2869 3522 2944 3519 
Q 3019 3516 3075 3509 
L 3075 2438 
z
" transform="scale(0.015625)"/>
      <path id="Verdana-Bold-69" d="M 1656 0 
L 531 0 
L 531 3509 
L 1656 3509 
L 1656 0 
z
M 1688 4009 
L 500 4009 
L 500 4863 
L 1688 4863 
L 1688 4009 
z
" transform="scale(0.015625)"/>
      <path id="Verdana-Bold-65" d="M 3988 1547 
L 1413 1547 
Q 1438 1134 1727 915 
Q 2016 697 2578 697 
Q 2934 697 3268 825 
Q 3603 953 3797 1100 
L 3922 1100 
L 3922 197 
Q 3541 44 3203 -25 
Q 2866 -94 2456 -94 
Q 1400 -94 837 381 
Q 275 856 275 1734 
Q 275 2603 808 3111 
Q 1341 3619 2269 3619 
Q 3125 3619 3556 3186 
Q 3988 2753 3988 1941 
L 3988 1547 
z
M 2869 2206 
Q 2859 2559 2693 2737 
Q 2528 2916 2178 2916 
Q 1853 2916 1643 2747 
Q 1434 2578 1409 2206 
L 2869 2206 
z
" transform="scale(0.015625)"/>
      <path id="Verdana-Bold-73" d="M 3581 1113 
Q 3581 569 3093 236 
Q 2606 -97 1759 -97 
Q 1291 -97 909 -9 
Q 528 78 297 184 
L 297 1109 
L 400 1109 
Q 484 1050 595 979 
Q 706 909 909 828 
Q 1084 756 1306 704 
Q 1528 653 1781 653 
Q 2113 653 2272 726 
Q 2431 800 2431 944 
Q 2431 1072 2337 1130 
Q 2244 1188 1981 1241 
Q 1856 1269 1642 1301 
Q 1428 1334 1253 1381 
Q 775 1506 544 1770 
Q 313 2034 313 2428 
Q 313 2934 792 3270 
Q 1272 3606 2103 3606 
Q 2497 3606 2858 3526 
Q 3219 3447 3422 3356 
L 3422 2469 
L 3325 2469 
Q 3075 2641 2754 2748 
Q 2434 2856 2106 2856 
Q 1834 2856 1648 2781 
Q 1463 2706 1463 2569 
Q 1463 2444 1547 2378 
Q 1631 2313 1944 2247 
Q 2116 2213 2314 2180 
Q 2513 2147 2713 2097 
Q 3156 1981 3368 1732 
Q 3581 1484 3581 1113 
z
" transform="scale(0.015625)"/>
      <path id="Verdana-Bold-77" d="M 6128 3509 
L 5041 0 
L 3847 0 
L 3131 2366 
L 2428 0 
L 1219 0 
L 141 3509 
L 1322 3509 
L 1922 1091 
L 2672 3509 
L 3669 3509 
L 4381 1091 
L 4972 3509 
L 6128 3509 
z
" transform="scale(0.015625)"/>
      <path id="Verdana-Bold-68" d="M 4056 0 
L 2925 0 
L 2925 1741 
Q 2925 1953 2903 2164 
Q 2881 2375 2828 2475 
Q 2766 2591 2645 2644 
Q 2525 2697 2309 2697 
Q 2156 2697 1998 2647 
Q 1841 2597 1656 2488 
L 1656 0 
L 531 0 
L 531 4863 
L 1656 4863 
L 1656 3122 
Q 1956 3356 2232 3481 
Q 2509 3606 2847 3606 
Q 3416 3606 3736 3275 
Q 4056 2944 4056 2284 
L 4056 0 
z
" transform="scale(0.015625)"/>
      <path id="Verdana-Bold-6d" d="M 3963 2488 
L 3963 0 
L 2831 0 
L 2831 1753 
Q 2831 2009 2818 2189 
Q 2806 2369 2750 2481 
Q 2694 2594 2580 2645 
Q 2466 2697 2259 2697 
Q 2094 2697 1937 2630 
Q 1781 2563 1656 2488 
L 1656 0 
L 531 0 
L 531 3509 
L 1656 3509 
L 1656 3122 
Q 1947 3350 2212 3478 
Q 2478 3606 2800 3606 
Q 3147 3606 3412 3451 
Q 3678 3297 3828 2997 
Q 4166 3281 4484 3443 
Q 4803 3606 5109 3606 
Q 5678 3606 5973 3265 
Q 6269 2925 6269 2284 
L 6269 0 
L 5138 0 
L 5138 1753 
Q 5138 2013 5127 2191 
Q 5116 2369 5059 2481 
Q 5006 2594 4890 2645 
Q 4775 2697 4566 2697 
Q 4425 2697 4290 2648 
Q 4156 2600 3963 2488 
z
" transform="scale(0.015625)"/>
      <path id="Verdana-Bold-76" d="M 4066 3509 
L 2713 0 
L 1438 0 
L 94 3509 
L 1284 3509 
L 2097 1097 
L 2900 3509 
L 4066 3509 
z
" transform="scale(0.015625)"/>
      <path id="Verdana-Bold-64" d="M 3944 0 
L 2819 0 
L 2819 366 
Q 2528 128 2275 15 
Q 2022 -97 1691 -97 
Q 1050 -97 665 397 
Q 281 891 281 1728 
Q 281 2175 411 2520 
Q 541 2866 766 3113 
Q 978 3347 1281 3476 
Q 1584 3606 1888 3606 
Q 2203 3606 2404 3539 
Q 2606 3472 2819 3369 
L 2819 4863 
L 3944 4863 
L 3944 0 
z
M 2819 969 
L 2819 2691 
Q 2700 2741 2569 2762 
Q 2438 2784 2328 2784 
Q 1884 2784 1662 2507 
Q 1441 2231 1441 1741 
Q 1441 1225 1619 992 
Q 1797 759 2191 759 
Q 2344 759 2516 817 
Q 2688 875 2819 969 
z
" transform="scale(0.015625)"/>
      <path id="Verdana-Bold-61" d="M 2656 916 
L 2656 1647 
Q 2428 1628 2162 1595 
Q 1897 1563 1759 1519 
Q 1591 1466 1502 1364 
Q 1413 1263 1413 1097 
Q 1413 988 1431 919 
Q 1450 850 1525 788 
Q 1597 725 1697 695 
Q 1797 666 2009 666 
Q 2178 666 2351 734 
Q 2525 803 2656 916 
z
M 2656 372 
Q 2566 303 2431 206 
Q 2297 109 2178 53 
Q 2013 -22 1834 -58 
Q 1656 -94 1444 -94 
Q 944 -94 606 215 
Q 269 525 269 1006 
Q 269 1391 441 1634 
Q 613 1878 928 2019 
Q 1241 2159 1703 2218 
Q 2166 2278 2663 2306 
L 2663 2325 
Q 2663 2616 2425 2727 
Q 2188 2838 1725 2838 
Q 1447 2838 1131 2739 
Q 816 2641 678 2588 
L 575 2588 
L 575 3434 
Q 753 3481 1154 3545 
Q 1556 3609 1959 3609 
Q 2919 3609 3345 3314 
Q 3772 3019 3772 2388 
L 3772 0 
L 2656 0 
L 2656 372 
z
" transform="scale(0.015625)"/>
      <path id="Verdana-Bold-41" d="M 4894 0 
L 3653 0 
L 3331 941 
L 1606 941 
L 1284 0 
L 75 0 
L 1794 4653 
L 3175 4653 
L 4894 0 
z
M 3041 1794 
L 2469 3463 
L 1897 1794 
L 3041 1794 
z
" transform="scale(0.015625)"/>
      <path id="Verdana-Bold-6c" d="M 1656 0 
L 531 0 
L 531 4863 
L 1656 4863 
L 1656 0 
z
" transform="scale(0.015625)"/>
      <path id="Verdana-Bold-2f" d="M 3822 4863 
L 1344 -1013 
L 384 -1013 
L 2853 4863 
L 3822 4863 
z
" transform="scale(0.015625)"/>
      <path id="Verdana-Bold-4f" d="M 5119 2325 
Q 5119 1213 4481 558 
Q 3844 -97 2719 -97 
Q 1597 -97 959 558 
Q 322 1213 322 2325 
Q 322 3447 959 4098 
Q 1597 4750 2719 4750 
Q 3838 4750 4478 4098 
Q 5119 3447 5119 2325 
z
M 3528 1147 
Q 3703 1359 3787 1648 
Q 3872 1938 3872 2328 
Q 3872 2747 3775 3040 
Q 3678 3334 3522 3516 
Q 3363 3703 3155 3787 
Q 2947 3872 2722 3872 
Q 2494 3872 2292 3790 
Q 2091 3709 1922 3522 
Q 1766 3347 1667 3039 
Q 1569 2731 1569 2325 
Q 1569 1909 1664 1617 
Q 1759 1325 1916 1141 
Q 2072 956 2281 868 
Q 2491 781 2722 781 
Q 2953 781 3162 870 
Q 3372 959 3528 1147 
z
" transform="scale(0.015625)"/>
     </defs>
     <use xlink:href="#Verdana-Bold-31"/>
     <use xlink:href="#Verdana-Bold-36" x="71.09375"/>
     <use xlink:href="#Verdana-Bold-20" x="142.1875"/>
     <use xlink:href="#Verdana-Bold-63" x="176.367188"/>
     <use xlink:href="#Verdana-Bold-6f" x="235.205078"/>
     <use xlink:href="#Verdana-Bold-75" x="303.857422"/>
     <use xlink:href="#Verdana-Bold-6e" x="375.097656"/>
     <use xlink:href="#Verdana-Bold-74" x="446.337891"/>
     <use xlink:href="#Verdana-Bold-72" x="491.894531"/>
     <use xlink:href="#Verdana-Bold-69" x="541.601562"/>
     <use xlink:href="#Verdana-Bold-65" x="575.78125"/>
     <use xlink:href="#Verdana-Bold-73" x="642.1875"/>
     <use xlink:href="#Verdana-Bold-20" x="701.513672"/>
     <use xlink:href="#Verdana-Bold-77" x="735.693359"/>
     <use xlink:href="#Verdana-Bold-69" x="833.642578"/>
     <use xlink:href="#Verdana-Bold-74" x="867.822266"/>
     <use xlink:href="#Verdana-Bold-68" x="913.378906"/>
     <use xlink:href="#Verdana-Bold-20" x="984.619141"/>
     <use xlink:href="#Verdana-Bold-6d" x="1018.798828"/>
     <use xlink:href="#Verdana-Bold-6f" x="1124.609375"/>
     <use xlink:href="#Verdana-Bold-73" x="1193.261719"/>
     <use xlink:href="#Verdana-Bold-74" x="1252.587891"/>
     <use xlink:href="#Verdana-Bold-20" x="1298.144531"/>
     <use xlink:href="#Verdana-Bold-72" x="1332.324219"/>
     <use xlink:href="#Verdana-Bold-65" x="1382.03125"/>
     <use xlink:href="#Verdana-Bold-63" x="1448.4375"/>
     <use xlink:href="#Verdana-Bold-6f" x="1507.275391"/>
     <use xlink:href="#Verdana-Bold-76" x="1575.927734"/>
     <use xlink:href="#Verdana-Bold-65" x="1640.917969"/>
     <use xlink:href="#Verdana-Bold-72" x="1707.324219"/>
     <use xlink:href="#Verdana-Bold-65" x="1757.03125"/>
     <use xlink:href="#Verdana-Bold-64" x="1823.4375"/>
     <use xlink:href="#Verdana-Bold-20" x="1893.359375"/>
     <use xlink:href="#Verdana-Bold-63" x="1927.539062"/>
     <use xlink:href="#Verdana-Bold-61" x="1986.376953"/>
     <use xlink:href="#Verdana-Bold-73" x="2053.173828"/>
     <use xlink:href="#Verdana-Bold-65" x="2112.5"/>
     <use xlink:href="#Verdana-Bold-73" x="2178.90625"/>
     <use xlink:href="#Verdana-Bold-20" x="2238.232422"/>
     <use xlink:href="#Verdana-Bold-69" x="2272.412109"/>
     <use xlink:href="#Verdana-Bold-6e" x="2306.591797"/>
     <use xlink:href="#Verdana-Bold-20" x="2377.832031"/>
     <use xlink:href="#Verdana-Bold-41" x="2412.011719"/>
     <use xlink:href="#Verdana-Bold-75" x="2489.648438"/>
     <use xlink:href="#Verdana-Bold-73" x="2560.888672"/>
     <use xlink:href="#Verdana-Bold-74" x="2620.214844"/>
     <use xlink:href="#Verdana-Bold-72" x="2665.771484"/>
     <use xlink:href="#Verdana-Bold-61" x="2715.478516"/>
     <use xlink:href="#Verdana-Bold-6c" x="2782.275391"/>
     <use xlink:href="#Verdana-Bold-69" x="2816.455078"/>
     <use xlink:href="#Verdana-Bold-61" x="2850.634766"/>
     <use xlink:href="#Verdana-Bold-2f" x="2917.431641"/>
     <use xlink:href="#Verdana-Bold-4f" x="2986.376953"/>
     <use xlink:href="#Verdana-Bold-63" x="3071.386719"/>
     <use xlink:href="#Verdana-Bold-65" x="3130.224609"/>
     <use xlink:href="#Verdana-Bold-61" x="3196.630859"/>
     <use xlink:href="#Verdana-Bold-6e" x="3263.427734"/>
     <use xlink:href="#Verdana-Bold-69" x="3334.667969"/>
     <use xlink:href="#Verdana-Bold-61" x="3368.847656"/>
    </g>
   </g>
  </g>
 </g>
 <defs>
  <clipPath id="p0fc109de97">
   <rect x="87.552385" y="22.318125" width="357.12" height="266.112"/>
  </clipPath>
 </defs>
</svg>
