<?xml version="1.0" encoding="utf-8" standalone="no"?>
<!DOCTYPE svg PUBLIC "-//W3C//DTD SVG 1.1//EN"
  "http://www.w3.org/Graphics/SVG/1.1/DTD/svg11.dtd">
<svg xmlns:xlink="http://www.w3.org/1999/xlink" width="454.98255pt" height="325.852pt" viewBox="0 0 454.98255 325.852" xmlns="http://www.w3.org/2000/svg" version="1.1">
 <metadata>
  <rdf:RDF xmlns:dc="http://purl.org/dc/elements/1.1/" xmlns:cc="http://creativecommons.org/ns#" xmlns:rdf="http://www.w3.org/1999/02/22-rdf-syntax-ns#">
   <cc:Work>
    <dc:type rdf:resource="http://purl.org/dc/dcmitype/StillImage"/>
    <dc:date>2022-02-27T08:18:12.667254</dc:date>
    <dc:format>image/svg+xml</dc:format>
    <dc:creator>
     <cc:Agent>
      <dc:title>Matplotlib v3.5.0, https://matplotlib.org/</dc:title>
     </cc:Agent>
    </dc:creator>
   </cc:Work>
  </rdf:RDF>
 </metadata>
 <defs>
  <style type="text/css">*{stroke-linejoin: round; stroke-linecap: butt}</style>
 </defs>
 <g id="figure_1">
  <g id="patch_1">
   <path d="M 0 325.852 
L 454.98255 325.852 
L 454.98255 0 
L 0 0 
L 0 325.852 
z
" style="fill: none"/>
  </g>
  <g id="axes_1">
   <g id="patch_2">
    <path d="M 90.66255 288.430125 
L 447.78255 288.430125 
L 447.78255 22.318125 
L 90.66255 22.318125 
L 90.66255 288.430125 
z
" style="fill: none"/>
   </g>
   <g id="patch_3">
    <path d="M 90.66255 276.334125 
L 430.776836 276.334125 
L 430.776836 256.585554 
L 90.66255 256.585554 
z
" clip-path="url(#p7597bb6fd7)" style="fill: #1f77b4"/>
   </g>
   <g id="patch_4">
    <path d="M 90.66255 251.648411 
L 113.656126 251.648411 
L 113.656126 231.899839 
L 90.66255 231.899839 
z
" clip-path="url(#p7597bb6fd7)" style="fill: #1f77b4"/>
   </g>
   <g id="patch_5">
    <path d="M 90.66255 226.962696 
L 104.428976 226.962696 
L 104.428976 207.214125 
L 90.66255 207.214125 
z
" clip-path="url(#p7597bb6fd7)" style="fill: #1f77b4"/>
   </g>
   <g id="patch_6">
    <path d="M 90.66255 202.276982 
L 95.186132 202.276982 
L 95.186132 182.528411 
L 90.66255 182.528411 
z
" clip-path="url(#p7597bb6fd7)" style="fill: #1f77b4"/>
   </g>
   <g id="patch_7">
    <path d="M 90.66255 177.591268 
L 94.016974 177.591268 
L 94.016974 157.842696 
L 90.66255 157.842696 
z
" clip-path="url(#p7597bb6fd7)" style="fill: #1f77b4"/>
   </g>
   <g id="patch_8">
    <path d="M 90.66255 152.905554 
L 93.880577 152.905554 
L 93.880577 133.156982 
L 90.66255 133.156982 
z
" clip-path="url(#p7597bb6fd7)" style="fill: #1f77b4"/>
   </g>
   <g id="patch_9">
    <path d="M 90.66255 128.219839 
L 93.850608 128.219839 
L 93.850608 108.471268 
L 90.66255 108.471268 
z
" clip-path="url(#p7597bb6fd7)" style="fill: #1f77b4"/>
   </g>
   <g id="patch_10">
    <path d="M 90.66255 103.534125 
L 93.091189 103.534125 
L 93.091189 83.785554 
L 90.66255 83.785554 
z
" clip-path="url(#p7597bb6fd7)" style="fill: #1f77b4"/>
   </g>
   <g id="patch_11">
    <path d="M 90.66255 78.848411 
L 92.395924 78.848411 
L 92.395924 59.099839 
L 90.66255 59.099839 
z
" clip-path="url(#p7597bb6fd7)" style="fill: #1f77b4"/>
   </g>
   <g id="patch_12">
    <path d="M 90.66255 54.162696 
L 91.289713 54.162696 
L 91.289713 34.414125 
L 90.66255 34.414125 
z
" clip-path="url(#p7597bb6fd7)" style="fill: #1f77b4"/>
   </g>
   <g id="matplotlib.axis_1">
    <g id="xtick_1">
     <g id="line2d_1">
      <defs>
       <path id="md8f402ff02" d="M 0 0 
L 0 3.5 
" style="stroke: #000000; stroke-width: 0.8"/>
      </defs>
      <g>
       <use xlink:href="#md8f402ff02" x="90.66255" y="288.430125" style="stroke: #000000; stroke-width: 0.8"/>
      </g>
     </g>
     <g id="text_1">
      <!-- 0 -->
      <g transform="translate(87.483644 303.028562)scale(0.1 -0.1)">
       <defs>
        <path id="Verdana-30" d="M 3647 2328 
Q 3647 1075 3255 489 
Q 2863 -97 2038 -97 
Q 1200 -97 814 497 
Q 428 1091 428 2322 
Q 428 3563 818 4155 
Q 1209 4747 2038 4747 
Q 2875 4747 3261 4145 
Q 3647 3544 3647 2328 
z
M 2825 909 
Q 2934 1163 2973 1505 
Q 3013 1847 3013 2328 
Q 3013 2803 2973 3153 
Q 2934 3503 2822 3747 
Q 2713 3988 2523 4109 
Q 2334 4231 2038 4231 
Q 1744 4231 1551 4109 
Q 1359 3988 1247 3741 
Q 1141 3509 1102 3137 
Q 1063 2766 1063 2322 
Q 1063 1834 1097 1506 
Q 1131 1178 1244 919 
Q 1347 675 1536 547 
Q 1725 419 2038 419 
Q 2331 419 2525 541 
Q 2719 663 2825 909 
z
" transform="scale(0.015625)"/>
       </defs>
       <use xlink:href="#Verdana-30"/>
      </g>
     </g>
    </g>
    <g id="xtick_2">
     <g id="line2d_2">
      <g>
       <use xlink:href="#md8f402ff02" x="133.099769" y="288.430125" style="stroke: #000000; stroke-width: 0.8"/>
      </g>
     </g>
     <g id="text_2">
      <!-- 10 -->
      <g transform="translate(126.741956 303.028562)scale(0.1 -0.1)">
       <defs>
        <path id="Verdana-31" d="M 3388 0 
L 869 0 
L 869 475 
L 1838 475 
L 1838 3594 
L 869 3594 
L 869 4019 
Q 1066 4019 1291 4051 
Q 1516 4084 1631 4147 
Q 1775 4225 1858 4345 
Q 1941 4466 1953 4669 
L 2438 4669 
L 2438 475 
L 3388 475 
L 3388 0 
z
" transform="scale(0.015625)"/>
       </defs>
       <use xlink:href="#Verdana-31"/>
       <use xlink:href="#Verdana-30" x="63.574219"/>
      </g>
     </g>
    </g>
    <g id="xtick_3">
     <g id="line2d_3">
      <g>
       <use xlink:href="#md8f402ff02" x="175.536987" y="288.430125" style="stroke: #000000; stroke-width: 0.8"/>
      </g>
     </g>
     <g id="text_3">
      <!-- 20 -->
      <g transform="translate(169.179175 303.028562)scale(0.1 -0.1)">
       <defs>
        <path id="Verdana-32" d="M 3653 0 
L 503 0 
L 503 653 
Q 831 934 1161 1215 
Q 1491 1497 1775 1775 
Q 2375 2356 2597 2698 
Q 2819 3041 2819 3438 
Q 2819 3800 2580 4004 
Q 2341 4209 1913 4209 
Q 1628 4209 1297 4109 
Q 966 4009 650 3803 
L 619 3803 
L 619 4459 
Q 841 4569 1211 4659 
Q 1581 4750 1928 4750 
Q 2644 4750 3050 4404 
Q 3456 4059 3456 3469 
Q 3456 3203 3389 2973 
Q 3322 2744 3191 2538 
Q 3069 2344 2905 2156 
Q 2741 1969 2506 1741 
Q 2172 1413 1815 1105 
Q 1459 797 1150 534 
L 3653 534 
L 3653 0 
z
" transform="scale(0.015625)"/>
       </defs>
       <use xlink:href="#Verdana-32"/>
       <use xlink:href="#Verdana-30" x="63.574219"/>
      </g>
     </g>
    </g>
    <g id="xtick_4">
     <g id="line2d_4">
      <g>
       <use xlink:href="#md8f402ff02" x="217.974206" y="288.430125" style="stroke: #000000; stroke-width: 0.8"/>
      </g>
     </g>
     <g id="text_4">
      <!-- 30 -->
      <g transform="translate(211.616393 303.028562)scale(0.1 -0.1)">
       <defs>
        <path id="Verdana-33" d="M 3244 2241 
Q 3394 2106 3491 1903 
Q 3588 1700 3588 1378 
Q 3588 1059 3472 793 
Q 3356 528 3147 331 
Q 2913 113 2595 8 
Q 2278 -97 1900 -97 
Q 1513 -97 1138 -4 
Q 763 88 522 197 
L 522 850 
L 569 850 
Q 834 675 1193 559 
Q 1553 444 1888 444 
Q 2084 444 2306 509 
Q 2528 575 2666 703 
Q 2809 841 2879 1006 
Q 2950 1172 2950 1425 
Q 2950 1675 2870 1839 
Q 2791 2003 2650 2097 
Q 2509 2194 2309 2230 
Q 2109 2266 1878 2266 
L 1597 2266 
L 1597 2784 
L 1816 2784 
Q 2291 2784 2573 2982 
Q 2856 3181 2856 3563 
Q 2856 3731 2784 3857 
Q 2713 3984 2584 4066 
Q 2450 4147 2297 4178 
Q 2144 4209 1950 4209 
Q 1653 4209 1318 4103 
Q 984 3997 688 3803 
L 656 3803 
L 656 4456 
Q 878 4566 1248 4658 
Q 1619 4750 1966 4750 
Q 2306 4750 2565 4687 
Q 2825 4625 3034 4488 
Q 3259 4338 3375 4125 
Q 3491 3913 3491 3628 
Q 3491 3241 3217 2952 
Q 2944 2663 2572 2588 
L 2572 2544 
Q 2722 2519 2915 2439 
Q 3109 2359 3244 2241 
z
" transform="scale(0.015625)"/>
       </defs>
       <use xlink:href="#Verdana-33"/>
       <use xlink:href="#Verdana-30" x="63.574219"/>
      </g>
     </g>
    </g>
    <g id="xtick_5">
     <g id="line2d_5">
      <g>
       <use xlink:href="#md8f402ff02" x="260.411424" y="288.430125" style="stroke: #000000; stroke-width: 0.8"/>
      </g>
     </g>
     <g id="text_5">
      <!-- 40 -->
      <g transform="translate(254.053612 303.028562)scale(0.1 -0.1)">
       <defs>
        <path id="Verdana-34" d="M 3759 1309 
L 3069 1309 
L 3069 0 
L 2469 0 
L 2469 1309 
L 241 1309 
L 241 2028 
L 2494 4653 
L 3069 4653 
L 3069 1809 
L 3759 1809 
L 3759 1309 
z
M 2469 1809 
L 2469 3909 
L 666 1809 
L 2469 1809 
z
" transform="scale(0.015625)"/>
       </defs>
       <use xlink:href="#Verdana-34"/>
       <use xlink:href="#Verdana-30" x="63.574219"/>
      </g>
     </g>
    </g>
    <g id="xtick_6">
     <g id="line2d_6">
      <g>
       <use xlink:href="#md8f402ff02" x="302.848643" y="288.430125" style="stroke: #000000; stroke-width: 0.8"/>
      </g>
     </g>
     <g id="text_6">
      <!-- 50 -->
      <g transform="translate(296.490831 303.028562)scale(0.1 -0.1)">
       <defs>
        <path id="Verdana-35" d="M 3616 1478 
Q 3616 1153 3497 856 
Q 3378 559 3172 356 
Q 2947 138 2636 20 
Q 2325 -97 1916 -97 
Q 1534 -97 1181 -17 
Q 828 63 584 175 
L 584 834 
L 628 834 
Q 884 672 1228 558 
Q 1572 444 1903 444 
Q 2125 444 2333 506 
Q 2541 569 2703 725 
Q 2841 859 2911 1046 
Q 2981 1234 2981 1481 
Q 2981 1722 2898 1887 
Q 2816 2053 2669 2153 
Q 2506 2272 2273 2320 
Q 2041 2369 1753 2369 
Q 1478 2369 1223 2331 
Q 969 2294 784 2256 
L 784 4653 
L 3584 4653 
L 3584 4106 
L 1388 4106 
L 1388 2869 
Q 1522 2881 1662 2887 
Q 1803 2894 1906 2894 
Q 2284 2894 2568 2830 
Q 2853 2766 3091 2603 
Q 3341 2431 3478 2159 
Q 3616 1888 3616 1478 
z
" transform="scale(0.015625)"/>
       </defs>
       <use xlink:href="#Verdana-35"/>
       <use xlink:href="#Verdana-30" x="63.574219"/>
      </g>
     </g>
    </g>
    <g id="xtick_7">
     <g id="line2d_7">
      <g>
       <use xlink:href="#md8f402ff02" x="345.285862" y="288.430125" style="stroke: #000000; stroke-width: 0.8"/>
      </g>
     </g>
     <g id="text_7">
      <!-- 60 -->
      <g transform="translate(338.928049 303.028562)scale(0.1 -0.1)">
       <defs>
        <path id="Verdana-36" d="M 3722 1509 
Q 3722 800 3255 351 
Q 2788 -97 2109 -97 
Q 1766 -97 1484 9 
Q 1203 116 988 325 
Q 719 584 573 1012 
Q 428 1441 428 2044 
Q 428 2663 561 3141 
Q 694 3619 984 3991 
Q 1259 4344 1693 4542 
Q 2128 4741 2706 4741 
Q 2891 4741 3016 4725 
Q 3141 4709 3269 4669 
L 3269 4072 
L 3238 4072 
Q 3150 4119 2973 4161 
Q 2797 4203 2613 4203 
Q 1941 4203 1541 3783 
Q 1141 3363 1075 2647 
Q 1338 2806 1592 2889 
Q 1847 2972 2181 2972 
Q 2478 2972 2704 2917 
Q 2931 2863 3169 2697 
Q 3444 2506 3583 2215 
Q 3722 1925 3722 1509 
z
M 3088 1484 
Q 3088 1775 3002 1965 
Q 2916 2156 2719 2297 
Q 2575 2397 2400 2428 
Q 2225 2459 2034 2459 
Q 1769 2459 1541 2396 
Q 1313 2334 1072 2203 
Q 1066 2134 1062 2070 
Q 1059 2006 1059 1909 
Q 1059 1416 1161 1130 
Q 1263 844 1441 678 
Q 1584 541 1751 477 
Q 1919 413 2116 413 
Q 2569 413 2828 689 
Q 3088 966 3088 1484 
z
" transform="scale(0.015625)"/>
       </defs>
       <use xlink:href="#Verdana-36"/>
       <use xlink:href="#Verdana-30" x="63.574219"/>
      </g>
     </g>
    </g>
    <g id="xtick_8">
     <g id="line2d_8">
      <g>
       <use xlink:href="#md8f402ff02" x="387.72308" y="288.430125" style="stroke: #000000; stroke-width: 0.8"/>
      </g>
     </g>
     <g id="text_8">
      <!-- 70 -->
      <g transform="translate(381.365268 303.028562)scale(0.1 -0.1)">
       <defs>
        <path id="Verdana-37" d="M 3666 3956 
L 1559 0 
L 891 0 
L 3131 4106 
L 481 4106 
L 481 4653 
L 3666 4653 
L 3666 3956 
z
" transform="scale(0.015625)"/>
       </defs>
       <use xlink:href="#Verdana-37"/>
       <use xlink:href="#Verdana-30" x="63.574219"/>
      </g>
     </g>
    </g>
    <g id="xtick_9">
     <g id="line2d_9">
      <g>
       <use xlink:href="#md8f402ff02" x="430.160299" y="288.430125" style="stroke: #000000; stroke-width: 0.8"/>
      </g>
     </g>
     <g id="text_9">
      <!-- 80 -->
      <g transform="translate(423.802487 303.028562)scale(0.1 -0.1)">
       <defs>
        <path id="Verdana-38" d="M 3688 1297 
Q 3688 694 3217 294 
Q 2747 -106 2034 -106 
Q 1278 -106 829 284 
Q 381 675 381 1284 
Q 381 1672 606 1986 
Q 831 2300 1241 2484 
L 1241 2503 
Q 866 2703 686 2940 
Q 506 3178 506 3534 
Q 506 4059 937 4409 
Q 1369 4759 2034 4759 
Q 2731 4759 3147 4425 
Q 3563 4091 3563 3575 
Q 3563 3259 3366 2954 
Q 3169 2650 2788 2478 
L 2788 2459 
Q 3225 2272 3456 1997 
Q 3688 1722 3688 1297 
z
M 2947 3569 
Q 2947 3903 2689 4101 
Q 2431 4300 2031 4300 
Q 1638 4300 1386 4112 
Q 1134 3925 1134 3606 
Q 1134 3381 1261 3217 
Q 1388 3053 1644 2925 
Q 1759 2869 1976 2778 
Q 2194 2688 2400 2628 
Q 2709 2834 2828 3056 
Q 2947 3278 2947 3569 
z
M 3044 1238 
Q 3044 1525 2917 1698 
Q 2791 1872 2422 2047 
Q 2275 2116 2100 2175 
Q 1925 2234 1634 2341 
Q 1353 2188 1183 1925 
Q 1013 1663 1013 1331 
Q 1013 909 1303 634 
Q 1594 359 2041 359 
Q 2497 359 2770 593 
Q 3044 828 3044 1238 
z
" transform="scale(0.015625)"/>
       </defs>
       <use xlink:href="#Verdana-38"/>
       <use xlink:href="#Verdana-30" x="63.574219"/>
      </g>
     </g>
    </g>
    <g id="text_10">
     <!-- Total cases in millions -->
     <g transform="translate(214.539737 316.6395)scale(0.1 -0.1)">
      <defs>
       <path id="Verdana-54" d="M 3944 4103 
L 2281 4103 
L 2281 0 
L 1663 0 
L 1663 4103 
L 0 4103 
L 0 4653 
L 3944 4653 
L 3944 4103 
z
" transform="scale(0.015625)"/>
       <path id="Verdana-6f" d="M 3553 1744 
Q 3553 891 3115 397 
Q 2678 -97 1944 -97 
Q 1203 -97 767 397 
Q 331 891 331 1744 
Q 331 2597 767 3092 
Q 1203 3588 1944 3588 
Q 2678 3588 3115 3092 
Q 3553 2597 3553 1744 
z
M 2947 1744 
Q 2947 2422 2681 2751 
Q 2416 3081 1944 3081 
Q 1466 3081 1202 2751 
Q 938 2422 938 1744 
Q 938 1088 1203 748 
Q 1469 409 1944 409 
Q 2413 409 2680 745 
Q 2947 1081 2947 1744 
z
" transform="scale(0.015625)"/>
       <path id="Verdana-74" d="M 2391 31 
Q 2225 -13 2029 -41 
Q 1834 -69 1681 -69 
Q 1147 -69 869 218 
Q 591 506 591 1141 
L 591 2997 
L 194 2997 
L 194 3491 
L 591 3491 
L 591 4494 
L 1178 4494 
L 1178 3491 
L 2391 3491 
L 2391 2997 
L 1178 2997 
L 1178 1406 
Q 1178 1131 1190 976 
Q 1203 822 1278 688 
Q 1347 563 1467 505 
Q 1588 447 1834 447 
Q 1978 447 2134 489 
Q 2291 531 2359 559 
L 2391 559 
L 2391 31 
z
" transform="scale(0.015625)"/>
       <path id="Verdana-61" d="M 3291 0 
L 2706 0 
L 2706 372 
Q 2628 319 2495 223 
Q 2363 128 2238 72 
Q 2091 0 1900 -48 
Q 1709 -97 1453 -97 
Q 981 -97 653 215 
Q 325 528 325 1013 
Q 325 1409 495 1654 
Q 666 1900 981 2041 
Q 1300 2181 1747 2231 
Q 2194 2281 2706 2306 
L 2706 2397 
Q 2706 2597 2636 2728 
Q 2566 2859 2434 2934 
Q 2309 3006 2134 3031 
Q 1959 3056 1769 3056 
Q 1538 3056 1253 2995 
Q 969 2934 666 2819 
L 634 2819 
L 634 3416 
Q 806 3463 1131 3519 
Q 1456 3575 1772 3575 
Q 2141 3575 2414 3514 
Q 2688 3453 2888 3306 
Q 3084 3163 3187 2934 
Q 3291 2706 3291 2369 
L 3291 0 
z
M 2706 859 
L 2706 1831 
Q 2438 1816 2073 1784 
Q 1709 1753 1497 1694 
Q 1244 1622 1087 1470 
Q 931 1319 931 1053 
Q 931 753 1112 601 
Q 1294 450 1666 450 
Q 1975 450 2231 570 
Q 2488 691 2706 859 
z
" transform="scale(0.015625)"/>
       <path id="Verdana-6c" d="M 1172 0 
L 584 0 
L 584 4863 
L 1172 4863 
L 1172 0 
z
" transform="scale(0.015625)"/>
       <path id="Verdana-20" transform="scale(0.015625)"/>
       <path id="Verdana-63" d="M 3159 219 
Q 2866 78 2602 0 
Q 2338 -78 2041 -78 
Q 1663 -78 1347 33 
Q 1031 144 806 369 
Q 578 594 453 937 
Q 328 1281 328 1741 
Q 328 2597 798 3084 
Q 1269 3572 2041 3572 
Q 2341 3572 2630 3487 
Q 2919 3403 3159 3281 
L 3159 2628 
L 3128 2628 
Q 2859 2838 2573 2950 
Q 2288 3063 2016 3063 
Q 1516 3063 1227 2727 
Q 938 2391 938 1741 
Q 938 1109 1220 770 
Q 1503 431 2016 431 
Q 2194 431 2378 478 
Q 2563 525 2709 600 
Q 2838 666 2950 739 
Q 3063 813 3128 866 
L 3159 866 
L 3159 219 
z
" transform="scale(0.015625)"/>
       <path id="Verdana-73" d="M 3072 1006 
Q 3072 528 2676 222 
Q 2281 -84 1597 -84 
Q 1209 -84 886 8 
Q 563 100 344 209 
L 344 869 
L 375 869 
Q 653 659 993 536 
Q 1334 413 1647 413 
Q 2034 413 2253 538 
Q 2472 663 2472 931 
Q 2472 1138 2353 1244 
Q 2234 1350 1897 1425 
Q 1772 1453 1570 1490 
Q 1369 1528 1203 1572 
Q 744 1694 551 1930 
Q 359 2166 359 2509 
Q 359 2725 448 2915 
Q 538 3106 719 3256 
Q 894 3403 1164 3489 
Q 1434 3575 1769 3575 
Q 2081 3575 2401 3498 
Q 2722 3422 2934 3313 
L 2934 2684 
L 2903 2684 
Q 2678 2850 2356 2964 
Q 2034 3078 1725 3078 
Q 1403 3078 1181 2954 
Q 959 2831 959 2588 
Q 959 2372 1094 2263 
Q 1225 2153 1519 2084 
Q 1681 2047 1882 2009 
Q 2084 1972 2219 1941 
Q 2628 1847 2850 1619 
Q 3072 1388 3072 1006 
z
" transform="scale(0.015625)"/>
       <path id="Verdana-65" d="M 3500 1684 
L 928 1684 
Q 928 1363 1025 1123 
Q 1122 884 1291 731 
Q 1453 581 1676 506 
Q 1900 431 2169 431 
Q 2525 431 2886 573 
Q 3247 716 3400 853 
L 3431 853 
L 3431 213 
Q 3134 88 2825 3 
Q 2516 -81 2175 -81 
Q 1306 -81 818 389 
Q 331 859 331 1725 
Q 331 2581 798 3084 
Q 1266 3588 2028 3588 
Q 2734 3588 3117 3175 
Q 3500 2763 3500 2003 
L 3500 1684 
z
M 2928 2134 
Q 2925 2597 2695 2850 
Q 2466 3103 1997 3103 
Q 1525 3103 1245 2825 
Q 966 2547 928 2134 
L 2928 2134 
z
" transform="scale(0.015625)"/>
       <path id="Verdana-69" d="M 1209 4075 
L 547 4075 
L 547 4684 
L 1209 4684 
L 1209 4075 
z
M 1172 0 
L 584 0 
L 584 3491 
L 1172 3491 
L 1172 0 
z
" transform="scale(0.015625)"/>
       <path id="Verdana-6e" d="M 3497 0 
L 2909 0 
L 2909 1988 
Q 2909 2228 2881 2439 
Q 2853 2650 2778 2769 
Q 2700 2900 2553 2964 
Q 2406 3028 2172 3028 
Q 1931 3028 1668 2909 
Q 1406 2791 1166 2606 
L 1166 0 
L 578 0 
L 578 3491 
L 1166 3491 
L 1166 3103 
Q 1441 3331 1734 3459 
Q 2028 3588 2338 3588 
Q 2903 3588 3200 3247 
Q 3497 2906 3497 2266 
L 3497 0 
z
" transform="scale(0.015625)"/>
       <path id="Verdana-6d" d="M 5672 0 
L 5084 0 
L 5084 1988 
Q 5084 2213 5064 2422 
Q 5044 2631 4978 2756 
Q 4906 2891 4772 2959 
Q 4638 3028 4384 3028 
Q 4138 3028 3891 2904 
Q 3644 2781 3397 2591 
Q 3406 2519 3412 2423 
Q 3419 2328 3419 2234 
L 3419 0 
L 2831 0 
L 2831 1988 
Q 2831 2219 2811 2426 
Q 2791 2634 2725 2759 
Q 2653 2894 2518 2961 
Q 2384 3028 2131 3028 
Q 1891 3028 1648 2909 
Q 1406 2791 1166 2606 
L 1166 0 
L 578 0 
L 578 3491 
L 1166 3491 
L 1166 3103 
Q 1441 3331 1714 3459 
Q 1988 3588 2297 3588 
Q 2653 3588 2901 3438 
Q 3150 3288 3272 3022 
Q 3628 3322 3922 3455 
Q 4216 3588 4550 3588 
Q 5125 3588 5398 3239 
Q 5672 2891 5672 2266 
L 5672 0 
z
" transform="scale(0.015625)"/>
      </defs>
      <use xlink:href="#Verdana-54"/>
      <use xlink:href="#Verdana-6f" x="50.871094"/>
      <use xlink:href="#Verdana-74" x="111.564453"/>
      <use xlink:href="#Verdana-61" x="150.96875"/>
      <use xlink:href="#Verdana-6c" x="211.027344"/>
      <use xlink:href="#Verdana-20" x="238.46875"/>
      <use xlink:href="#Verdana-63" x="273.625"/>
      <use xlink:href="#Verdana-61" x="325.724609"/>
      <use xlink:href="#Verdana-73" x="385.783203"/>
      <use xlink:href="#Verdana-65" x="437.882812"/>
      <use xlink:href="#Verdana-73" x="497.453125"/>
      <use xlink:href="#Verdana-20" x="549.552734"/>
      <use xlink:href="#Verdana-69" x="584.708984"/>
      <use xlink:href="#Verdana-6e" x="612.150391"/>
      <use xlink:href="#Verdana-20" x="675.431641"/>
      <use xlink:href="#Verdana-6d" x="710.587891"/>
      <use xlink:href="#Verdana-69" x="807.853516"/>
      <use xlink:href="#Verdana-6c" x="835.294922"/>
      <use xlink:href="#Verdana-6c" x="862.736328"/>
      <use xlink:href="#Verdana-69" x="890.177734"/>
      <use xlink:href="#Verdana-6f" x="917.619141"/>
      <use xlink:href="#Verdana-6e" x="978.3125"/>
      <use xlink:href="#Verdana-73" x="1041.59375"/>
     </g>
    </g>
   </g>
   <g id="matplotlib.axis_2">
    <g id="ytick_1">
     <g id="line2d_10">
      <defs>
       <path id="m9dc7074233" d="M 0 0 
L -3.5 0 
" style="stroke: #000000; stroke-width: 0.8"/>
      </defs>
      <g>
       <use xlink:href="#m9dc7074233" x="90.66255" y="266.459839" style="stroke: #000000; stroke-width: 0.8"/>
      </g>
     </g>
     <g id="text_11">
      <!-- USA -->
      <g transform="translate(67.467595 282.80543)rotate(-45)scale(0.1 -0.1)">
       <defs>
        <path id="Verdana-55" d="M 4128 1869 
Q 4128 1363 4017 986 
Q 3906 609 3653 359 
Q 3413 122 3091 12 
Q 2769 -97 2341 -97 
Q 1903 -97 1578 18 
Q 1253 134 1031 359 
Q 778 616 667 978 
Q 556 1341 556 1869 
L 556 4653 
L 1175 4653 
L 1175 1838 
Q 1175 1459 1226 1240 
Q 1278 1022 1400 844 
Q 1538 641 1773 537 
Q 2009 434 2341 434 
Q 2675 434 2909 536 
Q 3144 638 3284 844 
Q 3406 1022 3457 1251 
Q 3509 1481 3509 1822 
L 3509 4653 
L 4128 4653 
L 4128 1869 
z
" transform="scale(0.015625)"/>
        <path id="Verdana-53" d="M 4006 1328 
Q 4006 1056 3879 790 
Q 3753 525 3525 341 
Q 3275 141 2942 28 
Q 2609 -84 2141 -84 
Q 1638 -84 1236 9 
Q 834 103 419 288 
L 419 1063 
L 463 1063 
Q 816 769 1278 609 
Q 1741 450 2147 450 
Q 2722 450 3042 665 
Q 3363 881 3363 1241 
Q 3363 1550 3211 1697 
Q 3059 1844 2750 1925 
Q 2516 1988 2242 2028 
Q 1969 2069 1663 2131 
Q 1044 2263 745 2580 
Q 447 2897 447 3406 
Q 447 3991 940 4364 
Q 1434 4738 2194 4738 
Q 2684 4738 3093 4644 
Q 3503 4550 3819 4413 
L 3819 3681 
L 3775 3681 
Q 3509 3906 3076 4054 
Q 2644 4203 2191 4203 
Q 1694 4203 1392 3997 
Q 1091 3791 1091 3466 
Q 1091 3175 1241 3009 
Q 1391 2844 1769 2756 
Q 1969 2713 2337 2650 
Q 2706 2588 2963 2522 
Q 3481 2384 3743 2106 
Q 4006 1828 4006 1328 
z
" transform="scale(0.015625)"/>
        <path id="Verdana-41" d="M 4294 0 
L 3634 0 
L 3178 1297 
L 1166 1297 
L 709 0 
L 81 0 
L 1775 4653 
L 2600 4653 
L 4294 0 
z
M 2988 1828 
L 2172 4113 
L 1353 1828 
L 2988 1828 
z
" transform="scale(0.015625)"/>
       </defs>
       <use xlink:href="#Verdana-55"/>
       <use xlink:href="#Verdana-53" x="73.193359"/>
       <use xlink:href="#Verdana-41" x="140.552734"/>
      </g>
     </g>
    </g>
    <g id="ytick_2">
     <g id="line2d_11">
      <g>
       <use xlink:href="#m9dc7074233" x="90.66255" y="241.774125" style="stroke: #000000; stroke-width: 0.8"/>
      </g>
     </g>
     <g id="text_12">
      <!-- Mexico -->
      <g transform="translate(57.966952 267.620358)rotate(-45)scale(0.1 -0.1)">
       <defs>
        <path id="Verdana-4d" d="M 4769 0 
L 4150 0 
L 4150 4009 
L 2856 1281 
L 2488 1281 
L 1203 4009 
L 1203 0 
L 625 0 
L 625 4653 
L 1469 4653 
L 2709 2063 
L 3909 4653 
L 4769 4653 
L 4769 0 
z
" transform="scale(0.015625)"/>
        <path id="Verdana-78" d="M 3600 0 
L 2859 0 
L 1869 1341 
L 872 0 
L 188 0 
L 1550 1741 
L 200 3491 
L 941 3491 
L 1925 2172 
L 2913 3491 
L 3600 3491 
L 2228 1772 
L 3600 0 
z
" transform="scale(0.015625)"/>
       </defs>
       <use xlink:href="#Verdana-4d"/>
       <use xlink:href="#Verdana-65" x="84.277344"/>
       <use xlink:href="#Verdana-78" x="143.847656"/>
       <use xlink:href="#Verdana-69" x="203.027344"/>
       <use xlink:href="#Verdana-63" x="230.46875"/>
       <use xlink:href="#Verdana-6f" x="282.568359"/>
      </g>
     </g>
    </g>
    <g id="ytick_3">
     <g id="line2d_12">
      <g>
       <use xlink:href="#m9dc7074233" x="90.66255" y="217.088411" style="stroke: #000000; stroke-width: 0.8"/>
      </g>
     </g>
     <g id="text_13">
      <!-- Canada -->
      <g transform="translate(55.679904 245.221692)rotate(-45)scale(0.1 -0.1)">
       <defs>
        <path id="Verdana-43" d="M 4219 338 
Q 4047 263 3908 197 
Q 3769 131 3544 59 
Q 3353 0 3129 -42 
Q 2906 -84 2638 -84 
Q 2131 -84 1717 58 
Q 1303 200 997 503 
Q 697 800 528 1258 
Q 359 1716 359 2322 
Q 359 2897 521 3350 
Q 684 3803 991 4116 
Q 1288 4419 1708 4578 
Q 2128 4738 2641 4738 
Q 3016 4738 3389 4647 
Q 3763 4556 4219 4328 
L 4219 3594 
L 4172 3594 
Q 3788 3916 3409 4062 
Q 3031 4209 2600 4209 
Q 2247 4209 1964 4095 
Q 1681 3981 1459 3741 
Q 1244 3506 1123 3148 
Q 1003 2791 1003 2322 
Q 1003 1831 1136 1478 
Q 1269 1125 1478 903 
Q 1697 672 1989 561 
Q 2281 450 2606 450 
Q 3053 450 3443 603 
Q 3834 756 4175 1063 
L 4219 1063 
L 4219 338 
z
" transform="scale(0.015625)"/>
        <path id="Verdana-64" d="M 3409 0 
L 2822 0 
L 2822 366 
Q 2569 147 2294 25 
Q 2019 -97 1697 -97 
Q 1072 -97 705 384 
Q 338 866 338 1719 
Q 338 2163 464 2509 
Q 591 2856 806 3100 
Q 1019 3338 1301 3463 
Q 1584 3588 1888 3588 
Q 2163 3588 2375 3530 
Q 2588 3472 2822 3350 
L 2822 4863 
L 3409 4863 
L 3409 0 
z
M 2822 859 
L 2822 2863 
Q 2584 2969 2396 3009 
Q 2209 3050 1988 3050 
Q 1494 3050 1219 2706 
Q 944 2363 944 1731 
Q 944 1109 1156 786 
Q 1369 463 1838 463 
Q 2088 463 2344 573 
Q 2600 684 2822 859 
z
" transform="scale(0.015625)"/>
       </defs>
       <use xlink:href="#Verdana-43"/>
       <use xlink:href="#Verdana-61" x="69.824219"/>
       <use xlink:href="#Verdana-6e" x="129.882812"/>
       <use xlink:href="#Verdana-61" x="193.164062"/>
       <use xlink:href="#Verdana-64" x="253.222656"/>
       <use xlink:href="#Verdana-61" x="315.527344"/>
      </g>
     </g>
    </g>
    <g id="ytick_4">
     <g id="line2d_13">
      <g>
       <use xlink:href="#m9dc7074233" x="90.66255" y="192.402696" style="stroke: #000000; stroke-width: 0.8"/>
      </g>
     </g>
     <g id="text_14">
      <!-- Cuba -->
      <g transform="translate(64.174024 212.041858)rotate(-45)scale(0.1 -0.1)">
       <defs>
        <path id="Verdana-75" d="M 3472 0 
L 2884 0 
L 2884 388 
Q 2588 153 2316 28 
Q 2044 -97 1716 -97 
Q 1166 -97 859 239 
Q 553 575 553 1225 
L 553 3491 
L 1141 3491 
L 1141 1503 
Q 1141 1238 1166 1048 
Q 1191 859 1272 725 
Q 1356 588 1490 525 
Q 1625 463 1881 463 
Q 2109 463 2379 581 
Q 2650 700 2884 884 
L 2884 3491 
L 3472 3491 
L 3472 0 
z
" transform="scale(0.015625)"/>
        <path id="Verdana-62" d="M 3650 1772 
Q 3650 1334 3526 984 
Q 3403 634 3194 397 
Q 2972 150 2706 26 
Q 2441 -97 2122 -97 
Q 1825 -97 1603 -26 
Q 1381 44 1166 163 
L 1128 0 
L 578 0 
L 578 4863 
L 1166 4863 
L 1166 3125 
Q 1413 3328 1691 3458 
Q 1969 3588 2316 3588 
Q 2934 3588 3292 3113 
Q 3650 2638 3650 1772 
z
M 3044 1756 
Q 3044 2381 2837 2704 
Q 2631 3028 2172 3028 
Q 1916 3028 1653 2917 
Q 1391 2806 1166 2631 
L 1166 631 
Q 1416 519 1595 475 
Q 1775 431 2003 431 
Q 2491 431 2767 751 
Q 3044 1072 3044 1756 
z
" transform="scale(0.015625)"/>
       </defs>
       <use xlink:href="#Verdana-43"/>
       <use xlink:href="#Verdana-75" x="69.824219"/>
       <use xlink:href="#Verdana-62" x="133.105469"/>
       <use xlink:href="#Verdana-61" x="195.410156"/>
      </g>
     </g>
    </g>
    <g id="ytick_5">
     <g id="line2d_14">
      <g>
       <use xlink:href="#m9dc7074233" x="90.66255" y="167.716982" style="stroke: #000000; stroke-width: 0.8"/>
      </g>
     </g>
     <g id="text_15">
      <!-- Costa Rica -->
      <g transform="translate(45.020269 206.509898)rotate(-45)scale(0.1 -0.1)">
       <defs>
        <path id="Verdana-52" d="M 4475 0 
L 3672 0 
L 2116 1850 
L 1244 1850 
L 1244 0 
L 625 0 
L 625 4653 
L 1928 4653 
Q 2350 4653 2631 4598 
Q 2913 4544 3138 4403 
Q 3391 4244 3533 4001 
Q 3675 3759 3675 3388 
Q 3675 2884 3422 2545 
Q 3169 2206 2725 2034 
L 4475 0 
z
M 3028 3344 
Q 3028 3544 2958 3698 
Q 2888 3853 2725 3959 
Q 2591 4050 2406 4086 
Q 2222 4122 1972 4122 
L 1244 4122 
L 1244 2366 
L 1869 2366 
Q 2163 2366 2381 2417 
Q 2600 2469 2753 2609 
Q 2894 2741 2961 2911 
Q 3028 3081 3028 3344 
z
" transform="scale(0.015625)"/>
       </defs>
       <use xlink:href="#Verdana-43"/>
       <use xlink:href="#Verdana-6f" x="69.824219"/>
       <use xlink:href="#Verdana-73" x="130.517578"/>
       <use xlink:href="#Verdana-74" x="182.617188"/>
       <use xlink:href="#Verdana-61" x="222.021484"/>
       <use xlink:href="#Verdana-20" x="282.080078"/>
       <use xlink:href="#Verdana-52" x="317.236328"/>
       <use xlink:href="#Verdana-69" x="386.767578"/>
       <use xlink:href="#Verdana-63" x="414.208984"/>
       <use xlink:href="#Verdana-61" x="466.308594"/>
      </g>
     </g>
    </g>
    <g id="ytick_6">
     <g id="line2d_15">
      <g>
       <use xlink:href="#m9dc7074233" x="90.66255" y="143.031268" style="stroke: #000000; stroke-width: 0.8"/>
      </g>
     </g>
     <g id="text_16">
      <!-- Guatemala -->
      <g transform="translate(43.72317 183.121283)rotate(-45)scale(0.1 -0.1)">
       <defs>
        <path id="Verdana-47" d="M 4506 344 
Q 4125 169 3673 39 
Q 3222 -91 2800 -91 
Q 2256 -91 1803 59 
Q 1350 209 1031 509 
Q 709 813 534 1267 
Q 359 1722 359 2331 
Q 359 3447 1011 4092 
Q 1663 4738 2800 4738 
Q 3197 4738 3611 4642 
Q 4025 4547 4503 4319 
L 4503 3584 
L 4447 3584 
Q 4350 3659 4165 3781 
Q 3981 3903 3803 3984 
Q 3588 4081 3314 4145 
Q 3041 4209 2694 4209 
Q 1913 4209 1458 3707 
Q 1003 3206 1003 2350 
Q 1003 1447 1478 945 
Q 1953 444 2772 444 
Q 3072 444 3370 503 
Q 3669 563 3894 656 
L 3894 1797 
L 2647 1797 
L 2647 2341 
L 4506 2341 
L 4506 344 
z
" transform="scale(0.015625)"/>
       </defs>
       <use xlink:href="#Verdana-47"/>
       <use xlink:href="#Verdana-75" x="77.539062"/>
       <use xlink:href="#Verdana-61" x="140.820312"/>
       <use xlink:href="#Verdana-74" x="200.878906"/>
       <use xlink:href="#Verdana-65" x="240.283203"/>
       <use xlink:href="#Verdana-6d" x="299.853516"/>
       <use xlink:href="#Verdana-61" x="397.119141"/>
       <use xlink:href="#Verdana-6c" x="457.177734"/>
       <use xlink:href="#Verdana-61" x="484.619141"/>
      </g>
     </g>
    </g>
    <g id="ytick_7">
     <g id="line2d_16">
      <g>
       <use xlink:href="#m9dc7074233" x="90.66255" y="118.345554" style="stroke: #000000; stroke-width: 0.8"/>
      </g>
     </g>
     <g id="text_17">
      <!-- Panama -->
      <g transform="translate(54.059083 148.099656)rotate(-45)scale(0.1 -0.1)">
       <defs>
        <path id="Verdana-50" d="M 3669 3247 
Q 3669 2938 3561 2673 
Q 3453 2409 3259 2216 
Q 3019 1975 2691 1854 
Q 2363 1734 1863 1734 
L 1244 1734 
L 1244 0 
L 625 0 
L 625 4653 
L 1888 4653 
Q 2306 4653 2597 4583 
Q 2888 4513 3113 4363 
Q 3378 4184 3523 3918 
Q 3669 3653 3669 3247 
z
M 3025 3231 
Q 3025 3472 2940 3650 
Q 2856 3828 2684 3941 
Q 2534 4038 2342 4080 
Q 2150 4122 1856 4122 
L 1244 4122 
L 1244 2263 
L 1766 2263 
Q 2141 2263 2375 2330 
Q 2609 2397 2756 2544 
Q 2903 2694 2964 2859 
Q 3025 3025 3025 3231 
z
" transform="scale(0.015625)"/>
       </defs>
       <use xlink:href="#Verdana-50"/>
       <use xlink:href="#Verdana-61" x="57.802734"/>
       <use xlink:href="#Verdana-6e" x="117.861328"/>
       <use xlink:href="#Verdana-61" x="181.142578"/>
       <use xlink:href="#Verdana-6d" x="241.201172"/>
       <use xlink:href="#Verdana-61" x="338.466797"/>
      </g>
     </g>
    </g>
    <g id="ytick_8">
     <g id="line2d_17">
      <g>
       <use xlink:href="#m9dc7074233" x="90.66255" y="93.659839" style="stroke: #000000; stroke-width: 0.8"/>
      </g>
     </g>
     <g id="text_18">
      <!-- Dominican Republic -->
      <g transform="translate(12.572907 164.900118)rotate(-45)scale(0.1 -0.1)">
       <defs>
        <path id="Verdana-44" d="M 4556 2322 
Q 4556 1688 4279 1172 
Q 4003 656 3544 372 
Q 3225 175 2833 87 
Q 2441 0 1800 0 
L 625 0 
L 625 4653 
L 1788 4653 
Q 2469 4653 2870 4554 
Q 3272 4456 3550 4284 
Q 4025 3988 4290 3494 
Q 4556 3000 4556 2322 
z
M 3909 2331 
Q 3909 2878 3718 3253 
Q 3528 3628 3150 3844 
Q 2875 4000 2565 4061 
Q 2256 4122 1825 4122 
L 1244 4122 
L 1244 531 
L 1825 531 
Q 2272 531 2605 597 
Q 2938 663 3216 841 
Q 3563 1063 3736 1425 
Q 3909 1788 3909 2331 
z
" transform="scale(0.015625)"/>
        <path id="Verdana-70" d="M 3650 1788 
Q 3650 1363 3528 1011 
Q 3406 659 3184 416 
Q 2978 184 2698 57 
Q 2419 -69 2106 -69 
Q 1834 -69 1614 -9 
Q 1394 50 1166 175 
L 1166 -1288 
L 578 -1288 
L 578 3491 
L 1166 3491 
L 1166 3125 
Q 1400 3322 1692 3455 
Q 1984 3588 2316 3588 
Q 2947 3588 3298 3111 
Q 3650 2634 3650 1788 
z
M 3044 1772 
Q 3044 2403 2828 2715 
Q 2613 3028 2166 3028 
Q 1913 3028 1656 2918 
Q 1400 2809 1166 2631 
L 1166 653 
Q 1416 541 1595 500 
Q 1775 459 2003 459 
Q 2494 459 2769 790 
Q 3044 1122 3044 1772 
z
" transform="scale(0.015625)"/>
       </defs>
       <use xlink:href="#Verdana-44"/>
       <use xlink:href="#Verdana-6f" x="77.050781"/>
       <use xlink:href="#Verdana-6d" x="137.744141"/>
       <use xlink:href="#Verdana-69" x="235.009766"/>
       <use xlink:href="#Verdana-6e" x="262.451172"/>
       <use xlink:href="#Verdana-69" x="325.732422"/>
       <use xlink:href="#Verdana-63" x="353.173828"/>
       <use xlink:href="#Verdana-61" x="405.273438"/>
       <use xlink:href="#Verdana-6e" x="465.332031"/>
       <use xlink:href="#Verdana-20" x="528.613281"/>
       <use xlink:href="#Verdana-52" x="563.769531"/>
       <use xlink:href="#Verdana-65" x="630.800781"/>
       <use xlink:href="#Verdana-70" x="690.371094"/>
       <use xlink:href="#Verdana-75" x="752.675781"/>
       <use xlink:href="#Verdana-62" x="815.957031"/>
       <use xlink:href="#Verdana-6c" x="878.261719"/>
       <use xlink:href="#Verdana-69" x="905.703125"/>
       <use xlink:href="#Verdana-63" x="933.144531"/>
      </g>
     </g>
    </g>
    <g id="ytick_9">
     <g id="line2d_18">
      <g>
       <use xlink:href="#m9dc7074233" x="90.66255" y="68.974125" style="stroke: #000000; stroke-width: 0.8"/>
      </g>
     </g>
     <g id="text_19">
      <!-- Honduras -->
      <g transform="translate(48.455261 104.332049)rotate(-45)scale(0.1 -0.1)">
       <defs>
        <path id="Verdana-48" d="M 4184 0 
L 3566 0 
L 3566 2278 
L 1244 2278 
L 1244 0 
L 625 0 
L 625 4653 
L 1244 4653 
L 1244 2828 
L 3566 2828 
L 3566 4653 
L 4184 4653 
L 4184 0 
z
" transform="scale(0.015625)"/>
        <path id="Verdana-72" d="M 2756 2850 
L 2725 2850 
Q 2594 2881 2470 2895 
Q 2347 2909 2178 2909 
Q 1906 2909 1653 2789 
Q 1400 2669 1166 2478 
L 1166 0 
L 578 0 
L 578 3491 
L 1166 3491 
L 1166 2975 
Q 1516 3256 1783 3373 
Q 2050 3491 2328 3491 
Q 2481 3491 2550 3483 
Q 2619 3475 2756 3453 
L 2756 2850 
z
" transform="scale(0.015625)"/>
       </defs>
       <use xlink:href="#Verdana-48"/>
       <use xlink:href="#Verdana-6f" x="75.146484"/>
       <use xlink:href="#Verdana-6e" x="135.839844"/>
       <use xlink:href="#Verdana-64" x="199.121094"/>
       <use xlink:href="#Verdana-75" x="261.425781"/>
       <use xlink:href="#Verdana-72" x="324.707031"/>
       <use xlink:href="#Verdana-61" x="365.632812"/>
       <use xlink:href="#Verdana-73" x="425.691406"/>
      </g>
     </g>
    </g>
    <g id="ytick_10">
     <g id="line2d_19">
      <g>
       <use xlink:href="#m9dc7074233" x="90.66255" y="44.288411" style="stroke: #000000; stroke-width: 0.8"/>
      </g>
     </g>
     <g id="text_20">
      <!-- El Salvador -->
      <g transform="translate(42.315586 85.78601)rotate(-45)scale(0.1 -0.1)">
       <defs>
        <path id="Verdana-45" d="M 3691 0 
L 625 0 
L 625 4653 
L 3691 4653 
L 3691 4103 
L 1244 4103 
L 1244 2828 
L 3691 2828 
L 3691 2278 
L 1244 2278 
L 1244 550 
L 3691 550 
L 3691 0 
z
" transform="scale(0.015625)"/>
        <path id="Verdana-76" d="M 3597 3491 
L 2184 0 
L 1594 0 
L 191 3491 
L 828 3491 
L 1909 713 
L 2981 3491 
L 3597 3491 
z
" transform="scale(0.015625)"/>
       </defs>
       <use xlink:href="#Verdana-45"/>
       <use xlink:href="#Verdana-6c" x="63.232422"/>
       <use xlink:href="#Verdana-20" x="90.673828"/>
       <use xlink:href="#Verdana-53" x="125.830078"/>
       <use xlink:href="#Verdana-61" x="194.189453"/>
       <use xlink:href="#Verdana-6c" x="254.248047"/>
       <use xlink:href="#Verdana-76" x="281.689453"/>
       <use xlink:href="#Verdana-61" x="338.869141"/>
       <use xlink:href="#Verdana-64" x="398.927734"/>
       <use xlink:href="#Verdana-6f" x="461.232422"/>
       <use xlink:href="#Verdana-72" x="521.925781"/>
      </g>
     </g>
    </g>
   </g>
   <g id="patch_13">
    <path d="M 90.66255 288.430125 
L 90.66255 22.318125 
" style="fill: none; stroke: #000000; stroke-width: 0.8; stroke-linejoin: miter; stroke-linecap: square"/>
   </g>
   <g id="patch_14">
    <path d="M 447.78255 288.430125 
L 447.78255 22.318125 
" style="fill: none; stroke: #000000; stroke-width: 0.8; stroke-linejoin: miter; stroke-linecap: square"/>
   </g>
   <g id="patch_15">
    <path d="M 90.66255 288.430125 
L 447.78255 288.430125 
" style="fill: none; stroke: #000000; stroke-width: 0.8; stroke-linejoin: miter; stroke-linecap: square"/>
   </g>
   <g id="patch_16">
    <path d="M 90.66255 22.318125 
L 447.78255 22.318125 
" style="fill: none; stroke: #000000; stroke-width: 0.8; stroke-linejoin: miter; stroke-linecap: square"/>
   </g>
   <g id="text_21">
    <!-- 10 countries with most cases in North America -->
    <g transform="translate(111.404737 16.318125)scale(0.12 -0.12)">
     <defs>
      <path id="Verdana-Bold-31" d="M 3938 0 
L 831 0 
L 831 813 
L 1813 813 
L 1813 3272 
L 831 3272 
L 831 4031 
Q 1056 4031 1262 4057 
Q 1469 4084 1606 4150 
Q 1769 4228 1850 4353 
Q 1931 4478 1944 4666 
L 2978 4666 
L 2978 813 
L 3938 813 
L 3938 0 
z
" transform="scale(0.015625)"/>
      <path id="Verdana-Bold-30" d="M 4200 2328 
Q 4200 1741 4094 1277 
Q 3988 813 3763 516 
Q 3531 213 3168 58 
Q 2806 -97 2275 -97 
Q 1753 -97 1384 59 
Q 1016 216 788 522 
Q 556 828 453 1283 
Q 350 1738 350 2325 
Q 350 2931 456 3378 
Q 563 3825 794 4134 
Q 1025 4441 1394 4594 
Q 1763 4747 2275 4747 
Q 2809 4747 3171 4589 
Q 3534 4431 3766 4119 
Q 3994 3813 4097 3364 
Q 4200 2916 4200 2328 
z
M 2991 2328 
Q 2991 3172 2825 3530 
Q 2659 3888 2275 3888 
Q 1891 3888 1725 3530 
Q 1559 3172 1559 2322 
Q 1559 1494 1728 1128 
Q 1897 763 2275 763 
Q 2653 763 2822 1128 
Q 2991 1494 2991 2328 
z
" transform="scale(0.015625)"/>
      <path id="Verdana-Bold-20" transform="scale(0.015625)"/>
      <path id="Verdana-Bold-63" d="M 2359 -94 
Q 1900 -94 1520 15 
Q 1141 125 859 353 
Q 581 581 428 928 
Q 275 1275 275 1741 
Q 275 2231 439 2587 
Q 603 2944 897 3178 
Q 1181 3400 1553 3503 
Q 1925 3606 2325 3606 
Q 2684 3606 2987 3528 
Q 3291 3450 3553 3325 
L 3553 2366 
L 3394 2366 
Q 3328 2422 3236 2497 
Q 3144 2572 3009 2644 
Q 2881 2713 2728 2758 
Q 2575 2803 2372 2803 
Q 1922 2803 1680 2517 
Q 1438 2231 1438 1741 
Q 1438 1234 1686 971 
Q 1934 709 2391 709 
Q 2603 709 2773 757 
Q 2944 806 3056 872 
Q 3163 934 3244 1003 
Q 3325 1072 3394 1138 
L 3553 1138 
L 3553 178 
Q 3288 53 2998 -20 
Q 2709 -94 2359 -94 
z
" transform="scale(0.015625)"/>
      <path id="Verdana-Bold-6f" d="M 4119 1753 
Q 4119 888 3614 389 
Q 3109 -109 2197 -109 
Q 1284 -109 779 389 
Q 275 888 275 1753 
Q 275 2625 783 3122 
Q 1291 3619 2197 3619 
Q 3116 3619 3617 3119 
Q 4119 2619 4119 1753 
z
M 2734 900 
Q 2844 1034 2898 1223 
Q 2953 1413 2953 1747 
Q 2953 2056 2897 2265 
Q 2841 2475 2741 2600 
Q 2641 2728 2500 2781 
Q 2359 2834 2197 2834 
Q 2034 2834 1907 2790 
Q 1781 2747 1666 2616 
Q 1563 2494 1502 2281 
Q 1441 2069 1441 1747 
Q 1441 1459 1494 1248 
Q 1547 1038 1650 909 
Q 1750 788 1889 731 
Q 2028 675 2206 675 
Q 2359 675 2498 726 
Q 2638 778 2734 900 
z
" transform="scale(0.015625)"/>
      <path id="Verdana-Bold-75" d="M 4028 0 
L 2903 0 
L 2903 388 
Q 2591 150 2331 26 
Q 2072 -97 1713 -97 
Q 1131 -97 817 237 
Q 503 572 503 1225 
L 503 3509 
L 1634 3509 
L 1634 1769 
Q 1634 1503 1651 1326 
Q 1669 1150 1731 1034 
Q 1791 919 1911 866 
Q 2031 813 2247 813 
Q 2391 813 2566 866 
Q 2741 919 2903 1022 
L 2903 3509 
L 4028 3509 
L 4028 0 
z
" transform="scale(0.015625)"/>
      <path id="Verdana-Bold-6e" d="M 4056 0 
L 2925 0 
L 2925 1741 
Q 2925 1953 2903 2164 
Q 2881 2375 2828 2475 
Q 2766 2591 2645 2644 
Q 2525 2697 2309 2697 
Q 2156 2697 1998 2647 
Q 1841 2597 1656 2488 
L 1656 0 
L 531 0 
L 531 3509 
L 1656 3509 
L 1656 3122 
Q 1956 3356 2232 3481 
Q 2509 3606 2847 3606 
Q 3416 3606 3736 3275 
Q 4056 2944 4056 2284 
L 4056 0 
z
" transform="scale(0.015625)"/>
      <path id="Verdana-Bold-74" d="M 2775 31 
Q 2594 -16 2391 -42 
Q 2188 -69 1894 -69 
Q 1238 -69 917 197 
Q 597 463 597 1106 
L 597 2747 
L 134 2747 
L 134 3509 
L 597 3509 
L 597 4513 
L 1722 4513 
L 1722 3509 
L 2775 3509 
L 2775 2747 
L 1722 2747 
L 1722 1503 
Q 1722 1319 1725 1181 
Q 1728 1044 1775 934 
Q 1819 825 1930 761 
Q 2041 697 2253 697 
Q 2341 697 2483 734 
Q 2625 772 2681 803 
L 2775 803 
L 2775 31 
z
" transform="scale(0.015625)"/>
      <path id="Verdana-Bold-72" d="M 3075 2438 
L 2975 2438 
Q 2903 2463 2743 2475 
Q 2584 2488 2478 2488 
Q 2238 2488 2053 2456 
Q 1869 2425 1656 2350 
L 1656 0 
L 531 0 
L 531 3509 
L 1656 3509 
L 1656 2994 
Q 2028 3313 2303 3417 
Q 2578 3522 2809 3522 
Q 2869 3522 2944 3519 
Q 3019 3516 3075 3509 
L 3075 2438 
z
" transform="scale(0.015625)"/>
      <path id="Verdana-Bold-69" d="M 1656 0 
L 531 0 
L 531 3509 
L 1656 3509 
L 1656 0 
z
M 1688 4009 
L 500 4009 
L 500 4863 
L 1688 4863 
L 1688 4009 
z
" transform="scale(0.015625)"/>
      <path id="Verdana-Bold-65" d="M 3988 1547 
L 1413 1547 
Q 1438 1134 1727 915 
Q 2016 697 2578 697 
Q 2934 697 3268 825 
Q 3603 953 3797 1100 
L 3922 1100 
L 3922 197 
Q 3541 44 3203 -25 
Q 2866 -94 2456 -94 
Q 1400 -94 837 381 
Q 275 856 275 1734 
Q 275 2603 808 3111 
Q 1341 3619 2269 3619 
Q 3125 3619 3556 3186 
Q 3988 2753 3988 1941 
L 3988 1547 
z
M 2869 2206 
Q 2859 2559 2693 2737 
Q 2528 2916 2178 2916 
Q 1853 2916 1643 2747 
Q 1434 2578 1409 2206 
L 2869 2206 
z
" transform="scale(0.015625)"/>
      <path id="Verdana-Bold-73" d="M 3581 1113 
Q 3581 569 3093 236 
Q 2606 -97 1759 -97 
Q 1291 -97 909 -9 
Q 528 78 297 184 
L 297 1109 
L 400 1109 
Q 484 1050 595 979 
Q 706 909 909 828 
Q 1084 756 1306 704 
Q 1528 653 1781 653 
Q 2113 653 2272 726 
Q 2431 800 2431 944 
Q 2431 1072 2337 1130 
Q 2244 1188 1981 1241 
Q 1856 1269 1642 1301 
Q 1428 1334 1253 1381 
Q 775 1506 544 1770 
Q 313 2034 313 2428 
Q 313 2934 792 3270 
Q 1272 3606 2103 3606 
Q 2497 3606 2858 3526 
Q 3219 3447 3422 3356 
L 3422 2469 
L 3325 2469 
Q 3075 2641 2754 2748 
Q 2434 2856 2106 2856 
Q 1834 2856 1648 2781 
Q 1463 2706 1463 2569 
Q 1463 2444 1547 2378 
Q 1631 2313 1944 2247 
Q 2116 2213 2314 2180 
Q 2513 2147 2713 2097 
Q 3156 1981 3368 1732 
Q 3581 1484 3581 1113 
z
" transform="scale(0.015625)"/>
      <path id="Verdana-Bold-77" d="M 6128 3509 
L 5041 0 
L 3847 0 
L 3131 2366 
L 2428 0 
L 1219 0 
L 141 3509 
L 1322 3509 
L 1922 1091 
L 2672 3509 
L 3669 3509 
L 4381 1091 
L 4972 3509 
L 6128 3509 
z
" transform="scale(0.015625)"/>
      <path id="Verdana-Bold-68" d="M 4056 0 
L 2925 0 
L 2925 1741 
Q 2925 1953 2903 2164 
Q 2881 2375 2828 2475 
Q 2766 2591 2645 2644 
Q 2525 2697 2309 2697 
Q 2156 2697 1998 2647 
Q 1841 2597 1656 2488 
L 1656 0 
L 531 0 
L 531 4863 
L 1656 4863 
L 1656 3122 
Q 1956 3356 2232 3481 
Q 2509 3606 2847 3606 
Q 3416 3606 3736 3275 
Q 4056 2944 4056 2284 
L 4056 0 
z
" transform="scale(0.015625)"/>
      <path id="Verdana-Bold-6d" d="M 3963 2488 
L 3963 0 
L 2831 0 
L 2831 1753 
Q 2831 2009 2818 2189 
Q 2806 2369 2750 2481 
Q 2694 2594 2580 2645 
Q 2466 2697 2259 2697 
Q 2094 2697 1937 2630 
Q 1781 2563 1656 2488 
L 1656 0 
L 531 0 
L 531 3509 
L 1656 3509 
L 1656 3122 
Q 1947 3350 2212 3478 
Q 2478 3606 2800 3606 
Q 3147 3606 3412 3451 
Q 3678 3297 3828 2997 
Q 4166 3281 4484 3443 
Q 4803 3606 5109 3606 
Q 5678 3606 5973 3265 
Q 6269 2925 6269 2284 
L 6269 0 
L 5138 0 
L 5138 1753 
Q 5138 2013 5127 2191 
Q 5116 2369 5059 2481 
Q 5006 2594 4890 2645 
Q 4775 2697 4566 2697 
Q 4425 2697 4290 2648 
Q 4156 2600 3963 2488 
z
" transform="scale(0.015625)"/>
      <path id="Verdana-Bold-61" d="M 2656 916 
L 2656 1647 
Q 2428 1628 2162 1595 
Q 1897 1563 1759 1519 
Q 1591 1466 1502 1364 
Q 1413 1263 1413 1097 
Q 1413 988 1431 919 
Q 1450 850 1525 788 
Q 1597 725 1697 695 
Q 1797 666 2009 666 
Q 2178 666 2351 734 
Q 2525 803 2656 916 
z
M 2656 372 
Q 2566 303 2431 206 
Q 2297 109 2178 53 
Q 2013 -22 1834 -58 
Q 1656 -94 1444 -94 
Q 944 -94 606 215 
Q 269 525 269 1006 
Q 269 1391 441 1634 
Q 613 1878 928 2019 
Q 1241 2159 1703 2218 
Q 2166 2278 2663 2306 
L 2663 2325 
Q 2663 2616 2425 2727 
Q 2188 2838 1725 2838 
Q 1447 2838 1131 2739 
Q 816 2641 678 2588 
L 575 2588 
L 575 3434 
Q 753 3481 1154 3545 
Q 1556 3609 1959 3609 
Q 2919 3609 3345 3314 
Q 3772 3019 3772 2388 
L 3772 0 
L 2656 0 
L 2656 372 
z
" transform="scale(0.015625)"/>
      <path id="Verdana-Bold-4e" d="M 4825 0 
L 3669 0 
L 1694 3194 
L 1694 0 
L 594 0 
L 594 4653 
L 2028 4653 
L 3725 1988 
L 3725 4653 
L 4825 4653 
L 4825 0 
z
" transform="scale(0.015625)"/>
      <path id="Verdana-Bold-41" d="M 4894 0 
L 3653 0 
L 3331 941 
L 1606 941 
L 1284 0 
L 75 0 
L 1794 4653 
L 3175 4653 
L 4894 0 
z
M 3041 1794 
L 2469 3463 
L 1897 1794 
L 3041 1794 
z
" transform="scale(0.015625)"/>
     </defs>
     <use xlink:href="#Verdana-Bold-31"/>
     <use xlink:href="#Verdana-Bold-30" x="71.09375"/>
     <use xlink:href="#Verdana-Bold-20" x="142.1875"/>
     <use xlink:href="#Verdana-Bold-63" x="176.367188"/>
     <use xlink:href="#Verdana-Bold-6f" x="235.205078"/>
     <use xlink:href="#Verdana-Bold-75" x="303.857422"/>
     <use xlink:href="#Verdana-Bold-6e" x="375.097656"/>
     <use xlink:href="#Verdana-Bold-74" x="446.337891"/>
     <use xlink:href="#Verdana-Bold-72" x="491.894531"/>
     <use xlink:href="#Verdana-Bold-69" x="541.601562"/>
     <use xlink:href="#Verdana-Bold-65" x="575.78125"/>
     <use xlink:href="#Verdana-Bold-73" x="642.1875"/>
     <use xlink:href="#Verdana-Bold-20" x="701.513672"/>
     <use xlink:href="#Verdana-Bold-77" x="735.693359"/>
     <use xlink:href="#Verdana-Bold-69" x="833.642578"/>
     <use xlink:href="#Verdana-Bold-74" x="867.822266"/>
     <use xlink:href="#Verdana-Bold-68" x="913.378906"/>
     <use xlink:href="#Verdana-Bold-20" x="984.619141"/>
     <use xlink:href="#Verdana-Bold-6d" x="1018.798828"/>
     <use xlink:href="#Verdana-Bold-6f" x="1124.609375"/>
     <use xlink:href="#Verdana-Bold-73" x="1193.261719"/>
     <use xlink:href="#Verdana-Bold-74" x="1252.587891"/>
     <use xlink:href="#Verdana-Bold-20" x="1298.144531"/>
     <use xlink:href="#Verdana-Bold-63" x="1332.324219"/>
     <use xlink:href="#Verdana-Bold-61" x="1391.162109"/>
     <use xlink:href="#Verdana-Bold-73" x="1457.958984"/>
     <use xlink:href="#Verdana-Bold-65" x="1517.285156"/>
     <use xlink:href="#Verdana-Bold-73" x="1583.691406"/>
     <use xlink:href="#Verdana-Bold-20" x="1643.017578"/>
     <use xlink:href="#Verdana-Bold-69" x="1677.197266"/>
     <use xlink:href="#Verdana-Bold-6e" x="1711.376953"/>
     <use xlink:href="#Verdana-Bold-20" x="1782.617188"/>
     <use xlink:href="#Verdana-Bold-4e" x="1816.796875"/>
     <use xlink:href="#Verdana-Bold-6f" x="1901.464844"/>
     <use xlink:href="#Verdana-Bold-72" x="1970.117188"/>
     <use xlink:href="#Verdana-Bold-74" x="2019.824219"/>
     <use xlink:href="#Verdana-Bold-68" x="2065.380859"/>
     <use xlink:href="#Verdana-Bold-20" x="2136.621094"/>
     <use xlink:href="#Verdana-Bold-41" x="2170.800781"/>
     <use xlink:href="#Verdana-Bold-6d" x="2248.4375"/>
     <use xlink:href="#Verdana-Bold-65" x="2354.248047"/>
     <use xlink:href="#Verdana-Bold-72" x="2420.654297"/>
     <use xlink:href="#Verdana-Bold-69" x="2470.361328"/>
     <use xlink:href="#Verdana-Bold-63" x="2504.541016"/>
     <use xlink:href="#Verdana-Bold-61" x="2563.378906"/>
    </g>
   </g>
  </g>
 </g>
 <defs>
  <clipPath id="p7597bb6fd7">
   <rect x="90.66255" y="22.318125" width="357.12" height="266.112"/>
  </clipPath>
 </defs>
</svg>
