<?xml version="1.0" encoding="utf-8" standalone="no"?>
<!DOCTYPE svg PUBLIC "-//W3C//DTD SVG 1.1//EN"
  "http://www.w3.org/Graphics/SVG/1.1/DTD/svg11.dtd">
<svg xmlns:xlink="http://www.w3.org/1999/xlink" width="517.132575pt" height="295.630125pt" viewBox="0 0 517.132575 295.630125" xmlns="http://www.w3.org/2000/svg" version="1.1">
 <metadata>
  <rdf:RDF xmlns:dc="http://purl.org/dc/elements/1.1/" xmlns:cc="http://creativecommons.org/ns#" xmlns:rdf="http://www.w3.org/1999/02/22-rdf-syntax-ns#">
   <cc:Work>
    <dc:type rdf:resource="http://purl.org/dc/dcmitype/StillImage"/>
    <dc:date>2022-02-22T20:51:58.714605</dc:date>
    <dc:format>image/svg+xml</dc:format>
    <dc:creator>
     <cc:Agent>
      <dc:title>Matplotlib v3.5.0, https://matplotlib.org/</dc:title>
     </cc:Agent>
    </dc:creator>
   </cc:Work>
  </rdf:RDF>
 </metadata>
 <defs>
  <style type="text/css">*{stroke-linejoin: round; stroke-linecap: butt}</style>
 </defs>
 <g id="figure_1">
  <g id="patch_1">
   <path d="M 0 295.630125 
L 517.132575 295.630125 
L 517.132575 0 
L 0 0 
L 0 295.630125 
z
" style="fill: none"/>
  </g>
  <g id="axes_1">
   <g id="patch_2">
    <path d="M 376.876575 27.640365 
C 348.763155 27.640365 321.421066 36.921753 299.11719 54.036119 
C 276.813314 71.150484 260.771528 95.158713 253.495238 122.314191 
C 246.218949 149.46967 248.107427 178.282299 258.865966 204.255713 
C 269.624505 230.229127 288.662753 251.93809 313.009688 265.994802 
L 376.876575 155.374125 
L 376.876575 27.640365 
z
" style="fill: #c79fef"/>
   </g>
   <g id="patch_3">
    <path d="M 313.009688 265.994802 
C 337.356623 280.051514 365.67626 285.684642 393.549166 282.015106 
C 421.422073 278.345571 447.318782 265.57473 467.197974 245.695541 
L 376.876575 155.374125 
L 313.009688 265.994802 
z
" style="fill: #800000"/>
   </g>
   <g id="patch_4">
    <path d="M 467.197974 245.695541 
C 485.059725 227.833794 497.227917 205.068714 502.155964 180.293757 
C 507.084012 155.5188 504.553893 129.830043 494.887186 106.492542 
C 485.220479 83.155042 468.844853 63.20128 447.84166 49.167392 
C 426.838467 35.133504 402.136914 27.640367 376.876587 27.640365 
L 376.876575 155.374125 
L 467.197974 245.695541 
z
" style="fill: #40e0d0"/>
   </g>
   <g id="matplotlib.axis_1"/>
   <g id="matplotlib.axis_2"/>
   <g id="text_1">
    <!-- SG 21 Feb Cases -->
    <g transform="translate(321.526575 16.318125)scale(0.12 -0.12)">
     <defs>
      <path id="Verdana-Bold-53" d="M 4319 1463 
Q 4319 775 3736 345 
Q 3153 -84 2153 -84 
Q 1575 -84 1145 17 
Q 716 119 341 275 
L 341 1391 
L 472 1391 
Q 844 1094 1305 934 
Q 1766 775 2191 775 
Q 2300 775 2478 794 
Q 2656 813 2769 856 
Q 2906 913 2995 997 
Q 3084 1081 3084 1247 
Q 3084 1400 2954 1511 
Q 2825 1622 2575 1681 
Q 2313 1744 2020 1798 
Q 1728 1853 1472 1938 
Q 884 2128 626 2454 
Q 369 2781 369 3266 
Q 369 3916 951 4327 
Q 1534 4738 2450 4738 
Q 2909 4738 3357 4648 
Q 3806 4559 4134 4425 
L 4134 3353 
L 4006 3353 
Q 3725 3578 3317 3729 
Q 2909 3881 2484 3881 
Q 2334 3881 2186 3861 
Q 2038 3841 1900 3784 
Q 1778 3738 1690 3642 
Q 1603 3547 1603 3425 
Q 1603 3241 1743 3142 
Q 1884 3044 2275 2963 
Q 2531 2909 2767 2859 
Q 3003 2809 3275 2722 
Q 3809 2547 4064 2245 
Q 4319 1944 4319 1463 
z
" transform="scale(0.015625)"/>
      <path id="Verdana-Bold-47" d="M 4709 266 
Q 4397 144 3881 23 
Q 3366 -97 2853 -97 
Q 1666 -97 994 548 
Q 322 1194 322 2331 
Q 322 3416 1000 4080 
Q 1678 4744 2891 4744 
Q 3350 4744 3765 4661 
Q 4181 4578 4691 4331 
L 4691 3241 
L 4556 3241 
Q 4469 3306 4300 3426 
Q 4131 3547 3975 3631 
Q 3794 3731 3551 3803 
Q 3309 3875 3038 3875 
Q 2719 3875 2459 3781 
Q 2200 3688 1994 3494 
Q 1797 3306 1683 3017 
Q 1569 2728 1569 2350 
Q 1569 1578 1978 1168 
Q 2388 759 3188 759 
Q 3256 759 3339 762 
Q 3422 766 3491 772 
L 3491 1684 
L 2563 1684 
L 2563 2563 
L 4709 2563 
L 4709 266 
z
" transform="scale(0.015625)"/>
      <path id="Verdana-Bold-20" transform="scale(0.015625)"/>
      <path id="Verdana-Bold-32" d="M 4231 0 
L 578 0 
L 578 769 
Q 997 1072 1417 1412 
Q 1838 1753 2091 2000 
Q 2469 2366 2628 2637 
Q 2788 2909 2788 3175 
Q 2788 3494 2583 3667 
Q 2378 3841 1994 3841 
Q 1706 3841 1389 3722 
Q 1072 3603 800 3419 
L 700 3419 
L 700 4453 
Q 922 4550 1355 4647 
Q 1788 4744 2222 4744 
Q 3097 4744 3556 4376 
Q 4016 4009 4016 3338 
Q 4016 2897 3795 2500 
Q 3575 2103 3122 1681 
Q 2838 1419 2550 1198 
Q 2263 978 2141 891 
L 4231 891 
L 4231 0 
z
" transform="scale(0.015625)"/>
      <path id="Verdana-Bold-31" d="M 3938 0 
L 831 0 
L 831 813 
L 1813 813 
L 1813 3272 
L 831 3272 
L 831 4031 
Q 1056 4031 1262 4057 
Q 1469 4084 1606 4150 
Q 1769 4228 1850 4353 
Q 1931 4478 1944 4666 
L 2978 4666 
L 2978 813 
L 3938 813 
L 3938 0 
z
" transform="scale(0.015625)"/>
      <path id="Verdana-Bold-46" d="M 3928 3753 
L 1788 3753 
L 1788 2888 
L 3772 2888 
L 3772 1988 
L 1788 1988 
L 1788 0 
L 594 0 
L 594 4653 
L 3928 4653 
L 3928 3753 
z
" transform="scale(0.015625)"/>
      <path id="Verdana-Bold-65" d="M 3988 1547 
L 1413 1547 
Q 1438 1134 1727 915 
Q 2016 697 2578 697 
Q 2934 697 3268 825 
Q 3603 953 3797 1100 
L 3922 1100 
L 3922 197 
Q 3541 44 3203 -25 
Q 2866 -94 2456 -94 
Q 1400 -94 837 381 
Q 275 856 275 1734 
Q 275 2603 808 3111 
Q 1341 3619 2269 3619 
Q 3125 3619 3556 3186 
Q 3988 2753 3988 1941 
L 3988 1547 
z
M 2869 2206 
Q 2859 2559 2693 2737 
Q 2528 2916 2178 2916 
Q 1853 2916 1643 2747 
Q 1434 2578 1409 2206 
L 2869 2206 
z
" transform="scale(0.015625)"/>
      <path id="Verdana-Bold-62" d="M 4194 1803 
Q 4194 975 3736 453 
Q 3278 -69 2594 -69 
Q 2300 -69 2078 -6 
Q 1856 56 1656 175 
L 1609 0 
L 531 0 
L 531 4863 
L 1656 4863 
L 1656 3144 
Q 1916 3350 2186 3478 
Q 2456 3606 2809 3606 
Q 3475 3606 3834 3126 
Q 4194 2647 4194 1803 
z
M 3034 1781 
Q 3034 2250 2875 2503 
Q 2716 2756 2306 2756 
Q 2147 2756 1978 2707 
Q 1809 2659 1656 2569 
L 1656 806 
Q 1778 763 1887 747 
Q 1997 731 2150 731 
Q 2597 731 2815 993 
Q 3034 1256 3034 1781 
z
" transform="scale(0.015625)"/>
      <path id="Verdana-Bold-43" d="M 2697 -91 
Q 2178 -91 1739 62 
Q 1300 216 984 519 
Q 669 822 495 1275 
Q 322 1728 322 2322 
Q 322 2875 487 3325 
Q 653 3775 969 4097 
Q 1272 4406 1720 4575 
Q 2169 4744 2700 4744 
Q 2994 4744 3230 4711 
Q 3466 4678 3666 4625 
Q 3875 4566 4045 4492 
Q 4216 4419 4344 4356 
L 4344 3228 
L 4206 3228 
Q 4119 3303 3986 3406 
Q 3853 3509 3684 3609 
Q 3513 3709 3313 3778 
Q 3113 3847 2884 3847 
Q 2631 3847 2403 3767 
Q 2175 3688 1981 3503 
Q 1797 3325 1683 3031 
Q 1569 2738 1569 2319 
Q 1569 1881 1692 1587 
Q 1816 1294 2003 1125 
Q 2194 953 2428 879 
Q 2663 806 2891 806 
Q 3109 806 3323 872 
Q 3538 938 3719 1050 
Q 3872 1141 4003 1244 
Q 4134 1347 4219 1422 
L 4344 1422 
L 4344 309 
Q 4169 231 4009 162 
Q 3850 94 3675 44 
Q 3447 -22 3247 -56 
Q 3047 -91 2697 -91 
z
" transform="scale(0.015625)"/>
      <path id="Verdana-Bold-61" d="M 2656 916 
L 2656 1647 
Q 2428 1628 2162 1595 
Q 1897 1563 1759 1519 
Q 1591 1466 1502 1364 
Q 1413 1263 1413 1097 
Q 1413 988 1431 919 
Q 1450 850 1525 788 
Q 1597 725 1697 695 
Q 1797 666 2009 666 
Q 2178 666 2351 734 
Q 2525 803 2656 916 
z
M 2656 372 
Q 2566 303 2431 206 
Q 2297 109 2178 53 
Q 2013 -22 1834 -58 
Q 1656 -94 1444 -94 
Q 944 -94 606 215 
Q 269 525 269 1006 
Q 269 1391 441 1634 
Q 613 1878 928 2019 
Q 1241 2159 1703 2218 
Q 2166 2278 2663 2306 
L 2663 2325 
Q 2663 2616 2425 2727 
Q 2188 2838 1725 2838 
Q 1447 2838 1131 2739 
Q 816 2641 678 2588 
L 575 2588 
L 575 3434 
Q 753 3481 1154 3545 
Q 1556 3609 1959 3609 
Q 2919 3609 3345 3314 
Q 3772 3019 3772 2388 
L 3772 0 
L 2656 0 
L 2656 372 
z
" transform="scale(0.015625)"/>
      <path id="Verdana-Bold-73" d="M 3581 1113 
Q 3581 569 3093 236 
Q 2606 -97 1759 -97 
Q 1291 -97 909 -9 
Q 528 78 297 184 
L 297 1109 
L 400 1109 
Q 484 1050 595 979 
Q 706 909 909 828 
Q 1084 756 1306 704 
Q 1528 653 1781 653 
Q 2113 653 2272 726 
Q 2431 800 2431 944 
Q 2431 1072 2337 1130 
Q 2244 1188 1981 1241 
Q 1856 1269 1642 1301 
Q 1428 1334 1253 1381 
Q 775 1506 544 1770 
Q 313 2034 313 2428 
Q 313 2934 792 3270 
Q 1272 3606 2103 3606 
Q 2497 3606 2858 3526 
Q 3219 3447 3422 3356 
L 3422 2469 
L 3325 2469 
Q 3075 2641 2754 2748 
Q 2434 2856 2106 2856 
Q 1834 2856 1648 2781 
Q 1463 2706 1463 2569 
Q 1463 2444 1547 2378 
Q 1631 2313 1944 2247 
Q 2116 2213 2314 2180 
Q 2513 2147 2713 2097 
Q 3156 1981 3368 1732 
Q 3581 1484 3581 1113 
z
" transform="scale(0.015625)"/>
     </defs>
     <use xlink:href="#Verdana-Bold-53"/>
     <use xlink:href="#Verdana-Bold-47" x="71.044922"/>
     <use xlink:href="#Verdana-Bold-20" x="152.148438"/>
     <use xlink:href="#Verdana-Bold-32" x="186.328125"/>
     <use xlink:href="#Verdana-Bold-31" x="257.421875"/>
     <use xlink:href="#Verdana-Bold-20" x="328.515625"/>
     <use xlink:href="#Verdana-Bold-46" x="362.695312"/>
     <use xlink:href="#Verdana-Bold-65" x="427.734375"/>
     <use xlink:href="#Verdana-Bold-62" x="494.140625"/>
     <use xlink:href="#Verdana-Bold-20" x="564.0625"/>
     <use xlink:href="#Verdana-Bold-43" x="598.242188"/>
     <use xlink:href="#Verdana-Bold-61" x="670.605469"/>
     <use xlink:href="#Verdana-Bold-73" x="737.402344"/>
     <use xlink:href="#Verdana-Bold-65" x="796.728516"/>
     <use xlink:href="#Verdana-Bold-73" x="863.134766"/>
    </g>
   </g>
   <g id="legend_1">
    <g id="patch_5">
     <path d="M 9.2 88.761875 
L 210.209375 88.761875 
Q 212.209375 88.761875 212.209375 86.761875 
L 212.209375 29.318125 
Q 212.209375 27.318125 210.209375 27.318125 
L 9.2 27.318125 
Q 7.2 27.318125 7.2 29.318125 
L 7.2 86.761875 
Q 7.2 88.761875 9.2 88.761875 
z
" style="fill: #ffffff; opacity: 0.8; stroke: #cccccc; stroke-linejoin: miter"/>
    </g>
    <g id="text_2">
     <!-- 21 Feb Total - - 24 Cases -->
     <g transform="translate(48.210156 38.916562)scale(0.1 -0.1)">
      <defs>
       <path id="Verdana-32" d="M 3653 0 
L 503 0 
L 503 653 
Q 831 934 1161 1215 
Q 1491 1497 1775 1775 
Q 2375 2356 2597 2698 
Q 2819 3041 2819 3438 
Q 2819 3800 2580 4004 
Q 2341 4209 1913 4209 
Q 1628 4209 1297 4109 
Q 966 4009 650 3803 
L 619 3803 
L 619 4459 
Q 841 4569 1211 4659 
Q 1581 4750 1928 4750 
Q 2644 4750 3050 4404 
Q 3456 4059 3456 3469 
Q 3456 3203 3389 2973 
Q 3322 2744 3191 2538 
Q 3069 2344 2905 2156 
Q 2741 1969 2506 1741 
Q 2172 1413 1815 1105 
Q 1459 797 1150 534 
L 3653 534 
L 3653 0 
z
" transform="scale(0.015625)"/>
       <path id="Verdana-31" d="M 3388 0 
L 869 0 
L 869 475 
L 1838 475 
L 1838 3594 
L 869 3594 
L 869 4019 
Q 1066 4019 1291 4051 
Q 1516 4084 1631 4147 
Q 1775 4225 1858 4345 
Q 1941 4466 1953 4669 
L 2438 4669 
L 2438 475 
L 3388 475 
L 3388 0 
z
" transform="scale(0.015625)"/>
       <path id="Verdana-20" transform="scale(0.015625)"/>
       <path id="Verdana-46" d="M 3597 4103 
L 1244 4103 
L 1244 2791 
L 3266 2791 
L 3266 2241 
L 1244 2241 
L 1244 0 
L 625 0 
L 625 4653 
L 3597 4653 
L 3597 4103 
z
" transform="scale(0.015625)"/>
       <path id="Verdana-65" d="M 3500 1684 
L 928 1684 
Q 928 1363 1025 1123 
Q 1122 884 1291 731 
Q 1453 581 1676 506 
Q 1900 431 2169 431 
Q 2525 431 2886 573 
Q 3247 716 3400 853 
L 3431 853 
L 3431 213 
Q 3134 88 2825 3 
Q 2516 -81 2175 -81 
Q 1306 -81 818 389 
Q 331 859 331 1725 
Q 331 2581 798 3084 
Q 1266 3588 2028 3588 
Q 2734 3588 3117 3175 
Q 3500 2763 3500 2003 
L 3500 1684 
z
M 2928 2134 
Q 2925 2597 2695 2850 
Q 2466 3103 1997 3103 
Q 1525 3103 1245 2825 
Q 966 2547 928 2134 
L 2928 2134 
z
" transform="scale(0.015625)"/>
       <path id="Verdana-62" d="M 3650 1772 
Q 3650 1334 3526 984 
Q 3403 634 3194 397 
Q 2972 150 2706 26 
Q 2441 -97 2122 -97 
Q 1825 -97 1603 -26 
Q 1381 44 1166 163 
L 1128 0 
L 578 0 
L 578 4863 
L 1166 4863 
L 1166 3125 
Q 1413 3328 1691 3458 
Q 1969 3588 2316 3588 
Q 2934 3588 3292 3113 
Q 3650 2638 3650 1772 
z
M 3044 1756 
Q 3044 2381 2837 2704 
Q 2631 3028 2172 3028 
Q 1916 3028 1653 2917 
Q 1391 2806 1166 2631 
L 1166 631 
Q 1416 519 1595 475 
Q 1775 431 2003 431 
Q 2491 431 2767 751 
Q 3044 1072 3044 1756 
z
" transform="scale(0.015625)"/>
       <path id="Verdana-54" d="M 3944 4103 
L 2281 4103 
L 2281 0 
L 1663 0 
L 1663 4103 
L 0 4103 
L 0 4653 
L 3944 4653 
L 3944 4103 
z
" transform="scale(0.015625)"/>
       <path id="Verdana-6f" d="M 3553 1744 
Q 3553 891 3115 397 
Q 2678 -97 1944 -97 
Q 1203 -97 767 397 
Q 331 891 331 1744 
Q 331 2597 767 3092 
Q 1203 3588 1944 3588 
Q 2678 3588 3115 3092 
Q 3553 2597 3553 1744 
z
M 2947 1744 
Q 2947 2422 2681 2751 
Q 2416 3081 1944 3081 
Q 1466 3081 1202 2751 
Q 938 2422 938 1744 
Q 938 1088 1203 748 
Q 1469 409 1944 409 
Q 2413 409 2680 745 
Q 2947 1081 2947 1744 
z
" transform="scale(0.015625)"/>
       <path id="Verdana-74" d="M 2391 31 
Q 2225 -13 2029 -41 
Q 1834 -69 1681 -69 
Q 1147 -69 869 218 
Q 591 506 591 1141 
L 591 2997 
L 194 2997 
L 194 3491 
L 591 3491 
L 591 4494 
L 1178 4494 
L 1178 3491 
L 2391 3491 
L 2391 2997 
L 1178 2997 
L 1178 1406 
Q 1178 1131 1190 976 
Q 1203 822 1278 688 
Q 1347 563 1467 505 
Q 1588 447 1834 447 
Q 1978 447 2134 489 
Q 2291 531 2359 559 
L 2391 559 
L 2391 31 
z
" transform="scale(0.015625)"/>
       <path id="Verdana-61" d="M 3291 0 
L 2706 0 
L 2706 372 
Q 2628 319 2495 223 
Q 2363 128 2238 72 
Q 2091 0 1900 -48 
Q 1709 -97 1453 -97 
Q 981 -97 653 215 
Q 325 528 325 1013 
Q 325 1409 495 1654 
Q 666 1900 981 2041 
Q 1300 2181 1747 2231 
Q 2194 2281 2706 2306 
L 2706 2397 
Q 2706 2597 2636 2728 
Q 2566 2859 2434 2934 
Q 2309 3006 2134 3031 
Q 1959 3056 1769 3056 
Q 1538 3056 1253 2995 
Q 969 2934 666 2819 
L 634 2819 
L 634 3416 
Q 806 3463 1131 3519 
Q 1456 3575 1772 3575 
Q 2141 3575 2414 3514 
Q 2688 3453 2888 3306 
Q 3084 3163 3187 2934 
Q 3291 2706 3291 2369 
L 3291 0 
z
M 2706 859 
L 2706 1831 
Q 2438 1816 2073 1784 
Q 1709 1753 1497 1694 
Q 1244 1622 1087 1470 
Q 931 1319 931 1053 
Q 931 753 1112 601 
Q 1294 450 1666 450 
Q 1975 450 2231 570 
Q 2488 691 2706 859 
z
" transform="scale(0.015625)"/>
       <path id="Verdana-6c" d="M 1172 0 
L 584 0 
L 584 4863 
L 1172 4863 
L 1172 0 
z
" transform="scale(0.015625)"/>
       <path id="Verdana-2d" d="M 2428 1753 
L 478 1753 
L 478 2319 
L 2428 2319 
L 2428 1753 
z
" transform="scale(0.015625)"/>
       <path id="Verdana-34" d="M 3759 1309 
L 3069 1309 
L 3069 0 
L 2469 0 
L 2469 1309 
L 241 1309 
L 241 2028 
L 2494 4653 
L 3069 4653 
L 3069 1809 
L 3759 1809 
L 3759 1309 
z
M 2469 1809 
L 2469 3909 
L 666 1809 
L 2469 1809 
z
" transform="scale(0.015625)"/>
       <path id="Verdana-43" d="M 4219 338 
Q 4047 263 3908 197 
Q 3769 131 3544 59 
Q 3353 0 3129 -42 
Q 2906 -84 2638 -84 
Q 2131 -84 1717 58 
Q 1303 200 997 503 
Q 697 800 528 1258 
Q 359 1716 359 2322 
Q 359 2897 521 3350 
Q 684 3803 991 4116 
Q 1288 4419 1708 4578 
Q 2128 4738 2641 4738 
Q 3016 4738 3389 4647 
Q 3763 4556 4219 4328 
L 4219 3594 
L 4172 3594 
Q 3788 3916 3409 4062 
Q 3031 4209 2600 4209 
Q 2247 4209 1964 4095 
Q 1681 3981 1459 3741 
Q 1244 3506 1123 3148 
Q 1003 2791 1003 2322 
Q 1003 1831 1136 1478 
Q 1269 1125 1478 903 
Q 1697 672 1989 561 
Q 2281 450 2606 450 
Q 3053 450 3443 603 
Q 3834 756 4175 1063 
L 4219 1063 
L 4219 338 
z
" transform="scale(0.015625)"/>
       <path id="Verdana-73" d="M 3072 1006 
Q 3072 528 2676 222 
Q 2281 -84 1597 -84 
Q 1209 -84 886 8 
Q 563 100 344 209 
L 344 869 
L 375 869 
Q 653 659 993 536 
Q 1334 413 1647 413 
Q 2034 413 2253 538 
Q 2472 663 2472 931 
Q 2472 1138 2353 1244 
Q 2234 1350 1897 1425 
Q 1772 1453 1570 1490 
Q 1369 1528 1203 1572 
Q 744 1694 551 1930 
Q 359 2166 359 2509 
Q 359 2725 448 2915 
Q 538 3106 719 3256 
Q 894 3403 1164 3489 
Q 1434 3575 1769 3575 
Q 2081 3575 2401 3498 
Q 2722 3422 2934 3313 
L 2934 2684 
L 2903 2684 
Q 2678 2850 2356 2964 
Q 2034 3078 1725 3078 
Q 1403 3078 1181 2954 
Q 959 2831 959 2588 
Q 959 2372 1094 2263 
Q 1225 2153 1519 2084 
Q 1681 2047 1882 2009 
Q 2084 1972 2219 1941 
Q 2628 1847 2850 1619 
Q 3072 1388 3072 1006 
z
" transform="scale(0.015625)"/>
      </defs>
      <use xlink:href="#Verdana-32"/>
      <use xlink:href="#Verdana-31" x="63.574219"/>
      <use xlink:href="#Verdana-20" x="127.148438"/>
      <use xlink:href="#Verdana-46" x="162.304688"/>
      <use xlink:href="#Verdana-65" x="217.275391"/>
      <use xlink:href="#Verdana-62" x="276.845703"/>
      <use xlink:href="#Verdana-20" x="339.150391"/>
      <use xlink:href="#Verdana-54" x="374.306641"/>
      <use xlink:href="#Verdana-6f" x="425.177734"/>
      <use xlink:href="#Verdana-74" x="485.871094"/>
      <use xlink:href="#Verdana-61" x="525.275391"/>
      <use xlink:href="#Verdana-6c" x="585.333984"/>
      <use xlink:href="#Verdana-20" x="612.775391"/>
      <use xlink:href="#Verdana-2d" x="647.931641"/>
      <use xlink:href="#Verdana-2d" x="693.341797"/>
      <use xlink:href="#Verdana-20" x="738.751953"/>
      <use xlink:href="#Verdana-32" x="773.908203"/>
      <use xlink:href="#Verdana-34" x="837.482422"/>
      <use xlink:href="#Verdana-20" x="901.056641"/>
      <use xlink:href="#Verdana-43" x="936.212891"/>
      <use xlink:href="#Verdana-61" x="1006.037109"/>
      <use xlink:href="#Verdana-73" x="1066.095703"/>
      <use xlink:href="#Verdana-65" x="1118.195312"/>
      <use xlink:href="#Verdana-73" x="1177.765625"/>
     </g>
    </g>
    <g id="patch_6">
     <path d="M 11.2 53.5275 
L 31.2 53.5275 
L 31.2 46.5275 
L 11.2 46.5275 
z
" style="fill: #c79fef"/>
    </g>
    <g id="text_3">
     <!-- Dorm - - 41.67% - - 10 Cases -->
     <g transform="translate(39.2 53.5275)scale(0.1 -0.1)">
      <defs>
       <path id="Verdana-44" d="M 4556 2322 
Q 4556 1688 4279 1172 
Q 4003 656 3544 372 
Q 3225 175 2833 87 
Q 2441 0 1800 0 
L 625 0 
L 625 4653 
L 1788 4653 
Q 2469 4653 2870 4554 
Q 3272 4456 3550 4284 
Q 4025 3988 4290 3494 
Q 4556 3000 4556 2322 
z
M 3909 2331 
Q 3909 2878 3718 3253 
Q 3528 3628 3150 3844 
Q 2875 4000 2565 4061 
Q 2256 4122 1825 4122 
L 1244 4122 
L 1244 531 
L 1825 531 
Q 2272 531 2605 597 
Q 2938 663 3216 841 
Q 3563 1063 3736 1425 
Q 3909 1788 3909 2331 
z
" transform="scale(0.015625)"/>
       <path id="Verdana-72" d="M 2756 2850 
L 2725 2850 
Q 2594 2881 2470 2895 
Q 2347 2909 2178 2909 
Q 1906 2909 1653 2789 
Q 1400 2669 1166 2478 
L 1166 0 
L 578 0 
L 578 3491 
L 1166 3491 
L 1166 2975 
Q 1516 3256 1783 3373 
Q 2050 3491 2328 3491 
Q 2481 3491 2550 3483 
Q 2619 3475 2756 3453 
L 2756 2850 
z
" transform="scale(0.015625)"/>
       <path id="Verdana-6d" d="M 5672 0 
L 5084 0 
L 5084 1988 
Q 5084 2213 5064 2422 
Q 5044 2631 4978 2756 
Q 4906 2891 4772 2959 
Q 4638 3028 4384 3028 
Q 4138 3028 3891 2904 
Q 3644 2781 3397 2591 
Q 3406 2519 3412 2423 
Q 3419 2328 3419 2234 
L 3419 0 
L 2831 0 
L 2831 1988 
Q 2831 2219 2811 2426 
Q 2791 2634 2725 2759 
Q 2653 2894 2518 2961 
Q 2384 3028 2131 3028 
Q 1891 3028 1648 2909 
Q 1406 2791 1166 2606 
L 1166 0 
L 578 0 
L 578 3491 
L 1166 3491 
L 1166 3103 
Q 1441 3331 1714 3459 
Q 1988 3588 2297 3588 
Q 2653 3588 2901 3438 
Q 3150 3288 3272 3022 
Q 3628 3322 3922 3455 
Q 4216 3588 4550 3588 
Q 5125 3588 5398 3239 
Q 5672 2891 5672 2266 
L 5672 0 
z
" transform="scale(0.015625)"/>
       <path id="Verdana-2e" d="M 1538 0 
L 791 0 
L 791 891 
L 1538 891 
L 1538 0 
z
" transform="scale(0.015625)"/>
       <path id="Verdana-36" d="M 3722 1509 
Q 3722 800 3255 351 
Q 2788 -97 2109 -97 
Q 1766 -97 1484 9 
Q 1203 116 988 325 
Q 719 584 573 1012 
Q 428 1441 428 2044 
Q 428 2663 561 3141 
Q 694 3619 984 3991 
Q 1259 4344 1693 4542 
Q 2128 4741 2706 4741 
Q 2891 4741 3016 4725 
Q 3141 4709 3269 4669 
L 3269 4072 
L 3238 4072 
Q 3150 4119 2973 4161 
Q 2797 4203 2613 4203 
Q 1941 4203 1541 3783 
Q 1141 3363 1075 2647 
Q 1338 2806 1592 2889 
Q 1847 2972 2181 2972 
Q 2478 2972 2704 2917 
Q 2931 2863 3169 2697 
Q 3444 2506 3583 2215 
Q 3722 1925 3722 1509 
z
M 3088 1484 
Q 3088 1775 3002 1965 
Q 2916 2156 2719 2297 
Q 2575 2397 2400 2428 
Q 2225 2459 2034 2459 
Q 1769 2459 1541 2396 
Q 1313 2334 1072 2203 
Q 1066 2134 1062 2070 
Q 1059 2006 1059 1909 
Q 1059 1416 1161 1130 
Q 1263 844 1441 678 
Q 1584 541 1751 477 
Q 1919 413 2116 413 
Q 2569 413 2828 689 
Q 3088 966 3088 1484 
z
" transform="scale(0.015625)"/>
       <path id="Verdana-37" d="M 3666 3956 
L 1559 0 
L 891 0 
L 3131 4106 
L 481 4106 
L 481 4653 
L 3666 4653 
L 3666 3956 
z
" transform="scale(0.015625)"/>
       <path id="Verdana-25" d="M 2763 3363 
Q 2763 2663 2467 2322 
Q 2172 1981 1616 1981 
Q 1047 1981 756 2322 
Q 466 2663 466 3359 
Q 466 4059 762 4400 
Q 1059 4741 1616 4741 
Q 2181 4741 2472 4397 
Q 2763 4053 2763 3363 
z
M 4922 4653 
L 2484 0 
L 1969 0 
L 4406 4653 
L 4922 4653 
z
M 6422 1291 
Q 6422 591 6125 250 
Q 5828 -91 5272 -91 
Q 4706 -91 4415 253 
Q 4125 597 4125 1288 
Q 4125 1988 4420 2328 
Q 4716 2669 5272 2669 
Q 5841 2669 6131 2328 
Q 6422 1988 6422 1291 
z
M 2206 3363 
Q 2206 3900 2067 4112 
Q 1928 4325 1616 4325 
Q 1297 4325 1159 4112 
Q 1022 3900 1022 3359 
Q 1022 2819 1159 2608 
Q 1297 2397 1616 2397 
Q 1928 2397 2067 2608 
Q 2206 2819 2206 3363 
z
M 5866 1291 
Q 5866 1828 5727 2040 
Q 5588 2253 5275 2253 
Q 4956 2253 4818 2040 
Q 4681 1828 4681 1288 
Q 4681 747 4818 536 
Q 4956 325 5275 325 
Q 5588 325 5727 536 
Q 5866 747 5866 1291 
z
" transform="scale(0.015625)"/>
       <path id="Verdana-30" d="M 3647 2328 
Q 3647 1075 3255 489 
Q 2863 -97 2038 -97 
Q 1200 -97 814 497 
Q 428 1091 428 2322 
Q 428 3563 818 4155 
Q 1209 4747 2038 4747 
Q 2875 4747 3261 4145 
Q 3647 3544 3647 2328 
z
M 2825 909 
Q 2934 1163 2973 1505 
Q 3013 1847 3013 2328 
Q 3013 2803 2973 3153 
Q 2934 3503 2822 3747 
Q 2713 3988 2523 4109 
Q 2334 4231 2038 4231 
Q 1744 4231 1551 4109 
Q 1359 3988 1247 3741 
Q 1141 3509 1102 3137 
Q 1063 2766 1063 2322 
Q 1063 1834 1097 1506 
Q 1131 1178 1244 919 
Q 1347 675 1536 547 
Q 1725 419 2038 419 
Q 2331 419 2525 541 
Q 2719 663 2825 909 
z
" transform="scale(0.015625)"/>
      </defs>
      <use xlink:href="#Verdana-44"/>
      <use xlink:href="#Verdana-6f" x="77.050781"/>
      <use xlink:href="#Verdana-72" x="137.744141"/>
      <use xlink:href="#Verdana-6d" x="180.419922"/>
      <use xlink:href="#Verdana-20" x="277.685547"/>
      <use xlink:href="#Verdana-2d" x="312.841797"/>
      <use xlink:href="#Verdana-2d" x="358.251953"/>
      <use xlink:href="#Verdana-20" x="403.662109"/>
      <use xlink:href="#Verdana-34" x="438.818359"/>
      <use xlink:href="#Verdana-31" x="502.392578"/>
      <use xlink:href="#Verdana-2e" x="565.966797"/>
      <use xlink:href="#Verdana-36" x="602.34375"/>
      <use xlink:href="#Verdana-37" x="665.917969"/>
      <use xlink:href="#Verdana-25" x="729.492188"/>
      <use xlink:href="#Verdana-20" x="837.109375"/>
      <use xlink:href="#Verdana-2d" x="872.265625"/>
      <use xlink:href="#Verdana-2d" x="917.675781"/>
      <use xlink:href="#Verdana-20" x="963.085938"/>
      <use xlink:href="#Verdana-31" x="998.242188"/>
      <use xlink:href="#Verdana-30" x="1061.816406"/>
      <use xlink:href="#Verdana-20" x="1125.390625"/>
      <use xlink:href="#Verdana-43" x="1160.546875"/>
      <use xlink:href="#Verdana-61" x="1230.371094"/>
      <use xlink:href="#Verdana-73" x="1290.429688"/>
      <use xlink:href="#Verdana-65" x="1342.529297"/>
      <use xlink:href="#Verdana-73" x="1402.099609"/>
     </g>
    </g>
    <g id="patch_7">
     <path d="M 11.2 68.138437 
L 31.2 68.138437 
L 31.2 61.138437 
L 11.2 61.138437 
z
" style="fill: #800000"/>
    </g>
    <g id="text_4">
     <!-- Community - - 20.83% - - 5 Cases -->
     <g transform="translate(39.2 68.138437)scale(0.1 -0.1)">
      <defs>
       <path id="Verdana-75" d="M 3472 0 
L 2884 0 
L 2884 388 
Q 2588 153 2316 28 
Q 2044 -97 1716 -97 
Q 1166 -97 859 239 
Q 553 575 553 1225 
L 553 3491 
L 1141 3491 
L 1141 1503 
Q 1141 1238 1166 1048 
Q 1191 859 1272 725 
Q 1356 588 1490 525 
Q 1625 463 1881 463 
Q 2109 463 2379 581 
Q 2650 700 2884 884 
L 2884 3491 
L 3472 3491 
L 3472 0 
z
" transform="scale(0.015625)"/>
       <path id="Verdana-6e" d="M 3497 0 
L 2909 0 
L 2909 1988 
Q 2909 2228 2881 2439 
Q 2853 2650 2778 2769 
Q 2700 2900 2553 2964 
Q 2406 3028 2172 3028 
Q 1931 3028 1668 2909 
Q 1406 2791 1166 2606 
L 1166 0 
L 578 0 
L 578 3491 
L 1166 3491 
L 1166 3103 
Q 1441 3331 1734 3459 
Q 2028 3588 2338 3588 
Q 2903 3588 3200 3247 
Q 3497 2906 3497 2266 
L 3497 0 
z
" transform="scale(0.015625)"/>
       <path id="Verdana-69" d="M 1209 4075 
L 547 4075 
L 547 4684 
L 1209 4684 
L 1209 4075 
z
M 1172 0 
L 584 0 
L 584 3491 
L 1172 3491 
L 1172 0 
z
" transform="scale(0.015625)"/>
       <path id="Verdana-79" d="M 3597 3491 
L 1559 -1288 
L 931 -1288 
L 1581 169 
L 191 3491 
L 828 3491 
L 1900 903 
L 2981 3491 
L 3597 3491 
z
" transform="scale(0.015625)"/>
       <path id="Verdana-38" d="M 3688 1297 
Q 3688 694 3217 294 
Q 2747 -106 2034 -106 
Q 1278 -106 829 284 
Q 381 675 381 1284 
Q 381 1672 606 1986 
Q 831 2300 1241 2484 
L 1241 2503 
Q 866 2703 686 2940 
Q 506 3178 506 3534 
Q 506 4059 937 4409 
Q 1369 4759 2034 4759 
Q 2731 4759 3147 4425 
Q 3563 4091 3563 3575 
Q 3563 3259 3366 2954 
Q 3169 2650 2788 2478 
L 2788 2459 
Q 3225 2272 3456 1997 
Q 3688 1722 3688 1297 
z
M 2947 3569 
Q 2947 3903 2689 4101 
Q 2431 4300 2031 4300 
Q 1638 4300 1386 4112 
Q 1134 3925 1134 3606 
Q 1134 3381 1261 3217 
Q 1388 3053 1644 2925 
Q 1759 2869 1976 2778 
Q 2194 2688 2400 2628 
Q 2709 2834 2828 3056 
Q 2947 3278 2947 3569 
z
M 3044 1238 
Q 3044 1525 2917 1698 
Q 2791 1872 2422 2047 
Q 2275 2116 2100 2175 
Q 1925 2234 1634 2341 
Q 1353 2188 1183 1925 
Q 1013 1663 1013 1331 
Q 1013 909 1303 634 
Q 1594 359 2041 359 
Q 2497 359 2770 593 
Q 3044 828 3044 1238 
z
" transform="scale(0.015625)"/>
       <path id="Verdana-33" d="M 3244 2241 
Q 3394 2106 3491 1903 
Q 3588 1700 3588 1378 
Q 3588 1059 3472 793 
Q 3356 528 3147 331 
Q 2913 113 2595 8 
Q 2278 -97 1900 -97 
Q 1513 -97 1138 -4 
Q 763 88 522 197 
L 522 850 
L 569 850 
Q 834 675 1193 559 
Q 1553 444 1888 444 
Q 2084 444 2306 509 
Q 2528 575 2666 703 
Q 2809 841 2879 1006 
Q 2950 1172 2950 1425 
Q 2950 1675 2870 1839 
Q 2791 2003 2650 2097 
Q 2509 2194 2309 2230 
Q 2109 2266 1878 2266 
L 1597 2266 
L 1597 2784 
L 1816 2784 
Q 2291 2784 2573 2982 
Q 2856 3181 2856 3563 
Q 2856 3731 2784 3857 
Q 2713 3984 2584 4066 
Q 2450 4147 2297 4178 
Q 2144 4209 1950 4209 
Q 1653 4209 1318 4103 
Q 984 3997 688 3803 
L 656 3803 
L 656 4456 
Q 878 4566 1248 4658 
Q 1619 4750 1966 4750 
Q 2306 4750 2565 4687 
Q 2825 4625 3034 4488 
Q 3259 4338 3375 4125 
Q 3491 3913 3491 3628 
Q 3491 3241 3217 2952 
Q 2944 2663 2572 2588 
L 2572 2544 
Q 2722 2519 2915 2439 
Q 3109 2359 3244 2241 
z
" transform="scale(0.015625)"/>
       <path id="Verdana-35" d="M 3616 1478 
Q 3616 1153 3497 856 
Q 3378 559 3172 356 
Q 2947 138 2636 20 
Q 2325 -97 1916 -97 
Q 1534 -97 1181 -17 
Q 828 63 584 175 
L 584 834 
L 628 834 
Q 884 672 1228 558 
Q 1572 444 1903 444 
Q 2125 444 2333 506 
Q 2541 569 2703 725 
Q 2841 859 2911 1046 
Q 2981 1234 2981 1481 
Q 2981 1722 2898 1887 
Q 2816 2053 2669 2153 
Q 2506 2272 2273 2320 
Q 2041 2369 1753 2369 
Q 1478 2369 1223 2331 
Q 969 2294 784 2256 
L 784 4653 
L 3584 4653 
L 3584 4106 
L 1388 4106 
L 1388 2869 
Q 1522 2881 1662 2887 
Q 1803 2894 1906 2894 
Q 2284 2894 2568 2830 
Q 2853 2766 3091 2603 
Q 3341 2431 3478 2159 
Q 3616 1888 3616 1478 
z
" transform="scale(0.015625)"/>
      </defs>
      <use xlink:href="#Verdana-43"/>
      <use xlink:href="#Verdana-6f" x="69.824219"/>
      <use xlink:href="#Verdana-6d" x="130.517578"/>
      <use xlink:href="#Verdana-6d" x="227.783203"/>
      <use xlink:href="#Verdana-75" x="325.048828"/>
      <use xlink:href="#Verdana-6e" x="388.330078"/>
      <use xlink:href="#Verdana-69" x="451.611328"/>
      <use xlink:href="#Verdana-74" x="479.052734"/>
      <use xlink:href="#Verdana-79" x="517.957031"/>
      <use xlink:href="#Verdana-20" x="577.136719"/>
      <use xlink:href="#Verdana-2d" x="612.292969"/>
      <use xlink:href="#Verdana-2d" x="657.703125"/>
      <use xlink:href="#Verdana-20" x="703.113281"/>
      <use xlink:href="#Verdana-32" x="738.269531"/>
      <use xlink:href="#Verdana-30" x="801.84375"/>
      <use xlink:href="#Verdana-2e" x="865.417969"/>
      <use xlink:href="#Verdana-38" x="901.794922"/>
      <use xlink:href="#Verdana-33" x="965.369141"/>
      <use xlink:href="#Verdana-25" x="1028.943359"/>
      <use xlink:href="#Verdana-20" x="1136.560547"/>
      <use xlink:href="#Verdana-2d" x="1171.716797"/>
      <use xlink:href="#Verdana-2d" x="1217.126953"/>
      <use xlink:href="#Verdana-20" x="1262.537109"/>
      <use xlink:href="#Verdana-35" x="1297.693359"/>
      <use xlink:href="#Verdana-20" x="1361.267578"/>
      <use xlink:href="#Verdana-43" x="1396.423828"/>
      <use xlink:href="#Verdana-61" x="1466.248047"/>
      <use xlink:href="#Verdana-73" x="1526.306641"/>
      <use xlink:href="#Verdana-65" x="1578.40625"/>
      <use xlink:href="#Verdana-73" x="1637.976562"/>
     </g>
    </g>
    <g id="patch_8">
     <path d="M 11.2 82.749375 
L 31.2 82.749375 
L 31.2 75.749375 
L 11.2 75.749375 
z
" style="fill: #40e0d0"/>
    </g>
    <g id="text_5">
     <!-- Imported - - 37.50% - - 9 Cases -->
     <g transform="translate(39.2 82.749375)scale(0.1 -0.1)">
      <defs>
       <path id="Verdana-49" d="M 2266 0 
L 428 0 
L 428 475 
L 1038 475 
L 1038 4178 
L 428 4178 
L 428 4653 
L 2266 4653 
L 2266 4178 
L 1656 4178 
L 1656 475 
L 2266 475 
L 2266 0 
z
" transform="scale(0.015625)"/>
       <path id="Verdana-70" d="M 3650 1788 
Q 3650 1363 3528 1011 
Q 3406 659 3184 416 
Q 2978 184 2698 57 
Q 2419 -69 2106 -69 
Q 1834 -69 1614 -9 
Q 1394 50 1166 175 
L 1166 -1288 
L 578 -1288 
L 578 3491 
L 1166 3491 
L 1166 3125 
Q 1400 3322 1692 3455 
Q 1984 3588 2316 3588 
Q 2947 3588 3298 3111 
Q 3650 2634 3650 1788 
z
M 3044 1772 
Q 3044 2403 2828 2715 
Q 2613 3028 2166 3028 
Q 1913 3028 1656 2918 
Q 1400 2809 1166 2631 
L 1166 653 
Q 1416 541 1595 500 
Q 1775 459 2003 459 
Q 2494 459 2769 790 
Q 3044 1122 3044 1772 
z
" transform="scale(0.015625)"/>
       <path id="Verdana-64" d="M 3409 0 
L 2822 0 
L 2822 366 
Q 2569 147 2294 25 
Q 2019 -97 1697 -97 
Q 1072 -97 705 384 
Q 338 866 338 1719 
Q 338 2163 464 2509 
Q 591 2856 806 3100 
Q 1019 3338 1301 3463 
Q 1584 3588 1888 3588 
Q 2163 3588 2375 3530 
Q 2588 3472 2822 3350 
L 2822 4863 
L 3409 4863 
L 3409 0 
z
M 2822 859 
L 2822 2863 
Q 2584 2969 2396 3009 
Q 2209 3050 1988 3050 
Q 1494 3050 1219 2706 
Q 944 2363 944 1731 
Q 944 1109 1156 786 
Q 1369 463 1838 463 
Q 2088 463 2344 573 
Q 2600 684 2822 859 
z
" transform="scale(0.015625)"/>
       <path id="Verdana-39" d="M 3647 2606 
Q 3647 1997 3508 1500 
Q 3369 1003 3088 653 
Q 2803 297 2375 103 
Q 1947 -91 1369 -91 
Q 1206 -91 1062 -73 
Q 919 -56 806 -19 
L 806 578 
L 838 578 
Q 928 531 1093 489 
Q 1259 447 1463 447 
Q 2153 447 2545 861 
Q 2938 1275 3000 2003 
Q 2709 1828 2453 1753 
Q 2197 1678 1894 1678 
Q 1606 1678 1373 1734 
Q 1141 1791 906 1953 
Q 631 2144 492 2437 
Q 353 2731 353 3141 
Q 353 3853 822 4300 
Q 1291 4747 1966 4747 
Q 2303 4747 2590 4642 
Q 2878 4538 3094 4328 
Q 3359 4069 3503 3661 
Q 3647 3253 3647 2606 
z
M 3016 2741 
Q 3016 3225 2916 3519 
Q 2816 3813 2641 3975 
Q 2494 4116 2325 4177 
Q 2156 4238 1959 4238 
Q 1509 4238 1248 3956 
Q 988 3675 988 3166 
Q 988 2869 1072 2681 
Q 1156 2494 1356 2353 
Q 1497 2256 1665 2223 
Q 1834 2191 2041 2191 
Q 2284 2191 2534 2256 
Q 2784 2322 3003 2447 
Q 3006 2513 3011 2577 
Q 3016 2641 3016 2741 
z
" transform="scale(0.015625)"/>
      </defs>
      <use xlink:href="#Verdana-49"/>
      <use xlink:href="#Verdana-6d" x="42.089844"/>
      <use xlink:href="#Verdana-70" x="139.355469"/>
      <use xlink:href="#Verdana-6f" x="201.660156"/>
      <use xlink:href="#Verdana-72" x="262.353516"/>
      <use xlink:href="#Verdana-74" x="305.029297"/>
      <use xlink:href="#Verdana-65" x="344.433594"/>
      <use xlink:href="#Verdana-64" x="404.003906"/>
      <use xlink:href="#Verdana-20" x="466.308594"/>
      <use xlink:href="#Verdana-2d" x="501.464844"/>
      <use xlink:href="#Verdana-2d" x="546.875"/>
      <use xlink:href="#Verdana-20" x="592.285156"/>
      <use xlink:href="#Verdana-33" x="627.441406"/>
      <use xlink:href="#Verdana-37" x="691.015625"/>
      <use xlink:href="#Verdana-2e" x="754.589844"/>
      <use xlink:href="#Verdana-35" x="790.966797"/>
      <use xlink:href="#Verdana-30" x="854.541016"/>
      <use xlink:href="#Verdana-25" x="918.115234"/>
      <use xlink:href="#Verdana-20" x="1025.732422"/>
      <use xlink:href="#Verdana-2d" x="1060.888672"/>
      <use xlink:href="#Verdana-2d" x="1106.298828"/>
      <use xlink:href="#Verdana-20" x="1151.708984"/>
      <use xlink:href="#Verdana-39" x="1186.865234"/>
      <use xlink:href="#Verdana-20" x="1250.439453"/>
      <use xlink:href="#Verdana-43" x="1285.595703"/>
      <use xlink:href="#Verdana-61" x="1355.419922"/>
      <use xlink:href="#Verdana-73" x="1415.478516"/>
      <use xlink:href="#Verdana-65" x="1467.578125"/>
      <use xlink:href="#Verdana-73" x="1527.148438"/>
     </g>
    </g>
   </g>
  </g>
 </g>
</svg>
