<?xml version="1.0" encoding="utf-8" standalone="no"?>
<!DOCTYPE svg PUBLIC "-//W3C//DTD SVG 1.1//EN"
  "http://www.w3.org/Graphics/SVG/1.1/DTD/svg11.dtd">
<svg xmlns:xlink="http://www.w3.org/1999/xlink" width="391.235625pt" height="333.409157pt" viewBox="0 0 391.235625 333.409157" xmlns="http://www.w3.org/2000/svg" version="1.1">
 <metadata>
  <rdf:RDF xmlns:dc="http://purl.org/dc/elements/1.1/" xmlns:cc="http://creativecommons.org/ns#" xmlns:rdf="http://www.w3.org/1999/02/22-rdf-syntax-ns#">
   <cc:Work>
    <dc:type rdf:resource="http://purl.org/dc/dcmitype/StillImage"/>
    <dc:date>2022-02-27T08:09:44.837419</dc:date>
    <dc:format>image/svg+xml</dc:format>
    <dc:creator>
     <cc:Agent>
      <dc:title>Matplotlib v3.5.0, https://matplotlib.org/</dc:title>
     </cc:Agent>
    </dc:creator>
   </cc:Work>
  </rdf:RDF>
 </metadata>
 <defs>
  <style type="text/css">*{stroke-linejoin: round; stroke-linecap: butt}</style>
 </defs>
 <g id="figure_1">
  <g id="patch_1">
   <path d="M 0 333.409157 
L 391.235625 333.409157 
L 391.235625 0 
L 0 0 
L 0 333.409157 
z
" style="fill: none"/>
  </g>
  <g id="axes_1">
   <g id="patch_2">
    <path d="M 26.915625 288.430125 
L 384.035625 288.430125 
L 384.035625 22.318125 
L 26.915625 22.318125 
L 26.915625 288.430125 
z
" style="fill: none"/>
   </g>
   <g id="patch_3">
    <path d="M 43.148352 288.430125 
L 61.968906 288.430125 
L 61.968906 121.883839 
L 43.148352 121.883839 
z
" clip-path="url(#p659cf83b9e)" style="fill: #1f77b4"/>
   </g>
   <g id="patch_4">
    <path d="M 66.674044 288.430125 
L 85.494597 288.430125 
L 85.494597 150.848411 
L 66.674044 150.848411 
z
" clip-path="url(#p659cf83b9e)" style="fill: #1f77b4"/>
   </g>
   <g id="patch_5">
    <path d="M 90.199736 288.430125 
L 109.020289 288.430125 
L 109.020289 172.571839 
L 90.199736 172.571839 
z
" clip-path="url(#p659cf83b9e)" style="fill: #1f77b4"/>
   </g>
   <g id="patch_6">
    <path d="M 113.725427 288.430125 
L 132.545981 288.430125 
L 132.545981 179.812982 
L 113.725427 179.812982 
z
" clip-path="url(#p659cf83b9e)" style="fill: #1f77b4"/>
   </g>
   <g id="patch_7">
    <path d="M 137.251119 288.430125 
L 156.071672 288.430125 
L 156.071672 114.642696 
L 137.251119 114.642696 
z
" clip-path="url(#p659cf83b9e)" style="fill: #1f77b4"/>
   </g>
   <g id="patch_8">
    <path d="M 160.776811 288.430125 
L 179.597364 288.430125 
L 179.597364 34.990125 
L 160.776811 34.990125 
z
" clip-path="url(#p659cf83b9e)" style="fill: #1f77b4"/>
   </g>
   <g id="patch_9">
    <path d="M 184.302502 288.430125 
L 203.123056 288.430125 
L 203.123056 237.742125 
L 184.302502 237.742125 
z
" clip-path="url(#p659cf83b9e)" style="fill: #1f77b4"/>
   </g>
   <g id="patch_10">
    <path d="M 207.828194 288.430125 
L 226.648748 288.430125 
L 226.648748 194.295268 
L 207.828194 194.295268 
z
" clip-path="url(#p659cf83b9e)" style="fill: #1f77b4"/>
   </g>
   <g id="patch_11">
    <path d="M 231.353886 288.430125 
L 250.174439 288.430125 
L 250.174439 244.983268 
L 231.353886 244.983268 
z
" clip-path="url(#p659cf83b9e)" style="fill: #1f77b4"/>
   </g>
   <g id="patch_12">
    <path d="M 254.879578 288.430125 
L 273.700131 288.430125 
L 273.700131 252.224411 
L 254.879578 252.224411 
z
" clip-path="url(#p659cf83b9e)" style="fill: #1f77b4"/>
   </g>
   <g id="patch_13">
    <path d="M 278.405269 288.430125 
L 297.225823 288.430125 
L 297.225823 266.706696 
L 278.405269 266.706696 
z
" clip-path="url(#p659cf83b9e)" style="fill: #1f77b4"/>
   </g>
   <g id="patch_14">
    <path d="M 301.930961 288.430125 
L 320.751514 288.430125 
L 320.751514 121.883839 
L 301.930961 121.883839 
z
" clip-path="url(#p659cf83b9e)" style="fill: #1f77b4"/>
   </g>
   <g id="patch_15">
    <path d="M 325.456653 288.430125 
L 344.277206 288.430125 
L 344.277206 187.054125 
L 325.456653 187.054125 
z
" clip-path="url(#p659cf83b9e)" style="fill: #1f77b4"/>
   </g>
   <g id="patch_16">
    <path d="M 348.982344 288.430125 
L 367.802898 288.430125 
L 367.802898 179.812982 
L 348.982344 179.812982 
z
" clip-path="url(#p659cf83b9e)" style="fill: #1f77b4"/>
   </g>
   <g id="matplotlib.axis_1">
    <g id="xtick_1">
     <g id="line2d_1">
      <defs>
       <path id="m5cf3256f05" d="M 0 0 
L 0 3.5 
" style="stroke: #000000; stroke-width: 0.8"/>
      </defs>
      <g>
       <use xlink:href="#m5cf3256f05" x="52.558629" y="288.430125" style="stroke: #000000; stroke-width: 0.8"/>
      </g>
     </g>
     <g id="text_1">
      <!-- 12 Feb -->
      <g transform="translate(42.542019 324.786105)rotate(-45)scale(0.1 -0.1)">
       <defs>
        <path id="Verdana-31" d="M 3388 0 
L 869 0 
L 869 475 
L 1838 475 
L 1838 3594 
L 869 3594 
L 869 4019 
Q 1066 4019 1291 4051 
Q 1516 4084 1631 4147 
Q 1775 4225 1858 4345 
Q 1941 4466 1953 4669 
L 2438 4669 
L 2438 475 
L 3388 475 
L 3388 0 
z
" transform="scale(0.015625)"/>
        <path id="Verdana-32" d="M 3653 0 
L 503 0 
L 503 653 
Q 831 934 1161 1215 
Q 1491 1497 1775 1775 
Q 2375 2356 2597 2698 
Q 2819 3041 2819 3438 
Q 2819 3800 2580 4004 
Q 2341 4209 1913 4209 
Q 1628 4209 1297 4109 
Q 966 4009 650 3803 
L 619 3803 
L 619 4459 
Q 841 4569 1211 4659 
Q 1581 4750 1928 4750 
Q 2644 4750 3050 4404 
Q 3456 4059 3456 3469 
Q 3456 3203 3389 2973 
Q 3322 2744 3191 2538 
Q 3069 2344 2905 2156 
Q 2741 1969 2506 1741 
Q 2172 1413 1815 1105 
Q 1459 797 1150 534 
L 3653 534 
L 3653 0 
z
" transform="scale(0.015625)"/>
        <path id="Verdana-20" transform="scale(0.015625)"/>
        <path id="Verdana-46" d="M 3597 4103 
L 1244 4103 
L 1244 2791 
L 3266 2791 
L 3266 2241 
L 1244 2241 
L 1244 0 
L 625 0 
L 625 4653 
L 3597 4653 
L 3597 4103 
z
" transform="scale(0.015625)"/>
        <path id="Verdana-65" d="M 3500 1684 
L 928 1684 
Q 928 1363 1025 1123 
Q 1122 884 1291 731 
Q 1453 581 1676 506 
Q 1900 431 2169 431 
Q 2525 431 2886 573 
Q 3247 716 3400 853 
L 3431 853 
L 3431 213 
Q 3134 88 2825 3 
Q 2516 -81 2175 -81 
Q 1306 -81 818 389 
Q 331 859 331 1725 
Q 331 2581 798 3084 
Q 1266 3588 2028 3588 
Q 2734 3588 3117 3175 
Q 3500 2763 3500 2003 
L 3500 1684 
z
M 2928 2134 
Q 2925 2597 2695 2850 
Q 2466 3103 1997 3103 
Q 1525 3103 1245 2825 
Q 966 2547 928 2134 
L 2928 2134 
z
" transform="scale(0.015625)"/>
        <path id="Verdana-62" d="M 3650 1772 
Q 3650 1334 3526 984 
Q 3403 634 3194 397 
Q 2972 150 2706 26 
Q 2441 -97 2122 -97 
Q 1825 -97 1603 -26 
Q 1381 44 1166 163 
L 1128 0 
L 578 0 
L 578 4863 
L 1166 4863 
L 1166 3125 
Q 1413 3328 1691 3458 
Q 1969 3588 2316 3588 
Q 2934 3588 3292 3113 
Q 3650 2638 3650 1772 
z
M 3044 1756 
Q 3044 2381 2837 2704 
Q 2631 3028 2172 3028 
Q 1916 3028 1653 2917 
Q 1391 2806 1166 2631 
L 1166 631 
Q 1416 519 1595 475 
Q 1775 431 2003 431 
Q 2491 431 2767 751 
Q 3044 1072 3044 1756 
z
" transform="scale(0.015625)"/>
       </defs>
       <use xlink:href="#Verdana-31"/>
       <use xlink:href="#Verdana-32" x="63.574219"/>
       <use xlink:href="#Verdana-20" x="127.148438"/>
       <use xlink:href="#Verdana-46" x="162.304688"/>
       <use xlink:href="#Verdana-65" x="217.275391"/>
       <use xlink:href="#Verdana-62" x="276.845703"/>
      </g>
     </g>
    </g>
    <g id="xtick_2">
     <g id="line2d_2">
      <g>
       <use xlink:href="#m5cf3256f05" x="76.084321" y="288.430125" style="stroke: #000000; stroke-width: 0.8"/>
      </g>
     </g>
     <g id="text_2">
      <!-- 13 Feb -->
      <g transform="translate(66.067711 324.786105)rotate(-45)scale(0.1 -0.1)">
       <defs>
        <path id="Verdana-33" d="M 3244 2241 
Q 3394 2106 3491 1903 
Q 3588 1700 3588 1378 
Q 3588 1059 3472 793 
Q 3356 528 3147 331 
Q 2913 113 2595 8 
Q 2278 -97 1900 -97 
Q 1513 -97 1138 -4 
Q 763 88 522 197 
L 522 850 
L 569 850 
Q 834 675 1193 559 
Q 1553 444 1888 444 
Q 2084 444 2306 509 
Q 2528 575 2666 703 
Q 2809 841 2879 1006 
Q 2950 1172 2950 1425 
Q 2950 1675 2870 1839 
Q 2791 2003 2650 2097 
Q 2509 2194 2309 2230 
Q 2109 2266 1878 2266 
L 1597 2266 
L 1597 2784 
L 1816 2784 
Q 2291 2784 2573 2982 
Q 2856 3181 2856 3563 
Q 2856 3731 2784 3857 
Q 2713 3984 2584 4066 
Q 2450 4147 2297 4178 
Q 2144 4209 1950 4209 
Q 1653 4209 1318 4103 
Q 984 3997 688 3803 
L 656 3803 
L 656 4456 
Q 878 4566 1248 4658 
Q 1619 4750 1966 4750 
Q 2306 4750 2565 4687 
Q 2825 4625 3034 4488 
Q 3259 4338 3375 4125 
Q 3491 3913 3491 3628 
Q 3491 3241 3217 2952 
Q 2944 2663 2572 2588 
L 2572 2544 
Q 2722 2519 2915 2439 
Q 3109 2359 3244 2241 
z
" transform="scale(0.015625)"/>
       </defs>
       <use xlink:href="#Verdana-31"/>
       <use xlink:href="#Verdana-33" x="63.574219"/>
       <use xlink:href="#Verdana-20" x="127.148438"/>
       <use xlink:href="#Verdana-46" x="162.304688"/>
       <use xlink:href="#Verdana-65" x="217.275391"/>
       <use xlink:href="#Verdana-62" x="276.845703"/>
      </g>
     </g>
    </g>
    <g id="xtick_3">
     <g id="line2d_3">
      <g>
       <use xlink:href="#m5cf3256f05" x="99.610012" y="288.430125" style="stroke: #000000; stroke-width: 0.8"/>
      </g>
     </g>
     <g id="text_3">
      <!-- 14 Feb -->
      <g transform="translate(89.593403 324.786105)rotate(-45)scale(0.1 -0.1)">
       <defs>
        <path id="Verdana-34" d="M 3759 1309 
L 3069 1309 
L 3069 0 
L 2469 0 
L 2469 1309 
L 241 1309 
L 241 2028 
L 2494 4653 
L 3069 4653 
L 3069 1809 
L 3759 1809 
L 3759 1309 
z
M 2469 1809 
L 2469 3909 
L 666 1809 
L 2469 1809 
z
" transform="scale(0.015625)"/>
       </defs>
       <use xlink:href="#Verdana-31"/>
       <use xlink:href="#Verdana-34" x="63.574219"/>
       <use xlink:href="#Verdana-20" x="127.148438"/>
       <use xlink:href="#Verdana-46" x="162.304688"/>
       <use xlink:href="#Verdana-65" x="217.275391"/>
       <use xlink:href="#Verdana-62" x="276.845703"/>
      </g>
     </g>
    </g>
    <g id="xtick_4">
     <g id="line2d_4">
      <g>
       <use xlink:href="#m5cf3256f05" x="123.135704" y="288.430125" style="stroke: #000000; stroke-width: 0.8"/>
      </g>
     </g>
     <g id="text_4">
      <!-- 15 Feb -->
      <g transform="translate(113.119095 324.786105)rotate(-45)scale(0.1 -0.1)">
       <defs>
        <path id="Verdana-35" d="M 3616 1478 
Q 3616 1153 3497 856 
Q 3378 559 3172 356 
Q 2947 138 2636 20 
Q 2325 -97 1916 -97 
Q 1534 -97 1181 -17 
Q 828 63 584 175 
L 584 834 
L 628 834 
Q 884 672 1228 558 
Q 1572 444 1903 444 
Q 2125 444 2333 506 
Q 2541 569 2703 725 
Q 2841 859 2911 1046 
Q 2981 1234 2981 1481 
Q 2981 1722 2898 1887 
Q 2816 2053 2669 2153 
Q 2506 2272 2273 2320 
Q 2041 2369 1753 2369 
Q 1478 2369 1223 2331 
Q 969 2294 784 2256 
L 784 4653 
L 3584 4653 
L 3584 4106 
L 1388 4106 
L 1388 2869 
Q 1522 2881 1662 2887 
Q 1803 2894 1906 2894 
Q 2284 2894 2568 2830 
Q 2853 2766 3091 2603 
Q 3341 2431 3478 2159 
Q 3616 1888 3616 1478 
z
" transform="scale(0.015625)"/>
       </defs>
       <use xlink:href="#Verdana-31"/>
       <use xlink:href="#Verdana-35" x="63.574219"/>
       <use xlink:href="#Verdana-20" x="127.148438"/>
       <use xlink:href="#Verdana-46" x="162.304688"/>
       <use xlink:href="#Verdana-65" x="217.275391"/>
       <use xlink:href="#Verdana-62" x="276.845703"/>
      </g>
     </g>
    </g>
    <g id="xtick_5">
     <g id="line2d_5">
      <g>
       <use xlink:href="#m5cf3256f05" x="146.661396" y="288.430125" style="stroke: #000000; stroke-width: 0.8"/>
      </g>
     </g>
     <g id="text_5">
      <!-- 16 Feb -->
      <g transform="translate(136.644786 324.786105)rotate(-45)scale(0.1 -0.1)">
       <defs>
        <path id="Verdana-36" d="M 3722 1509 
Q 3722 800 3255 351 
Q 2788 -97 2109 -97 
Q 1766 -97 1484 9 
Q 1203 116 988 325 
Q 719 584 573 1012 
Q 428 1441 428 2044 
Q 428 2663 561 3141 
Q 694 3619 984 3991 
Q 1259 4344 1693 4542 
Q 2128 4741 2706 4741 
Q 2891 4741 3016 4725 
Q 3141 4709 3269 4669 
L 3269 4072 
L 3238 4072 
Q 3150 4119 2973 4161 
Q 2797 4203 2613 4203 
Q 1941 4203 1541 3783 
Q 1141 3363 1075 2647 
Q 1338 2806 1592 2889 
Q 1847 2972 2181 2972 
Q 2478 2972 2704 2917 
Q 2931 2863 3169 2697 
Q 3444 2506 3583 2215 
Q 3722 1925 3722 1509 
z
M 3088 1484 
Q 3088 1775 3002 1965 
Q 2916 2156 2719 2297 
Q 2575 2397 2400 2428 
Q 2225 2459 2034 2459 
Q 1769 2459 1541 2396 
Q 1313 2334 1072 2203 
Q 1066 2134 1062 2070 
Q 1059 2006 1059 1909 
Q 1059 1416 1161 1130 
Q 1263 844 1441 678 
Q 1584 541 1751 477 
Q 1919 413 2116 413 
Q 2569 413 2828 689 
Q 3088 966 3088 1484 
z
" transform="scale(0.015625)"/>
       </defs>
       <use xlink:href="#Verdana-31"/>
       <use xlink:href="#Verdana-36" x="63.574219"/>
       <use xlink:href="#Verdana-20" x="127.148438"/>
       <use xlink:href="#Verdana-46" x="162.304688"/>
       <use xlink:href="#Verdana-65" x="217.275391"/>
       <use xlink:href="#Verdana-62" x="276.845703"/>
      </g>
     </g>
    </g>
    <g id="xtick_6">
     <g id="line2d_6">
      <g>
       <use xlink:href="#m5cf3256f05" x="170.187087" y="288.430125" style="stroke: #000000; stroke-width: 0.8"/>
      </g>
     </g>
     <g id="text_6">
      <!-- 17 Feb -->
      <g transform="translate(160.170478 324.786105)rotate(-45)scale(0.1 -0.1)">
       <defs>
        <path id="Verdana-37" d="M 3666 3956 
L 1559 0 
L 891 0 
L 3131 4106 
L 481 4106 
L 481 4653 
L 3666 4653 
L 3666 3956 
z
" transform="scale(0.015625)"/>
       </defs>
       <use xlink:href="#Verdana-31"/>
       <use xlink:href="#Verdana-37" x="63.574219"/>
       <use xlink:href="#Verdana-20" x="127.148438"/>
       <use xlink:href="#Verdana-46" x="162.304688"/>
       <use xlink:href="#Verdana-65" x="217.275391"/>
       <use xlink:href="#Verdana-62" x="276.845703"/>
      </g>
     </g>
    </g>
    <g id="xtick_7">
     <g id="line2d_7">
      <g>
       <use xlink:href="#m5cf3256f05" x="193.712779" y="288.430125" style="stroke: #000000; stroke-width: 0.8"/>
      </g>
     </g>
     <g id="text_7">
      <!-- 18 Feb -->
      <g transform="translate(183.69617 324.786105)rotate(-45)scale(0.1 -0.1)">
       <defs>
        <path id="Verdana-38" d="M 3688 1297 
Q 3688 694 3217 294 
Q 2747 -106 2034 -106 
Q 1278 -106 829 284 
Q 381 675 381 1284 
Q 381 1672 606 1986 
Q 831 2300 1241 2484 
L 1241 2503 
Q 866 2703 686 2940 
Q 506 3178 506 3534 
Q 506 4059 937 4409 
Q 1369 4759 2034 4759 
Q 2731 4759 3147 4425 
Q 3563 4091 3563 3575 
Q 3563 3259 3366 2954 
Q 3169 2650 2788 2478 
L 2788 2459 
Q 3225 2272 3456 1997 
Q 3688 1722 3688 1297 
z
M 2947 3569 
Q 2947 3903 2689 4101 
Q 2431 4300 2031 4300 
Q 1638 4300 1386 4112 
Q 1134 3925 1134 3606 
Q 1134 3381 1261 3217 
Q 1388 3053 1644 2925 
Q 1759 2869 1976 2778 
Q 2194 2688 2400 2628 
Q 2709 2834 2828 3056 
Q 2947 3278 2947 3569 
z
M 3044 1238 
Q 3044 1525 2917 1698 
Q 2791 1872 2422 2047 
Q 2275 2116 2100 2175 
Q 1925 2234 1634 2341 
Q 1353 2188 1183 1925 
Q 1013 1663 1013 1331 
Q 1013 909 1303 634 
Q 1594 359 2041 359 
Q 2497 359 2770 593 
Q 3044 828 3044 1238 
z
" transform="scale(0.015625)"/>
       </defs>
       <use xlink:href="#Verdana-31"/>
       <use xlink:href="#Verdana-38" x="63.574219"/>
       <use xlink:href="#Verdana-20" x="127.148438"/>
       <use xlink:href="#Verdana-46" x="162.304688"/>
       <use xlink:href="#Verdana-65" x="217.275391"/>
       <use xlink:href="#Verdana-62" x="276.845703"/>
      </g>
     </g>
    </g>
    <g id="xtick_8">
     <g id="line2d_8">
      <g>
       <use xlink:href="#m5cf3256f05" x="217.238471" y="288.430125" style="stroke: #000000; stroke-width: 0.8"/>
      </g>
     </g>
     <g id="text_8">
      <!-- 19 Feb -->
      <g transform="translate(207.221861 324.786105)rotate(-45)scale(0.1 -0.1)">
       <defs>
        <path id="Verdana-39" d="M 3647 2606 
Q 3647 1997 3508 1500 
Q 3369 1003 3088 653 
Q 2803 297 2375 103 
Q 1947 -91 1369 -91 
Q 1206 -91 1062 -73 
Q 919 -56 806 -19 
L 806 578 
L 838 578 
Q 928 531 1093 489 
Q 1259 447 1463 447 
Q 2153 447 2545 861 
Q 2938 1275 3000 2003 
Q 2709 1828 2453 1753 
Q 2197 1678 1894 1678 
Q 1606 1678 1373 1734 
Q 1141 1791 906 1953 
Q 631 2144 492 2437 
Q 353 2731 353 3141 
Q 353 3853 822 4300 
Q 1291 4747 1966 4747 
Q 2303 4747 2590 4642 
Q 2878 4538 3094 4328 
Q 3359 4069 3503 3661 
Q 3647 3253 3647 2606 
z
M 3016 2741 
Q 3016 3225 2916 3519 
Q 2816 3813 2641 3975 
Q 2494 4116 2325 4177 
Q 2156 4238 1959 4238 
Q 1509 4238 1248 3956 
Q 988 3675 988 3166 
Q 988 2869 1072 2681 
Q 1156 2494 1356 2353 
Q 1497 2256 1665 2223 
Q 1834 2191 2041 2191 
Q 2284 2191 2534 2256 
Q 2784 2322 3003 2447 
Q 3006 2513 3011 2577 
Q 3016 2641 3016 2741 
z
" transform="scale(0.015625)"/>
       </defs>
       <use xlink:href="#Verdana-31"/>
       <use xlink:href="#Verdana-39" x="63.574219"/>
       <use xlink:href="#Verdana-20" x="127.148438"/>
       <use xlink:href="#Verdana-46" x="162.304688"/>
       <use xlink:href="#Verdana-65" x="217.275391"/>
       <use xlink:href="#Verdana-62" x="276.845703"/>
      </g>
     </g>
    </g>
    <g id="xtick_9">
     <g id="line2d_9">
      <g>
       <use xlink:href="#m5cf3256f05" x="240.764163" y="288.430125" style="stroke: #000000; stroke-width: 0.8"/>
      </g>
     </g>
     <g id="text_9">
      <!-- 20 Feb -->
      <g transform="translate(230.747553 324.786105)rotate(-45)scale(0.1 -0.1)">
       <defs>
        <path id="Verdana-30" d="M 3647 2328 
Q 3647 1075 3255 489 
Q 2863 -97 2038 -97 
Q 1200 -97 814 497 
Q 428 1091 428 2322 
Q 428 3563 818 4155 
Q 1209 4747 2038 4747 
Q 2875 4747 3261 4145 
Q 3647 3544 3647 2328 
z
M 2825 909 
Q 2934 1163 2973 1505 
Q 3013 1847 3013 2328 
Q 3013 2803 2973 3153 
Q 2934 3503 2822 3747 
Q 2713 3988 2523 4109 
Q 2334 4231 2038 4231 
Q 1744 4231 1551 4109 
Q 1359 3988 1247 3741 
Q 1141 3509 1102 3137 
Q 1063 2766 1063 2322 
Q 1063 1834 1097 1506 
Q 1131 1178 1244 919 
Q 1347 675 1536 547 
Q 1725 419 2038 419 
Q 2331 419 2525 541 
Q 2719 663 2825 909 
z
" transform="scale(0.015625)"/>
       </defs>
       <use xlink:href="#Verdana-32"/>
       <use xlink:href="#Verdana-30" x="63.574219"/>
       <use xlink:href="#Verdana-20" x="127.148438"/>
       <use xlink:href="#Verdana-46" x="162.304688"/>
       <use xlink:href="#Verdana-65" x="217.275391"/>
       <use xlink:href="#Verdana-62" x="276.845703"/>
      </g>
     </g>
    </g>
    <g id="xtick_10">
     <g id="line2d_10">
      <g>
       <use xlink:href="#m5cf3256f05" x="264.289854" y="288.430125" style="stroke: #000000; stroke-width: 0.8"/>
      </g>
     </g>
     <g id="text_10">
      <!-- 21 Feb -->
      <g transform="translate(254.273245 324.786105)rotate(-45)scale(0.1 -0.1)">
       <use xlink:href="#Verdana-32"/>
       <use xlink:href="#Verdana-31" x="63.574219"/>
       <use xlink:href="#Verdana-20" x="127.148438"/>
       <use xlink:href="#Verdana-46" x="162.304688"/>
       <use xlink:href="#Verdana-65" x="217.275391"/>
       <use xlink:href="#Verdana-62" x="276.845703"/>
      </g>
     </g>
    </g>
    <g id="xtick_11">
     <g id="line2d_11">
      <g>
       <use xlink:href="#m5cf3256f05" x="287.815546" y="288.430125" style="stroke: #000000; stroke-width: 0.8"/>
      </g>
     </g>
     <g id="text_11">
      <!-- 22 Feb -->
      <g transform="translate(277.798936 324.786105)rotate(-45)scale(0.1 -0.1)">
       <use xlink:href="#Verdana-32"/>
       <use xlink:href="#Verdana-32" x="63.574219"/>
       <use xlink:href="#Verdana-20" x="127.148438"/>
       <use xlink:href="#Verdana-46" x="162.304688"/>
       <use xlink:href="#Verdana-65" x="217.275391"/>
       <use xlink:href="#Verdana-62" x="276.845703"/>
      </g>
     </g>
    </g>
    <g id="xtick_12">
     <g id="line2d_12">
      <g>
       <use xlink:href="#m5cf3256f05" x="311.341238" y="288.430125" style="stroke: #000000; stroke-width: 0.8"/>
      </g>
     </g>
     <g id="text_12">
      <!-- 23 Feb -->
      <g transform="translate(301.324628 324.786105)rotate(-45)scale(0.1 -0.1)">
       <use xlink:href="#Verdana-32"/>
       <use xlink:href="#Verdana-33" x="63.574219"/>
       <use xlink:href="#Verdana-20" x="127.148438"/>
       <use xlink:href="#Verdana-46" x="162.304688"/>
       <use xlink:href="#Verdana-65" x="217.275391"/>
       <use xlink:href="#Verdana-62" x="276.845703"/>
      </g>
     </g>
    </g>
    <g id="xtick_13">
     <g id="line2d_13">
      <g>
       <use xlink:href="#m5cf3256f05" x="334.866929" y="288.430125" style="stroke: #000000; stroke-width: 0.8"/>
      </g>
     </g>
     <g id="text_13">
      <!-- 24 Feb -->
      <g transform="translate(324.85032 324.786105)rotate(-45)scale(0.1 -0.1)">
       <use xlink:href="#Verdana-32"/>
       <use xlink:href="#Verdana-34" x="63.574219"/>
       <use xlink:href="#Verdana-20" x="127.148438"/>
       <use xlink:href="#Verdana-46" x="162.304688"/>
       <use xlink:href="#Verdana-65" x="217.275391"/>
       <use xlink:href="#Verdana-62" x="276.845703"/>
      </g>
     </g>
    </g>
    <g id="xtick_14">
     <g id="line2d_14">
      <g>
       <use xlink:href="#m5cf3256f05" x="358.392621" y="288.430125" style="stroke: #000000; stroke-width: 0.8"/>
      </g>
     </g>
     <g id="text_14">
      <!-- 25 Feb -->
      <g transform="translate(348.376012 324.786105)rotate(-45)scale(0.1 -0.1)">
       <use xlink:href="#Verdana-32"/>
       <use xlink:href="#Verdana-35" x="63.574219"/>
       <use xlink:href="#Verdana-20" x="127.148438"/>
       <use xlink:href="#Verdana-46" x="162.304688"/>
       <use xlink:href="#Verdana-65" x="217.275391"/>
       <use xlink:href="#Verdana-62" x="276.845703"/>
      </g>
     </g>
    </g>
   </g>
   <g id="matplotlib.axis_2">
    <g id="ytick_1">
     <g id="line2d_15">
      <defs>
       <path id="m72cd3c6829" d="M 0 0 
L -3.5 0 
" style="stroke: #000000; stroke-width: 0.8"/>
      </defs>
      <g>
       <use xlink:href="#m72cd3c6829" x="26.915625" y="288.430125" style="stroke: #000000; stroke-width: 0.8"/>
      </g>
     </g>
     <g id="text_15">
      <!-- 0 -->
      <g transform="translate(13.557813 292.229344)scale(0.1 -0.1)">
       <use xlink:href="#Verdana-30"/>
      </g>
     </g>
    </g>
    <g id="ytick_2">
     <g id="line2d_16">
      <g>
       <use xlink:href="#m72cd3c6829" x="26.915625" y="252.224411" style="stroke: #000000; stroke-width: 0.8"/>
      </g>
     </g>
     <g id="text_16">
      <!-- 5 -->
      <g transform="translate(13.557813 256.023629)scale(0.1 -0.1)">
       <use xlink:href="#Verdana-35"/>
      </g>
     </g>
    </g>
    <g id="ytick_3">
     <g id="line2d_17">
      <g>
       <use xlink:href="#m72cd3c6829" x="26.915625" y="216.018696" style="stroke: #000000; stroke-width: 0.8"/>
      </g>
     </g>
     <g id="text_17">
      <!-- 10 -->
      <g transform="translate(7.2 219.817915)scale(0.1 -0.1)">
       <use xlink:href="#Verdana-31"/>
       <use xlink:href="#Verdana-30" x="63.574219"/>
      </g>
     </g>
    </g>
    <g id="ytick_4">
     <g id="line2d_18">
      <g>
       <use xlink:href="#m72cd3c6829" x="26.915625" y="179.812982" style="stroke: #000000; stroke-width: 0.8"/>
      </g>
     </g>
     <g id="text_18">
      <!-- 15 -->
      <g transform="translate(7.2 183.612201)scale(0.1 -0.1)">
       <use xlink:href="#Verdana-31"/>
       <use xlink:href="#Verdana-35" x="63.574219"/>
      </g>
     </g>
    </g>
    <g id="ytick_5">
     <g id="line2d_19">
      <g>
       <use xlink:href="#m72cd3c6829" x="26.915625" y="143.607268" style="stroke: #000000; stroke-width: 0.8"/>
      </g>
     </g>
     <g id="text_19">
      <!-- 20 -->
      <g transform="translate(7.2 147.406487)scale(0.1 -0.1)">
       <use xlink:href="#Verdana-32"/>
       <use xlink:href="#Verdana-30" x="63.574219"/>
      </g>
     </g>
    </g>
    <g id="ytick_6">
     <g id="line2d_20">
      <g>
       <use xlink:href="#m72cd3c6829" x="26.915625" y="107.401554" style="stroke: #000000; stroke-width: 0.8"/>
      </g>
     </g>
     <g id="text_20">
      <!-- 25 -->
      <g transform="translate(7.2 111.200772)scale(0.1 -0.1)">
       <use xlink:href="#Verdana-32"/>
       <use xlink:href="#Verdana-35" x="63.574219"/>
      </g>
     </g>
    </g>
    <g id="ytick_7">
     <g id="line2d_21">
      <g>
       <use xlink:href="#m72cd3c6829" x="26.915625" y="71.195839" style="stroke: #000000; stroke-width: 0.8"/>
      </g>
     </g>
     <g id="text_21">
      <!-- 30 -->
      <g transform="translate(7.2 74.995058)scale(0.1 -0.1)">
       <use xlink:href="#Verdana-33"/>
       <use xlink:href="#Verdana-30" x="63.574219"/>
      </g>
     </g>
    </g>
    <g id="ytick_8">
     <g id="line2d_22">
      <g>
       <use xlink:href="#m72cd3c6829" x="26.915625" y="34.990125" style="stroke: #000000; stroke-width: 0.8"/>
      </g>
     </g>
     <g id="text_22">
      <!-- 35 -->
      <g transform="translate(7.2 38.789344)scale(0.1 -0.1)">
       <use xlink:href="#Verdana-33"/>
       <use xlink:href="#Verdana-35" x="63.574219"/>
      </g>
     </g>
    </g>
   </g>
   <g id="patch_17">
    <path d="M 26.915625 288.430125 
L 26.915625 22.318125 
" style="fill: none; stroke: #000000; stroke-width: 0.8; stroke-linejoin: miter; stroke-linecap: square"/>
   </g>
   <g id="patch_18">
    <path d="M 384.035625 288.430125 
L 384.035625 22.318125 
" style="fill: none; stroke: #000000; stroke-width: 0.8; stroke-linejoin: miter; stroke-linecap: square"/>
   </g>
   <g id="patch_19">
    <path d="M 26.915625 288.430125 
L 384.035625 288.430125 
" style="fill: none; stroke: #000000; stroke-width: 0.8; stroke-linejoin: miter; stroke-linecap: square"/>
   </g>
   <g id="patch_20">
    <path d="M 26.915625 22.318125 
L 384.035625 22.318125 
" style="fill: none; stroke: #000000; stroke-width: 0.8; stroke-linejoin: miter; stroke-linecap: square"/>
   </g>
   <g id="text_23">
    <!-- SG Community Cases over the past 14 days -->
    <g transform="translate(59.46375 16.318125)scale(0.12 -0.12)">
     <defs>
      <path id="Verdana-Bold-53" d="M 4319 1463 
Q 4319 775 3736 345 
Q 3153 -84 2153 -84 
Q 1575 -84 1145 17 
Q 716 119 341 275 
L 341 1391 
L 472 1391 
Q 844 1094 1305 934 
Q 1766 775 2191 775 
Q 2300 775 2478 794 
Q 2656 813 2769 856 
Q 2906 913 2995 997 
Q 3084 1081 3084 1247 
Q 3084 1400 2954 1511 
Q 2825 1622 2575 1681 
Q 2313 1744 2020 1798 
Q 1728 1853 1472 1938 
Q 884 2128 626 2454 
Q 369 2781 369 3266 
Q 369 3916 951 4327 
Q 1534 4738 2450 4738 
Q 2909 4738 3357 4648 
Q 3806 4559 4134 4425 
L 4134 3353 
L 4006 3353 
Q 3725 3578 3317 3729 
Q 2909 3881 2484 3881 
Q 2334 3881 2186 3861 
Q 2038 3841 1900 3784 
Q 1778 3738 1690 3642 
Q 1603 3547 1603 3425 
Q 1603 3241 1743 3142 
Q 1884 3044 2275 2963 
Q 2531 2909 2767 2859 
Q 3003 2809 3275 2722 
Q 3809 2547 4064 2245 
Q 4319 1944 4319 1463 
z
" transform="scale(0.015625)"/>
      <path id="Verdana-Bold-47" d="M 4709 266 
Q 4397 144 3881 23 
Q 3366 -97 2853 -97 
Q 1666 -97 994 548 
Q 322 1194 322 2331 
Q 322 3416 1000 4080 
Q 1678 4744 2891 4744 
Q 3350 4744 3765 4661 
Q 4181 4578 4691 4331 
L 4691 3241 
L 4556 3241 
Q 4469 3306 4300 3426 
Q 4131 3547 3975 3631 
Q 3794 3731 3551 3803 
Q 3309 3875 3038 3875 
Q 2719 3875 2459 3781 
Q 2200 3688 1994 3494 
Q 1797 3306 1683 3017 
Q 1569 2728 1569 2350 
Q 1569 1578 1978 1168 
Q 2388 759 3188 759 
Q 3256 759 3339 762 
Q 3422 766 3491 772 
L 3491 1684 
L 2563 1684 
L 2563 2563 
L 4709 2563 
L 4709 266 
z
" transform="scale(0.015625)"/>
      <path id="Verdana-Bold-20" transform="scale(0.015625)"/>
      <path id="Verdana-Bold-43" d="M 2697 -91 
Q 2178 -91 1739 62 
Q 1300 216 984 519 
Q 669 822 495 1275 
Q 322 1728 322 2322 
Q 322 2875 487 3325 
Q 653 3775 969 4097 
Q 1272 4406 1720 4575 
Q 2169 4744 2700 4744 
Q 2994 4744 3230 4711 
Q 3466 4678 3666 4625 
Q 3875 4566 4045 4492 
Q 4216 4419 4344 4356 
L 4344 3228 
L 4206 3228 
Q 4119 3303 3986 3406 
Q 3853 3509 3684 3609 
Q 3513 3709 3313 3778 
Q 3113 3847 2884 3847 
Q 2631 3847 2403 3767 
Q 2175 3688 1981 3503 
Q 1797 3325 1683 3031 
Q 1569 2738 1569 2319 
Q 1569 1881 1692 1587 
Q 1816 1294 2003 1125 
Q 2194 953 2428 879 
Q 2663 806 2891 806 
Q 3109 806 3323 872 
Q 3538 938 3719 1050 
Q 3872 1141 4003 1244 
Q 4134 1347 4219 1422 
L 4344 1422 
L 4344 309 
Q 4169 231 4009 162 
Q 3850 94 3675 44 
Q 3447 -22 3247 -56 
Q 3047 -91 2697 -91 
z
" transform="scale(0.015625)"/>
      <path id="Verdana-Bold-6f" d="M 4119 1753 
Q 4119 888 3614 389 
Q 3109 -109 2197 -109 
Q 1284 -109 779 389 
Q 275 888 275 1753 
Q 275 2625 783 3122 
Q 1291 3619 2197 3619 
Q 3116 3619 3617 3119 
Q 4119 2619 4119 1753 
z
M 2734 900 
Q 2844 1034 2898 1223 
Q 2953 1413 2953 1747 
Q 2953 2056 2897 2265 
Q 2841 2475 2741 2600 
Q 2641 2728 2500 2781 
Q 2359 2834 2197 2834 
Q 2034 2834 1907 2790 
Q 1781 2747 1666 2616 
Q 1563 2494 1502 2281 
Q 1441 2069 1441 1747 
Q 1441 1459 1494 1248 
Q 1547 1038 1650 909 
Q 1750 788 1889 731 
Q 2028 675 2206 675 
Q 2359 675 2498 726 
Q 2638 778 2734 900 
z
" transform="scale(0.015625)"/>
      <path id="Verdana-Bold-6d" d="M 3963 2488 
L 3963 0 
L 2831 0 
L 2831 1753 
Q 2831 2009 2818 2189 
Q 2806 2369 2750 2481 
Q 2694 2594 2580 2645 
Q 2466 2697 2259 2697 
Q 2094 2697 1937 2630 
Q 1781 2563 1656 2488 
L 1656 0 
L 531 0 
L 531 3509 
L 1656 3509 
L 1656 3122 
Q 1947 3350 2212 3478 
Q 2478 3606 2800 3606 
Q 3147 3606 3412 3451 
Q 3678 3297 3828 2997 
Q 4166 3281 4484 3443 
Q 4803 3606 5109 3606 
Q 5678 3606 5973 3265 
Q 6269 2925 6269 2284 
L 6269 0 
L 5138 0 
L 5138 1753 
Q 5138 2013 5127 2191 
Q 5116 2369 5059 2481 
Q 5006 2594 4890 2645 
Q 4775 2697 4566 2697 
Q 4425 2697 4290 2648 
Q 4156 2600 3963 2488 
z
" transform="scale(0.015625)"/>
      <path id="Verdana-Bold-75" d="M 4028 0 
L 2903 0 
L 2903 388 
Q 2591 150 2331 26 
Q 2072 -97 1713 -97 
Q 1131 -97 817 237 
Q 503 572 503 1225 
L 503 3509 
L 1634 3509 
L 1634 1769 
Q 1634 1503 1651 1326 
Q 1669 1150 1731 1034 
Q 1791 919 1911 866 
Q 2031 813 2247 813 
Q 2391 813 2566 866 
Q 2741 919 2903 1022 
L 2903 3509 
L 4028 3509 
L 4028 0 
z
" transform="scale(0.015625)"/>
      <path id="Verdana-Bold-6e" d="M 4056 0 
L 2925 0 
L 2925 1741 
Q 2925 1953 2903 2164 
Q 2881 2375 2828 2475 
Q 2766 2591 2645 2644 
Q 2525 2697 2309 2697 
Q 2156 2697 1998 2647 
Q 1841 2597 1656 2488 
L 1656 0 
L 531 0 
L 531 3509 
L 1656 3509 
L 1656 3122 
Q 1956 3356 2232 3481 
Q 2509 3606 2847 3606 
Q 3416 3606 3736 3275 
Q 4056 2944 4056 2284 
L 4056 0 
z
" transform="scale(0.015625)"/>
      <path id="Verdana-Bold-69" d="M 1656 0 
L 531 0 
L 531 3509 
L 1656 3509 
L 1656 0 
z
M 1688 4009 
L 500 4009 
L 500 4863 
L 1688 4863 
L 1688 4009 
z
" transform="scale(0.015625)"/>
      <path id="Verdana-Bold-74" d="M 2775 31 
Q 2594 -16 2391 -42 
Q 2188 -69 1894 -69 
Q 1238 -69 917 197 
Q 597 463 597 1106 
L 597 2747 
L 134 2747 
L 134 3509 
L 597 3509 
L 597 4513 
L 1722 4513 
L 1722 3509 
L 2775 3509 
L 2775 2747 
L 1722 2747 
L 1722 1503 
Q 1722 1319 1725 1181 
Q 1728 1044 1775 934 
Q 1819 825 1930 761 
Q 2041 697 2253 697 
Q 2341 697 2483 734 
Q 2625 772 2681 803 
L 2775 803 
L 2775 31 
z
" transform="scale(0.015625)"/>
      <path id="Verdana-Bold-79" d="M 2116 1241 
L 2916 3509 
L 4072 3509 
L 2122 -1288 
L 903 -1288 
L 1459 25 
L 94 3509 
L 1275 3509 
L 2116 1241 
z
" transform="scale(0.015625)"/>
      <path id="Verdana-Bold-61" d="M 2656 916 
L 2656 1647 
Q 2428 1628 2162 1595 
Q 1897 1563 1759 1519 
Q 1591 1466 1502 1364 
Q 1413 1263 1413 1097 
Q 1413 988 1431 919 
Q 1450 850 1525 788 
Q 1597 725 1697 695 
Q 1797 666 2009 666 
Q 2178 666 2351 734 
Q 2525 803 2656 916 
z
M 2656 372 
Q 2566 303 2431 206 
Q 2297 109 2178 53 
Q 2013 -22 1834 -58 
Q 1656 -94 1444 -94 
Q 944 -94 606 215 
Q 269 525 269 1006 
Q 269 1391 441 1634 
Q 613 1878 928 2019 
Q 1241 2159 1703 2218 
Q 2166 2278 2663 2306 
L 2663 2325 
Q 2663 2616 2425 2727 
Q 2188 2838 1725 2838 
Q 1447 2838 1131 2739 
Q 816 2641 678 2588 
L 575 2588 
L 575 3434 
Q 753 3481 1154 3545 
Q 1556 3609 1959 3609 
Q 2919 3609 3345 3314 
Q 3772 3019 3772 2388 
L 3772 0 
L 2656 0 
L 2656 372 
z
" transform="scale(0.015625)"/>
      <path id="Verdana-Bold-73" d="M 3581 1113 
Q 3581 569 3093 236 
Q 2606 -97 1759 -97 
Q 1291 -97 909 -9 
Q 528 78 297 184 
L 297 1109 
L 400 1109 
Q 484 1050 595 979 
Q 706 909 909 828 
Q 1084 756 1306 704 
Q 1528 653 1781 653 
Q 2113 653 2272 726 
Q 2431 800 2431 944 
Q 2431 1072 2337 1130 
Q 2244 1188 1981 1241 
Q 1856 1269 1642 1301 
Q 1428 1334 1253 1381 
Q 775 1506 544 1770 
Q 313 2034 313 2428 
Q 313 2934 792 3270 
Q 1272 3606 2103 3606 
Q 2497 3606 2858 3526 
Q 3219 3447 3422 3356 
L 3422 2469 
L 3325 2469 
Q 3075 2641 2754 2748 
Q 2434 2856 2106 2856 
Q 1834 2856 1648 2781 
Q 1463 2706 1463 2569 
Q 1463 2444 1547 2378 
Q 1631 2313 1944 2247 
Q 2116 2213 2314 2180 
Q 2513 2147 2713 2097 
Q 3156 1981 3368 1732 
Q 3581 1484 3581 1113 
z
" transform="scale(0.015625)"/>
      <path id="Verdana-Bold-65" d="M 3988 1547 
L 1413 1547 
Q 1438 1134 1727 915 
Q 2016 697 2578 697 
Q 2934 697 3268 825 
Q 3603 953 3797 1100 
L 3922 1100 
L 3922 197 
Q 3541 44 3203 -25 
Q 2866 -94 2456 -94 
Q 1400 -94 837 381 
Q 275 856 275 1734 
Q 275 2603 808 3111 
Q 1341 3619 2269 3619 
Q 3125 3619 3556 3186 
Q 3988 2753 3988 1941 
L 3988 1547 
z
M 2869 2206 
Q 2859 2559 2693 2737 
Q 2528 2916 2178 2916 
Q 1853 2916 1643 2747 
Q 1434 2578 1409 2206 
L 2869 2206 
z
" transform="scale(0.015625)"/>
      <path id="Verdana-Bold-76" d="M 4066 3509 
L 2713 0 
L 1438 0 
L 94 3509 
L 1284 3509 
L 2097 1097 
L 2900 3509 
L 4066 3509 
z
" transform="scale(0.015625)"/>
      <path id="Verdana-Bold-72" d="M 3075 2438 
L 2975 2438 
Q 2903 2463 2743 2475 
Q 2584 2488 2478 2488 
Q 2238 2488 2053 2456 
Q 1869 2425 1656 2350 
L 1656 0 
L 531 0 
L 531 3509 
L 1656 3509 
L 1656 2994 
Q 2028 3313 2303 3417 
Q 2578 3522 2809 3522 
Q 2869 3522 2944 3519 
Q 3019 3516 3075 3509 
L 3075 2438 
z
" transform="scale(0.015625)"/>
      <path id="Verdana-Bold-68" d="M 4056 0 
L 2925 0 
L 2925 1741 
Q 2925 1953 2903 2164 
Q 2881 2375 2828 2475 
Q 2766 2591 2645 2644 
Q 2525 2697 2309 2697 
Q 2156 2697 1998 2647 
Q 1841 2597 1656 2488 
L 1656 0 
L 531 0 
L 531 4863 
L 1656 4863 
L 1656 3122 
Q 1956 3356 2232 3481 
Q 2509 3606 2847 3606 
Q 3416 3606 3736 3275 
Q 4056 2944 4056 2284 
L 4056 0 
z
" transform="scale(0.015625)"/>
      <path id="Verdana-Bold-70" d="M 4194 1803 
Q 4194 1369 4061 1012 
Q 3928 656 3713 425 
Q 3488 181 3203 56 
Q 2919 -69 2594 -69 
Q 2294 -69 2084 -5 
Q 1875 59 1656 175 
L 1656 -1288 
L 531 -1288 
L 531 3509 
L 1656 3509 
L 1656 3144 
Q 1916 3350 2186 3478 
Q 2456 3606 2809 3606 
Q 3466 3606 3830 3125 
Q 4194 2644 4194 1803 
z
M 3034 1781 
Q 3034 2294 2859 2525 
Q 2684 2756 2306 2756 
Q 2147 2756 1978 2707 
Q 1809 2659 1656 2569 
L 1656 803 
Q 1769 759 1897 746 
Q 2025 734 2150 734 
Q 2597 734 2815 995 
Q 3034 1256 3034 1781 
z
" transform="scale(0.015625)"/>
      <path id="Verdana-Bold-31" d="M 3938 0 
L 831 0 
L 831 813 
L 1813 813 
L 1813 3272 
L 831 3272 
L 831 4031 
Q 1056 4031 1262 4057 
Q 1469 4084 1606 4150 
Q 1769 4228 1850 4353 
Q 1931 4478 1944 4666 
L 2978 4666 
L 2978 813 
L 3938 813 
L 3938 0 
z
" transform="scale(0.015625)"/>
      <path id="Verdana-Bold-34" d="M 4297 1072 
L 3663 1072 
L 3663 -13 
L 2516 -13 
L 2516 1072 
L 263 1072 
L 263 1953 
L 2441 4653 
L 3663 4653 
L 3663 1922 
L 4297 1922 
L 4297 1072 
z
M 2516 1922 
L 2516 3603 
L 1163 1922 
L 2516 1922 
z
" transform="scale(0.015625)"/>
      <path id="Verdana-Bold-64" d="M 3944 0 
L 2819 0 
L 2819 366 
Q 2528 128 2275 15 
Q 2022 -97 1691 -97 
Q 1050 -97 665 397 
Q 281 891 281 1728 
Q 281 2175 411 2520 
Q 541 2866 766 3113 
Q 978 3347 1281 3476 
Q 1584 3606 1888 3606 
Q 2203 3606 2404 3539 
Q 2606 3472 2819 3369 
L 2819 4863 
L 3944 4863 
L 3944 0 
z
M 2819 969 
L 2819 2691 
Q 2700 2741 2569 2762 
Q 2438 2784 2328 2784 
Q 1884 2784 1662 2507 
Q 1441 2231 1441 1741 
Q 1441 1225 1619 992 
Q 1797 759 2191 759 
Q 2344 759 2516 817 
Q 2688 875 2819 969 
z
" transform="scale(0.015625)"/>
     </defs>
     <use xlink:href="#Verdana-Bold-53"/>
     <use xlink:href="#Verdana-Bold-47" x="71.044922"/>
     <use xlink:href="#Verdana-Bold-20" x="152.148438"/>
     <use xlink:href="#Verdana-Bold-43" x="186.328125"/>
     <use xlink:href="#Verdana-Bold-6f" x="258.691406"/>
     <use xlink:href="#Verdana-Bold-6d" x="327.34375"/>
     <use xlink:href="#Verdana-Bold-6d" x="433.154297"/>
     <use xlink:href="#Verdana-Bold-75" x="538.964844"/>
     <use xlink:href="#Verdana-Bold-6e" x="610.205078"/>
     <use xlink:href="#Verdana-Bold-69" x="681.445312"/>
     <use xlink:href="#Verdana-Bold-74" x="715.625"/>
     <use xlink:href="#Verdana-Bold-79" x="761.181641"/>
     <use xlink:href="#Verdana-Bold-20" x="826.269531"/>
     <use xlink:href="#Verdana-Bold-43" x="860.449219"/>
     <use xlink:href="#Verdana-Bold-61" x="932.8125"/>
     <use xlink:href="#Verdana-Bold-73" x="999.609375"/>
     <use xlink:href="#Verdana-Bold-65" x="1058.935547"/>
     <use xlink:href="#Verdana-Bold-73" x="1125.341797"/>
     <use xlink:href="#Verdana-Bold-20" x="1184.667969"/>
     <use xlink:href="#Verdana-Bold-6f" x="1218.847656"/>
     <use xlink:href="#Verdana-Bold-76" x="1287.5"/>
     <use xlink:href="#Verdana-Bold-65" x="1352.490234"/>
     <use xlink:href="#Verdana-Bold-72" x="1418.896484"/>
     <use xlink:href="#Verdana-Bold-20" x="1468.603516"/>
     <use xlink:href="#Verdana-Bold-74" x="1502.783203"/>
     <use xlink:href="#Verdana-Bold-68" x="1548.339844"/>
     <use xlink:href="#Verdana-Bold-65" x="1619.580078"/>
     <use xlink:href="#Verdana-Bold-20" x="1685.986328"/>
     <use xlink:href="#Verdana-Bold-70" x="1720.166016"/>
     <use xlink:href="#Verdana-Bold-61" x="1790.087891"/>
     <use xlink:href="#Verdana-Bold-73" x="1856.884766"/>
     <use xlink:href="#Verdana-Bold-74" x="1916.210938"/>
     <use xlink:href="#Verdana-Bold-20" x="1961.767578"/>
     <use xlink:href="#Verdana-Bold-31" x="1995.947266"/>
     <use xlink:href="#Verdana-Bold-34" x="2067.041016"/>
     <use xlink:href="#Verdana-Bold-20" x="2138.134766"/>
     <use xlink:href="#Verdana-Bold-64" x="2172.314453"/>
     <use xlink:href="#Verdana-Bold-61" x="2242.236328"/>
     <use xlink:href="#Verdana-Bold-79" x="2309.033203"/>
     <use xlink:href="#Verdana-Bold-73" x="2374.121094"/>
    </g>
   </g>
  </g>
 </g>
 <defs>
  <clipPath id="p659cf83b9e">
   <rect x="26.915625" y="22.318125" width="357.12" height="266.112"/>
  </clipPath>
 </defs>
</svg>
